<svg version="1.1" id="Layer_1" xmlns="http://www.w3.org/2000/svg" xmlns:xlink="http://www.w3.org/1999/xlink" x="0px" y="0px"
	 width="100%" viewBox="0 0 400 400" enable-background="new 0 0 400 400" xml:space="preserve">
<path fill="#000000" opacity="1.000000" stroke="none" 
	d="
M309.028748,328.980560 
	C302.517517,329.567780 297.457458,325.892792 292.057800,323.208740 
	C285.680939,320.039093 278.951080,324.145660 279.458191,331.091431 
	C279.863464,336.642578 279.572510,342.389893 284.261505,346.867523 
	C285.804810,348.341278 286.261841,351.301117 283.514740,352.861786 
	C280.906891,354.343323 275.185089,352.903229 274.117981,350.721619 
	C272.431396,347.273651 265.560699,343.652893 262.069702,344.372314 
	C259.913208,344.816742 255.312500,352.076691 255.213074,355.306274 
	C255.156784,357.134918 255.086548,358.987366 255.303360,360.795441 
	C255.844376,365.307556 253.760498,366.423798 249.522049,366.452362 
	C245.187836,366.481537 242.992126,365.597015 243.510651,360.717041 
	C244.400879,352.338989 237.597107,348.144135 232.908539,343.113098 
	C230.356689,340.374878 225.883347,342.267822 224.674057,345.955933 
	C223.380966,349.899750 222.140152,353.894348 221.348312,357.958710 
	C220.657425,361.504883 223.196457,364.683746 223.000687,368.432709 
	C222.841019,371.489868 222.380493,372.794189 219.168549,372.446960 
	C217.530807,372.269928 215.847107,372.549866 214.183548,372.569366 
	C212.928223,372.584076 211.525070,372.228607 211.699265,370.768677 
	C212.688553,362.476807 205.918365,359.936920 200.608551,355.532166 
	C196.266830,359.689728 189.275040,361.415100 190.059494,369.664276 
	C190.377869,373.012482 187.507080,372.711945 185.426712,372.348480 
	C183.025543,371.928986 179.255463,374.123230 178.783188,369.427155 
	C178.600922,367.614838 178.213531,365.515381 178.893234,363.976929 
	C181.986938,356.974884 177.613998,351.127441 176.158646,344.895050 
	C175.410919,341.692902 170.479523,340.923828 167.910233,343.826355 
	C163.284546,349.051971 157.149002,353.620300 158.026566,361.974976 
	C158.569885,367.147644 154.711578,366.102814 151.646530,366.348022 
	C148.029968,366.637360 146.472977,365.353607 146.622177,361.567413 
	C146.731674,358.788788 147.302643,355.925690 146.197388,353.165833 
	C142.712311,344.463501 137.473358,342.766602 129.254745,347.638062 
	C127.949852,348.411530 127.375389,349.456787 127.296982,350.871033 
	C127.163811,353.272827 125.606964,354.064484 123.558975,353.851379 
	C120.993690,353.584412 116.945610,355.566650 116.459984,351.570953 
	C116.086029,348.494141 113.898941,343.544617 119.938774,342.391663 
	C120.358437,342.311554 120.995956,341.818420 121.024414,341.475250 
	C121.488548,335.877106 121.888977,330.273285 122.223640,324.665955 
	C122.242645,324.347626 121.456680,323.630737 121.238052,323.700806 
	C117.269943,324.972046 113.372093,320.400970 109.200844,323.889160 
	C106.700294,325.980255 103.260780,326.904724 100.492386,328.731140 
	C97.525963,330.688171 94.928864,329.230896 92.460510,328.160767 
	C89.864182,327.035095 92.241730,325.047668 92.203346,323.440155 
	C92.124802,320.149658 91.978600,316.794403 91.254700,313.603180 
	C90.430122,309.968140 80.494286,307.602356 77.429909,310.510437 
	C74.585297,313.209961 71.402122,312.563873 68.544739,312.031128 
	C64.314888,311.242554 66.808868,307.989868 66.697792,305.712555 
	C68.911385,304.898651 68.946556,307.903320 71.452957,307.089264 
	C72.764557,300.724670 76.767769,295.025360 79.827072,288.858917 
	C80.045456,288.418762 80.404030,287.777924 80.243340,287.459656 
	C76.625847,280.294403 81.404953,283.338257 85.134377,282.267853 
	C92.773041,280.075409 91.195038,284.198273 91.306320,288.428009 
	C91.436752,293.385345 92.003143,298.341217 92.589661,303.272858 
	C92.963715,306.418030 94.033791,308.709869 98.105049,308.925781 
	C104.042007,309.240692 109.821877,311.239044 115.919151,310.589722 
	C118.216751,310.345062 119.815620,311.558960 118.781036,314.362457 
	C117.759560,317.130463 117.764030,320.181458 120.967613,320.921509 
	C127.554588,322.443176 130.695694,320.305725 130.811646,315.070343 
	C130.840958,313.746429 130.776016,312.384399 130.495636,311.096222 
	C129.554977,306.774567 129.980911,304.431732 135.478226,303.221252 
	C140.836594,302.041351 145.246368,297.651947 149.294128,293.676880 
	C151.383057,291.625488 151.069046,288.584473 150.309158,286.077667 
	C149.586136,283.692596 147.018555,283.600525 144.840805,283.423401 
	C137.606430,282.834900 130.370773,282.262085 122.857613,281.661041 
	C122.754211,292.568268 126.636208,302.755798 125.653366,313.874176 
	C121.326752,312.200287 121.184952,308.759888 121.528931,306.525024 
	C122.645370,299.271332 120.216240,292.452301 119.817947,285.417023 
	C119.644485,282.352936 118.167503,280.676270 114.837410,280.346985 
	C109.078026,279.777588 103.398315,278.518860 97.534485,279.431244 
	C94.949020,279.833557 93.094696,278.722321 94.101959,275.699768 
	C94.888046,273.340942 95.098969,271.181854 93.704666,269.013885 
	C92.850647,267.685944 93.111618,266.311554 94.206139,265.382019 
	C102.836426,258.052887 101.495277,248.207916 101.107971,238.578217 
	C100.999474,235.880386 101.277542,232.855438 97.682053,232.322845 
	C94.057922,231.786026 90.219421,227.197357 86.725914,232.896210 
	C85.259857,235.287735 82.388016,234.250549 80.216385,234.097656 
	C76.016785,233.802032 73.776299,235.643097 72.326561,239.405029 
	C70.291481,244.685898 68.110786,249.929977 65.634445,255.015503 
	C63.567879,259.259521 64.533569,262.009918 68.843422,263.596680 
	C72.487549,264.938324 75.347504,269.320557 80.140854,266.464722 
	C81.065697,265.913727 82.085770,266.723572 82.499168,267.748444 
	C83.197456,269.479584 82.702698,271.055023 81.491539,272.352203 
	C80.510162,273.403290 79.531174,272.972473 78.393539,272.281006 
	C73.436615,269.268066 68.403908,266.379791 63.342632,263.413361 
	C60.486752,265.641632 59.573219,268.573059 58.745785,271.337372 
	C57.591412,275.193939 59.882164,277.433044 63.921642,276.993988 
	C68.719612,276.472565 73.529137,276.055756 78.335609,275.615051 
	C79.810898,275.479797 81.714073,275.059448 81.438095,277.464233 
	C81.245308,279.144165 79.848709,279.110748 78.329216,278.886230 
	C72.995644,278.098175 67.787117,279.619110 62.511936,279.996002 
	C61.327366,280.080627 60.038593,280.476471 59.692230,281.734436 
	C58.190403,287.189087 53.814365,285.207275 50.605560,284.892426 
	C47.054028,284.543945 48.193653,281.095764 48.108646,278.789307 
	C48.033123,276.740204 47.590195,274.410950 50.750195,273.733521 
	C54.809273,272.863281 59.116173,267.006714 58.989281,262.913788 
	C58.970203,262.298584 58.826172,261.311737 58.448143,261.140289 
	C53.749416,259.009613 50.238716,254.108673 44.223717,255.006485 
	C43.081345,255.177002 41.887348,255.164352 40.733391,255.058838 
	C38.682537,254.871292 35.888023,255.792572 35.081715,253.126831 
	C34.273861,250.456039 34.347363,247.490982 35.208080,244.747635 
	C35.629875,243.403290 37.104717,243.439804 38.228394,243.660141 
	C44.775990,244.944138 49.743610,241.822830 54.635422,238.130035 
	C58.087597,235.524002 61.786743,233.244720 65.380737,230.827148 
	C67.425232,229.451859 68.101624,227.468521 67.655029,225.166107 
	C67.190147,222.769409 65.061127,223.643677 63.561466,223.346573 
	C58.676807,222.378845 53.810017,221.279999 48.888908,220.552582 
	C45.936039,220.116104 43.281723,219.699219 40.062256,221.768463 
	C34.497776,225.344955 29.432934,221.828873 29.741632,215.673355 
	C29.892162,212.671738 31.129007,211.364639 34.037823,211.646606 
	C41.057896,212.327072 44.067837,206.679398 48.119766,202.716904 
	C49.014534,201.841919 49.173157,200.363754 48.312946,199.482025 
	C44.582100,195.657837 41.882301,189.948990 35.375286,190.509659 
	C29.335226,191.030075 30.178217,187.185028 30.032749,183.491333 
	C29.843693,178.690796 32.914547,179.080490 36.053730,179.399277 
	C38.105431,179.607635 40.464760,178.819931 41.732372,181.447296 
	C42.108849,182.227631 43.174049,182.072769 44.019390,181.908752 
	C51.035282,180.547424 58.069790,179.273865 65.056656,177.777542 
	C66.580315,177.451248 67.935486,176.338211 69.498421,175.519302 
	C72.925529,178.171997 70.055824,182.811600 73.530388,185.477219 
	C65.974327,187.976776 62.094612,194.150269 56.842529,198.653351 
	C55.001701,200.231674 55.421249,201.768860 57.086006,203.263687 
	C61.174271,206.934662 65.007515,210.937988 69.385689,214.216980 
	C71.514793,215.811523 72.274651,217.157257 71.664360,219.531906 
	C71.243149,221.170837 71.017303,222.837234 71.699043,224.444077 
	C72.812088,227.067474 73.047577,230.879593 77.279526,230.111664 
	C81.233170,229.394257 84.330582,223.802887 82.527374,220.357788 
	C80.844353,217.142334 81.558624,215.056656 83.538773,212.310608 
	C92.367416,200.067078 92.360703,199.538437 82.611710,187.794586 
	C80.552612,185.314148 79.623985,183.549713 82.094543,181.064926 
	C84.838913,178.304749 83.092964,175.126419 82.949020,172.064697 
	C82.870705,170.398880 81.629883,168.111664 83.994759,167.194489 
	C86.517799,166.215958 87.015823,168.210648 87.414879,170.156967 
	C87.523849,170.688461 88.142387,171.293427 88.675797,171.531631 
	C92.740974,173.347046 100.791603,168.120575 101.137466,163.619705 
	C101.465263,159.353806 100.808182,154.946960 102.794846,150.889526 
	C103.422295,149.608078 102.595802,148.650391 101.950394,147.702026 
	C99.700874,144.396545 97.447113,141.093307 95.142197,137.826431 
	C93.357521,135.296906 90.988167,134.312103 87.799294,134.628265 
	C84.718819,134.933685 81.525146,135.699066 78.513489,133.944702 
	C77.359367,133.272400 76.274689,134.121613 75.278999,134.711838 
	C73.416016,135.816147 71.563721,136.939011 69.720467,138.076004 
	C63.704063,141.787170 63.678432,141.803833 66.740685,148.459427 
	C69.720085,154.934937 71.678993,161.890472 75.857986,167.785080 
	C70.518303,173.175247 69.840729,173.278336 64.001335,169.444565 
	C62.191578,168.256409 60.444839,166.972656 58.644623,165.769547 
	C52.161518,161.436737 46.007320,156.232895 36.978733,158.530197 
	C37.014153,154.589554 35.912014,151.549698 37.176067,148.272354 
	C39.428722,149.637939 38.128059,151.235352 38.253654,152.582947 
	C38.416534,154.330673 39.337494,155.458511 41.074154,155.473969 
	C42.785278,155.489212 43.488693,153.895767 43.294563,152.680923 
	C42.658958,148.703445 44.477100,147.925781 48.065685,147.088486 
	C51.640434,146.254410 54.790077,143.562805 58.095432,141.633087 
	C58.993832,141.108597 59.839424,140.159821 59.301838,139.161392 
	C57.095261,135.063293 57.897526,128.888382 51.214382,127.802567 
	C49.032326,127.448036 47.345268,120.031921 48.707882,118.123650 
	C49.254089,117.358696 49.955788,117.058693 50.856010,117.272087 
	C51.727676,117.478706 52.259274,118.043060 52.588058,118.885803 
	C53.075577,120.135452 51.843525,121.507355 52.877739,122.718323 
	C54.372463,122.762672 54.787460,121.530006 55.421188,120.605988 
	C56.057846,119.677719 56.135696,118.354057 57.784428,117.644516 
	C59.632465,122.973457 64.400589,122.250206 68.623047,122.629974 
	C72.744583,123.000648 76.886574,123.143936 80.995369,123.385620 
	C83.777061,133.106262 83.777061,133.106262 97.576149,129.268814 
	C96.914368,137.130020 102.108070,142.296341 105.885895,148.159897 
	C107.112846,150.064270 108.602982,151.462051 111.010391,151.709641 
	C114.091354,152.026566 116.238754,151.335968 116.599022,147.742386 
	C117.244301,141.305786 117.887375,134.862473 118.812088,128.462509 
	C119.504265,123.671951 116.997749,122.825493 113.293274,123.700592 
	C108.558624,124.819054 103.731522,124.887726 98.953285,125.479370 
	C98.137825,125.580330 97.294510,125.796997 96.659615,124.950333 
	C96.273857,123.349800 97.362709,122.911804 98.585945,122.748863 
	C104.176933,122.004173 109.758949,121.084908 115.376610,120.692291 
	C118.240105,120.492149 119.647034,119.635452 119.940086,116.729065 
	C120.620796,109.977936 121.507927,103.247551 122.181641,96.495819 
	C122.329567,95.013313 121.780983,93.086922 123.978256,93.180901 
	C126.115967,93.272316 125.704849,95.052963 125.483246,96.615639 
	C124.597382,102.862404 124.027756,109.163284 122.891930,115.361832 
	C122.215599,119.052757 124.030464,119.452820 126.714386,119.177109 
	C133.155670,118.515404 139.627747,118.116753 145.990356,116.756935 
	C148.003174,116.326759 150.180557,116.270462 150.498260,113.711128 
	C150.802002,111.264252 151.445587,108.335556 149.066666,106.723518 
	C143.684570,103.076408 139.524353,97.376694 132.282578,96.722420 
	C130.077927,96.523224 129.272827,94.701271 129.901535,92.596283 
	C131.701370,86.570206 131.930099,81.332741 124.259583,79.269867 
	C122.797112,78.876556 122.763565,77.234413 122.655006,75.877510 
	C122.349457,72.058250 121.995468,68.242813 121.697029,64.423027 
	C121.566742,62.755463 121.683105,61.002029 119.630402,60.318844 
	C116.220627,59.184006 116.627831,56.901340 117.523346,54.863827 
	C124.858330,53.624264 131.483643,55.342968 138.064819,57.473576 
	C139.978790,58.093212 141.126160,56.835789 142.132339,55.348995 
	C144.961945,51.167786 147.571259,46.984913 146.710876,41.536652 
	C146.076538,37.519825 147.367004,35.484516 152.071518,35.546192 
	C156.311127,35.601776 158.481003,36.685200 157.951111,41.132183 
	C157.135376,47.977783 162.222061,51.849899 166.085526,55.866447 
	C169.633179,59.554665 169.970016,63.104401 168.861252,67.472519 
	C168.078537,70.556152 167.366272,73.176193 172.281189,73.747925 
	C175.016083,74.066063 174.521378,77.369904 174.045410,79.696884 
	C172.946121,85.071503 171.867798,90.452103 170.644775,95.799133 
	C169.827927,99.370430 170.838928,100.576241 174.724472,101.158890 
	C184.413040,102.611740 189.223282,95.141266 195.593414,90.593697 
	C197.680801,89.103546 196.061829,87.295738 194.492950,86.142365 
	C189.649109,82.581375 185.656693,77.400772 178.848358,78.630867 
	C178.054062,75.147255 179.688858,73.177399 180.901566,71.373352 
	C183.676086,67.245895 182.059128,64.342285 178.569809,62.244579 
	C176.167389,60.800301 175.807434,59.200890 176.556244,56.872570 
	C176.657440,56.557999 176.652924,56.210217 176.746628,55.892334 
	C178.584579,49.657089 181.451736,43.610435 178.787567,36.782417 
	C178.060608,34.919239 178.677216,32.531818 178.677216,30.425781 
	C181.732803,28.823099 184.610672,29.729286 187.354172,29.575880 
	C190.350647,29.408323 190.079651,31.819843 190.168442,33.816380 
	C190.397964,38.977512 193.756561,43.653549 198.549820,45.365955 
	C199.288284,45.629780 200.205841,45.740021 200.956863,45.564011 
	C205.507660,44.497471 211.403244,37.423244 211.542984,32.601902 
	C211.617096,30.044586 212.339569,28.855057 215.067139,29.252161 
	C216.531097,29.465298 218.057159,29.437359 219.537506,29.310959 
	C222.043411,29.096994 223.054810,30.426661 222.651215,32.593403 
	C222.119720,35.446789 222.906219,38.331089 221.181961,41.258858 
	C219.645142,43.868362 222.322449,46.880318 222.719574,49.815025 
	C222.983017,51.761768 223.965103,53.601013 224.490387,55.525261 
	C225.098450,57.752659 227.488144,60.578724 224.126953,62.032673 
	C221.336533,63.239731 218.316635,65.627228 214.865540,61.726334 
	C211.613281,58.050217 207.085892,55.512470 203.172882,52.406647 
	C201.009033,50.689163 199.148621,50.627045 197.019135,52.603905 
	C194.582581,54.865833 191.905899,56.875034 189.281937,58.928062 
	C181.894424,64.708160 181.864822,72.416931 189.239471,78.317848 
	C200.568710,87.383072 200.551086,87.360428 211.965958,78.476479 
	C214.346893,76.623436 216.428146,74.569931 217.900360,71.049469 
	C221.338516,74.840103 224.867218,75.817299 229.543396,74.149521 
	C232.586548,73.064163 233.668747,71.342522 232.624130,69.151573 
	C228.979797,61.508060 233.937042,56.978088 238.362732,52.430035 
	C241.936996,48.756969 244.025681,44.920605 243.740173,39.618488 
	C243.430115,33.860359 248.172455,36.219955 251.005478,35.704746 
	C254.330200,35.100121 255.651962,36.759422 255.252411,39.949253 
	C254.593277,45.211498 255.140442,49.981686 258.656525,54.458683 
	C260.919098,57.339592 262.912720,58.307484 266.219269,56.856251 
	C271.847168,54.386177 277.453430,54.871223 283.555359,57.164909 
	C277.213745,63.896492 281.013794,72.835747 277.717407,80.173378 
	C275.394348,76.967339 277.134308,73.567039 276.834686,70.329239 
	C276.732117,69.221367 277.330292,68.064278 277.495239,66.913460 
	C278.573212,59.393131 275.916443,56.996048 268.673584,59.024208 
	C266.964630,59.502754 264.943176,59.271465 263.223083,61.529083 
	C265.705048,65.811180 268.233124,70.413460 270.997131,74.869385 
	C273.442383,78.811401 271.855438,80.891022 268.407013,82.350624 
	C267.133453,81.855103 266.686432,80.890709 266.941559,80.208870 
	C269.689606,72.864304 263.286835,68.829391 260.874268,63.387196 
	C259.951721,61.306118 257.904297,61.776428 256.030548,62.298393 
	C250.902161,63.726990 245.776581,65.183464 240.596558,66.402199 
	C237.444458,67.143791 236.057999,68.680878 236.568954,72.018700 
	C237.203964,76.166939 236.781235,79.812309 230.609467,79.476738 
	C231.811295,85.884491 232.896271,91.849953 234.062790,97.799438 
	C234.526581,100.164925 236.213257,100.794746 238.480133,100.941025 
	C242.758286,101.217064 247.155701,100.206688 251.318039,102.108398 
	C251.909760,102.378746 253.074860,102.097565 253.624817,101.645828 
	C258.538788,97.609451 265.181641,95.592896 268.119476,88.857491 
	C270.860962,91.144493 273.313904,93.058098 277.159180,92.165192 
	C279.194489,91.692589 280.672791,93.677040 280.155701,96.205643 
	C278.655792,103.539772 281.339294,110.613602 281.557465,117.845505 
	C281.602539,119.340149 282.814819,120.179871 284.269745,120.344810 
	C290.688507,121.072456 297.100006,122.012047 303.541077,122.331650 
	C306.676178,122.487213 308.493286,122.941734 307.804260,126.483215 
	C307.167419,129.756195 309.257019,130.859222 311.779510,130.818527 
	C314.442078,130.775558 318.496307,132.503616 318.920227,127.824875 
	C319.280640,123.847092 321.170776,122.643066 324.733765,122.864304 
	C325.557404,122.915443 326.402771,122.822372 327.222656,122.695610 
	C333.162933,121.777145 340.489685,125.201500 343.658600,116.476967 
	C346.226501,118.787979 344.243958,123.035332 348.195282,123.156815 
	C352.330933,123.283951 349.640839,118.400375 352.565277,117.282043 
	C354.627899,119.591240 353.005798,122.358871 353.411682,124.818169 
	C354.095001,128.958679 350.526154,127.601395 348.500610,128.515076 
	C344.366730,130.379791 344.184906,134.966171 342.832306,138.550797 
	C341.784882,141.326660 345.035431,141.750656 346.632812,142.963028 
	C351.199341,146.428909 356.332886,147.574081 362.003265,146.797577 
	C366.452637,146.188293 367.231964,148.779999 367.112823,152.583298 
	C366.999390,156.201416 366.603180,159.124802 361.956512,158.299561 
	C355.494873,157.152023 350.874115,160.784241 346.101013,164.134583 
	C342.692352,166.527191 339.234222,168.849228 335.812592,171.223572 
	C334.395172,172.207138 333.210449,173.386673 333.421509,175.308121 
	C333.671448,177.583557 335.595276,177.507584 337.175629,177.842911 
	C343.360016,179.155075 349.555817,180.413910 355.733429,181.756866 
	C357.759003,182.197235 359.176025,182.114304 361.023529,180.453812 
	C363.820190,177.940186 367.997925,178.186127 370.795807,180.120239 
	C373.429901,181.941132 371.892365,185.670883 371.663818,188.559677 
	C371.528015,190.276352 369.838409,190.521942 368.551147,190.297714 
	C360.144226,188.833450 356.700256,195.471161 351.324463,200.422394 
	C356.854675,205.079346 359.676178,212.764221 368.675110,211.435928 
	C370.550690,211.159088 372.231445,212.032639 371.923584,214.168732 
	C371.531555,216.889114 373.758575,220.976212 369.890015,221.998108 
	C366.852905,222.800385 362.948792,223.785599 360.079346,220.683868 
	C359.290131,219.830750 358.437012,219.772522 357.375671,219.975327 
	C350.357208,221.316544 343.221680,222.212021 336.345734,224.071533 
	C332.068298,225.228287 329.980164,224.809265 329.625427,220.113068 
	C329.518311,218.694962 327.985901,217.535065 328.637756,215.903061 
	C336.290741,212.725067 340.819916,206.041397 347.058960,200.222824 
	C342.479675,195.929413 338.554871,191.604904 333.979492,188.139252 
	C329.304047,184.597778 320.170746,186.995132 317.010315,191.940201 
	C310.056793,202.820190 309.927582,202.924927 317.996887,212.874985 
	C320.038269,215.392120 320.440155,217.360214 319.630188,220.434082 
	C317.935822,226.864655 322.131653,230.568420 328.449097,228.322693 
	C330.818054,227.480560 331.901001,227.871277 333.956421,229.477722 
	C340.235168,234.384872 346.912292,238.837418 353.737427,242.965836 
	C356.909119,244.884338 360.950897,243.119965 364.804321,243.814499 
	C366.011536,247.120987 365.054504,250.515457 365.432465,254.433853 
	C357.671967,253.856491 350.783966,254.626373 344.628754,259.117401 
	C342.228180,260.868927 341.472473,262.206207 342.881622,264.742249 
	C344.949158,268.463074 345.140564,273.252991 350.973572,274.456024 
	C354.522461,275.187958 353.155701,279.520264 353.175568,282.355042 
	C353.195282,285.164398 350.892731,285.289673 348.841339,285.189087 
	C345.880768,285.043884 342.430969,286.227020 341.437775,281.435699 
	C340.906769,278.874023 325.028900,277.241486 323.399780,279.384399 
	C321.716736,281.598114 322.810089,284.431702 321.782715,287.015930 
	C320.443024,290.385742 327.997986,300.409729 331.700256,300.730255 
	C336.905548,301.180908 334.598999,304.980469 334.981567,307.522644 
	C335.394897,310.269379 334.441498,312.079254 331.235901,311.973969 
	C328.307220,311.877808 325.810944,312.025940 323.216034,309.367065 
	C319.745636,305.811096 310.209564,310.821106 309.543427,316.309021 
	C309.066223,320.240356 309.158630,324.240875 308.999634,328.606476 
	C309.002350,329.002441 309.028748,328.980560 309.028748,328.980560 
M181.006256,177.415298 
	C177.492416,174.800293 180.005661,171.253799 179.802719,168.220215 
	C179.321930,161.033173 179.365143,160.799057 172.323822,161.699814 
	C162.892899,162.906265 162.892899,162.906281 161.801514,172.197311 
	C160.901459,179.859573 160.901459,179.859573 168.752701,179.891205 
	C178.174149,179.929169 178.176636,179.929169 178.179001,189.288132 
	C178.181747,200.218567 178.179626,211.149002 178.179626,222.225388 
	C175.937576,222.398132 174.968613,222.557571 174.004044,222.534271 
	C161.499695,222.232330 161.676407,222.217545 162.252365,234.578430 
	C162.436844,238.537750 163.809494,239.646667 167.606705,239.735031 
	C179.447281,240.010574 179.529770,240.154449 179.821686,228.372910 
	C179.900620,225.187347 180.931442,223.927551 184.226913,223.993149 
	C193.055206,224.168884 201.888870,224.070526 210.720367,224.091110 
	C221.963821,224.117310 221.944931,224.121872 222.115189,235.290787 
	C222.141968,237.047806 221.394241,239.557556 223.446762,240.230804 
	C227.501221,241.560699 231.811676,240.890640 235.712708,239.538925 
	C238.896240,238.435852 238.561295,235.003387 238.627396,232.190201 
	C238.859177,222.326874 238.843613,222.189117 228.970505,222.223068 
	C225.162933,222.236160 223.561981,221.093658 223.663574,217.082413 
	C223.882935,208.422089 223.751740,199.752533 223.739120,191.086777 
	C223.723419,180.305695 223.712662,180.307358 234.574524,179.843170 
	C235.405212,179.807678 236.239914,179.769028 237.062225,179.655594 
	C238.399475,179.471161 239.458984,178.523239 239.210587,177.335022 
	C238.356552,173.249863 239.292282,168.995087 237.886139,164.978928 
	C237.411362,163.622864 236.717331,162.787781 235.227982,162.357819 
	C224.293411,159.201019 222.333862,160.563828 222.042984,171.723007 
	C222.038635,171.889572 222.024857,172.057480 222.039062,172.222733 
	C222.369705,176.071152 220.716629,177.447174 216.782379,177.389664 
	C205.120911,177.219299 193.454224,177.406601 181.006256,177.415298 
M209.827408,97.707481 
	C207.589981,95.979355 205.370804,94.226898 203.108505,92.531967 
	C201.684967,91.465431 200.363800,91.189751 198.581696,92.275230 
	C181.427780,102.723763 179.538895,106.187691 180.303528,126.547836 
	C180.503616,131.875626 183.270004,134.762253 188.662979,134.978806 
	C196.302948,135.285583 203.947388,135.529144 211.592285,135.648972 
	C216.979858,135.733414 221.309784,131.554123 221.638870,126.154701 
	C221.750046,124.330681 221.476410,122.466187 221.733093,120.670868 
	C223.187271,110.499290 219.697052,102.868340 209.827408,97.707481 
M119.878494,151.131088 
	C120.790810,155.090210 119.121956,156.101410 115.575607,154.837524 
	C114.448853,154.435959 113.378502,153.955994 112.316101,154.881271 
	C111.576881,155.525101 111.461708,156.428131 112.044273,157.107376 
	C114.951591,160.497238 119.033165,160.922562 122.997284,160.618515 
	C126.510834,160.349014 126.085991,157.266800 125.793182,154.774872 
	C125.510201,152.366577 126.654045,151.308914 128.842819,151.269196 
	C131.227570,151.225922 131.286652,153.034470 131.319107,154.764038 
	C131.331604,155.429260 131.398697,156.103027 131.321503,156.758850 
	C130.847260,160.787491 132.708527,162.162842 136.563507,161.661652 
	C142.637604,160.871948 148.738663,160.288864 154.811508,159.490540 
	C157.160645,159.181717 158.697037,157.878098 158.956497,155.266754 
	C159.463669,150.162323 160.347687,145.085220 160.641174,139.971863 
	C161.178589,130.608658 161.046753,130.605560 151.954269,130.111755 
	C151.674164,130.096542 151.410828,129.771866 150.751297,129.333084 
	C150.751297,127.783287 150.627975,125.969353 150.777344,124.178162 
	C151.075256,120.605873 149.283707,119.206268 146.007416,119.607521 
	C139.422791,120.413940 132.862961,121.420799 126.282722,122.265846 
	C123.852936,122.577896 122.323761,123.464455 122.080132,126.213531 
	C121.363182,134.303558 120.478218,142.378708 119.878494,151.131088 
M282.237305,150.763901 
	C281.365143,142.546799 280.465820,134.332458 279.635284,126.111153 
	C279.337402,123.162155 277.479095,122.389565 274.886902,122.078941 
	C268.467651,121.309700 262.069885,120.362076 255.662155,119.496063 
	C252.111130,119.016136 249.744843,119.685509 250.365936,124.175041 
	C250.622787,126.031647 251.010956,128.123978 249.572632,130.318848 
	C247.937027,130.318848 246.120529,130.453568 244.331284,130.290054 
	C240.895737,129.976074 239.604492,131.108612 240.015793,134.805069 
	C240.730057,141.224091 241.115387,147.696106 241.264481,154.154541 
	C241.335815,157.244553 242.416992,158.782822 245.425339,159.146408 
	C250.842163,159.801102 256.269653,160.401138 261.659454,161.237915 
	C269.648956,162.478317 269.922394,162.340820 271.173950,154.262344 
	C271.240723,153.831161 271.645905,153.452423 271.938049,152.976822 
	C277.167908,153.694885 274.924164,158.306534 276.212891,161.703140 
	C279.694214,158.726471 280.348114,154.816040 282.237305,150.763901 
M312.297577,193.724014 
	C313.249664,191.243896 316.370300,189.560257 314.805481,186.146088 
	C313.138245,182.508545 315.240845,180.537582 318.302948,179.163605 
	C321.416748,177.766418 324.580475,177.648010 327.653015,179.174576 
	C329.117523,175.536499 329.117523,175.536499 324.030731,167.480453 
	C327.797516,166.999054 328.962769,164.198242 330.074890,161.157089 
	C331.501831,157.255066 333.239594,153.466446 334.851929,149.632523 
	C338.444702,141.089432 340.198059,142.074158 330.166565,136.705856 
	C327.998505,135.545654 325.368927,132.536606 323.702789,133.652115 
	C319.688354,136.339890 315.627136,134.721725 311.647980,135.226990 
	C309.987183,135.437881 307.975250,135.195236 307.192627,136.886383 
	C304.537842,142.623047 296.812653,146.142487 300.105591,154.611191 
	C301.288330,157.652847 300.183350,161.537354 300.368042,165.024185 
	C300.681641,170.944687 306.162750,169.366318 309.410919,170.978302 
	C311.692474,172.110611 313.617126,171.822449 314.256256,168.804886 
	C314.478424,167.755981 315.269562,167.087173 316.452942,167.193069 
	C318.104889,167.340897 318.010529,168.592178 318.075989,169.776611 
	C318.149384,171.104080 318.300720,172.427200 318.417969,173.752243 
	C318.712280,177.078110 316.912994,177.736877 314.465454,176.342316 
	C312.253418,175.081940 309.991119,174.175598 307.560822,173.593628 
	C303.596161,172.644226 299.929077,172.331955 300.219238,178.141846 
	C300.314301,180.045395 298.147766,180.130203 297.712677,181.920441 
	C301.207153,187.231201 304.799042,192.689987 308.695831,198.612167 
	C310.154419,196.657059 311.036560,195.474670 312.297577,193.724014 
M194.583771,266.349854 
	C190.112747,266.662903 185.137619,264.921234 181.846283,269.830841 
	C180.065720,272.486847 179.462738,292.096191 181.360504,294.645050 
	C181.946594,295.432220 182.732742,296.100616 183.519318,296.703278 
	C188.272278,300.345032 193.127380,303.858215 197.789810,307.611298 
	C200.023575,309.409363 201.779099,309.338226 203.952408,307.576355 
	C208.085541,304.225708 212.235626,300.862244 216.638596,297.889008 
	C220.055847,295.581390 221.439819,292.482239 221.537491,288.655273 
	C221.660553,283.833893 221.758408,278.997772 221.520096,274.185211 
	C221.281464,269.366638 217.918640,266.405060 213.029053,266.356262 
	C207.206284,266.298126 201.382416,266.348724 194.583771,266.349854 
M303.520264,207.097183 
	C307.097839,203.484940 306.634216,200.031204 303.615234,196.179520 
	C300.754883,192.530228 298.293060,188.546707 295.890076,184.568787 
	C294.370850,182.053894 292.372498,180.581802 289.496368,180.516876 
	C284.349091,180.400696 279.191772,180.251266 274.051636,180.450851 
	C269.835876,180.614594 266.366638,184.086884 266.305939,187.970245 
	C266.163116,197.106400 266.164673,206.244812 266.101562,215.382263 
	C266.074463,219.300842 268.458740,221.025574 271.923706,221.558670 
	C273.717499,221.834656 275.573914,221.825714 277.396851,221.771561 
	C298.020050,221.158875 291.994049,224.931778 303.520264,207.097183 
M128.576569,221.541916 
	C133.690826,219.867340 135.907730,216.421280 135.710999,210.977844 
	C135.458771,203.999237 135.673492,197.004730 135.624374,190.017502 
	C135.586655,184.653244 131.754532,180.692871 126.417770,180.382492 
	C109.161209,179.378860 109.161545,179.379074 99.645004,193.749619 
	C99.277695,194.304276 98.947243,194.896652 98.505470,195.386566 
	C95.394981,198.835953 95.536690,201.923981 98.182625,205.963531 
	C108.765808,222.120880 108.614494,222.219986 128.576569,221.541916 
M281.588593,260.270233 
	C281.673767,258.945038 281.516785,257.547333 281.888092,256.307861 
	C283.158813,252.065842 281.305359,250.886963 277.388519,251.166779 
	C275.295563,251.316299 273.136017,251.978165 270.995636,251.031799 
	C270.025482,248.913406 270.867218,246.746109 270.706879,244.636154 
	C270.532898,242.346405 269.639435,241.435760 267.218597,241.670120 
	C260.298767,242.340057 253.359360,242.806793 246.429428,243.375046 
	C243.763458,243.593658 241.533432,244.259445 241.354218,247.615463 
	C241.044785,253.409988 240.764771,259.216248 240.131989,264.980194 
	C239.607773,269.755341 241.553665,271.305115 246.077011,270.748474 
	C247.859528,270.529083 250.457397,269.532776 250.833664,272.631226 
	C251.169830,275.399536 249.600525,276.516174 246.830231,276.084656 
	C245.794373,275.923309 244.689484,276.328644 244.569992,277.514221 
	C244.422134,278.981049 245.525726,279.690338 246.804993,279.527069 
	C249.826416,279.141418 252.348160,281.243378 255.511200,280.760742 
	C262.065063,279.760651 268.696777,279.223450 275.312439,278.696014 
	C278.420837,278.448212 279.623840,276.944763 279.890594,273.974518 
	C280.276093,269.681641 280.963104,265.415863 281.588593,260.270233 
M159.838257,253.312805 
	C159.396027,245.493500 160.144119,242.068878 149.526337,242.139297 
	C145.910416,242.163284 142.279388,241.401810 138.671982,240.882965 
	C132.495087,239.994537 131.458298,240.883667 131.371689,247.270416 
	C131.354263,248.555344 131.776810,249.949387 130.407227,251.430328 
	C128.250854,251.430328 125.780151,251.334885 123.320663,251.460022 
	C121.290398,251.563324 119.588921,252.518860 119.815430,254.812988 
	C120.497025,261.716370 121.404831,268.597107 122.154427,275.494293 
	C122.403046,277.781921 123.742989,278.312592 125.802200,278.720734 
	C130.735809,279.698578 135.717438,279.790100 140.693069,280.025024 
	C149.808578,280.455383 149.806061,280.411255 151.053329,271.807373 
	C151.093475,271.530487 151.439331,271.297913 151.779587,270.874176 
	C153.293716,270.874176 154.960526,270.702606 156.579742,270.907379 
	C160.880753,271.451355 161.825882,268.969757 161.492828,265.508850 
	C161.128342,261.721405 160.519287,257.957520 159.838257,253.312805 
M167.376053,304.354065 
	C167.340164,302.657745 167.282761,300.275726 165.212204,300.522858 
	C157.143356,301.485962 148.493378,296.305695 140.895096,303.832520 
	C137.223099,307.469971 133.131378,309.991943 134.279755,315.963135 
	C135.185135,320.670654 132.505737,325.414185 135.876190,330.326416 
	C142.555954,340.061707 142.188812,340.313629 153.538818,337.133575 
	C163.982025,334.207550 163.979034,334.207367 164.722000,323.744812 
	C164.743454,323.442444 164.989044,323.155975 165.138550,322.853149 
	C166.710419,321.625610 168.782547,323.755005 170.595352,321.760437 
	C170.131729,316.278046 169.085876,310.599426 167.376053,304.354065 
M266.703339,310.298645 
	C263.844025,304.361786 257.654694,302.377899 252.885513,298.712738 
	C252.576828,298.475494 251.789917,298.482147 251.457764,298.711639 
	C247.500275,301.445648 243.035797,299.789368 238.822037,300.194702 
	C236.514771,300.416656 234.603592,300.667542 234.122833,303.519440 
	C233.088501,309.655334 231.883728,315.762512 230.793549,321.639771 
	C232.817032,323.328583 235.297729,321.527374 236.823196,323.645294 
	C237.190018,326.450897 235.569351,329.456238 236.832886,332.345703 
	C237.752213,334.448059 257.453979,340.393951 259.656311,339.357910 
	C261.331421,338.569885 268.573578,326.542206 267.846466,324.887787 
	C265.855865,320.358429 267.215332,315.701385 266.703339,310.298645 
M170.315353,81.813545 
	C170.054184,81.211235 169.874466,80.138664 169.519653,80.077225 
	C164.272964,79.168716 164.351624,75.380142 164.675262,71.410881 
	C164.880814,68.889885 163.746826,67.237419 161.318817,66.564156 
	C155.869232,65.053032 150.381683,63.672539 144.962769,62.060173 
	C142.829422,61.425411 141.258499,61.881428 140.322281,63.748600 
	C137.527847,69.321770 133.657776,73.919594 133.812592,81.312218 
	C133.983856,89.489616 135.823471,95.040131 143.084106,98.671165 
	C144.558975,99.408752 145.832489,100.545547 147.211502,101.479599 
	C148.034470,102.037025 148.976791,102.876358 149.931458,102.314674 
	C153.672241,100.113701 157.740112,101.021057 161.667114,101.016273 
	C165.107391,101.012085 166.958557,99.569862 167.592743,96.280853 
	C168.474548,91.707596 169.400864,87.142937 170.315353,81.813545 
M332.578644,263.094391 
	C334.074432,261.857880 336.288605,261.543518 337.295868,259.436707 
	C334.675781,251.557770 331.164490,243.979340 327.231964,236.704254 
	C325.572662,233.634567 323.311615,228.153763 317.511047,232.072495 
	C317.149689,232.316635 316.344971,232.442856 316.089081,232.223785 
	C312.470795,229.126251 309.219940,232.212982 305.828827,232.763275 
	C301.362854,233.488037 299.836731,236.226181 300.139923,240.556763 
	C300.348206,243.531982 300.429565,246.594818 299.960083,249.521011 
	C299.182343,254.368698 304.694397,265.507721 309.287018,265.483002 
	C316.825317,265.442444 324.927612,269.404510 332.578644,263.094391 
M207.530121,319.010315 
	C200.668777,313.730499 200.678009,313.741913 193.882446,319.235291 
	C191.680878,321.014984 189.346268,322.634979 187.196823,324.473358 
	C183.195450,327.895599 182.803436,336.575104 186.652756,340.112061 
	C190.328827,343.489807 194.337219,346.503113 198.126099,349.761993 
	C199.803162,351.204407 201.197937,351.334961 202.903442,349.770599 
	C208.157074,344.951935 215.313751,342.100922 217.986664,334.178436 
	C221.610825,338.584381 225.836182,339.318695 229.921951,336.856567 
	C233.526688,334.684357 233.446075,330.837158 232.266754,326.899841 
	C230.084229,326.713776 228.261749,327.190582 226.408356,328.088989 
	C223.012604,329.735046 219.518372,329.022430 216.968185,326.707153 
	C214.119370,324.120758 211.003067,321.916626 207.530121,319.010315 
M275.793823,315.568695 
	C278.151886,314.873871 279.434113,317.862488 282.152740,317.284882 
	C283.838104,315.420105 281.828613,310.473022 286.882233,310.718811 
	C292.560883,310.994934 298.026184,309.128571 303.633545,308.685364 
	C307.233429,308.400787 308.416443,306.496460 308.701660,303.202087 
	C309.086823,298.753815 309.723022,294.322327 310.395569,289.905548 
	C310.858215,286.867340 310.432556,284.842041 306.653503,285.517365 
	C304.186584,285.958221 303.249512,284.833374 303.562500,282.438629 
	C303.712830,281.288544 303.923706,280.097839 302.406860,278.925842 
	C296.856171,279.292603 290.927704,279.352844 285.034576,280.383820 
	C282.436096,280.838409 281.643707,282.654053 281.630188,284.609070 
	C281.581482,291.643738 278.531067,298.434509 280.415466,305.699036 
	C281.034576,308.085815 279.333618,310.714294 275.773407,309.375732 
	C274.828674,309.020538 273.966644,308.471100 272.694946,309.479309 
	C272.038086,311.911316 270.649567,314.725769 275.793823,315.568695 
M177.987259,337.616302 
	C181.851822,334.644073 180.399902,330.317810 180.556641,326.536041 
	C180.663254,323.964111 181.285141,322.891266 183.808212,321.926392 
	C189.102646,319.901794 193.258118,316.058044 197.378723,312.290131 
	C188.889755,301.606201 180.254028,298.067047 170.571838,301.282806 
	C170.896347,310.296600 174.781525,319.112244 174.356323,328.223877 
	C170.838379,328.561432 171.665588,325.385986 169.669220,325.340637 
	C167.832458,335.383087 170.132248,339.117737 177.987259,337.616302 
M276.834991,102.431656 
	C277.184631,98.446518 275.529907,97.108810 271.391632,96.853226 
	C262.368408,96.295952 257.277466,102.799416 251.497787,107.568375 
	C248.003143,110.451904 250.716248,116.061333 255.241913,116.669708 
	C261.491608,117.509827 267.783752,118.118706 273.977631,119.260880 
	C278.265045,120.051506 279.023529,118.068481 278.584198,114.637085 
	C278.099365,110.850029 277.490723,107.078812 276.834991,102.431656 
M278.266479,289.508484 
	C279.329712,280.873199 279.276642,280.913422 271.031281,282.074707 
	C266.276184,282.744415 261.462494,283.003754 256.672638,283.418243 
	C254.336838,283.620331 251.711624,283.606995 250.834503,286.264954 
	C249.982178,288.847748 249.929321,292.159637 252.116394,293.725555 
	C258.248077,298.115753 263.173309,304.768982 272.119781,304.307495 
	C275.173401,304.149963 276.358063,303.370331 276.689850,300.601013 
	C277.102875,297.153839 277.582275,293.714630 278.266479,289.508484 
M302.897614,137.416306 
	C304.116882,134.365509 302.647095,131.213623 303.273895,128.088455 
	C303.614105,126.392227 302.207184,125.543045 300.460724,125.323570 
	C295.860840,124.745552 291.278931,124.025932 286.681671,123.425362 
	C283.562958,123.017937 282.045807,123.967255 282.575836,127.574478 
	C283.417725,133.304459 283.841888,139.096283 284.422424,144.863998 
	C284.687225,147.495071 284.538849,150.501129 287.793091,151.358475 
	C291.171051,152.248428 293.947357,151.113510 295.891907,148.002045 
	C298.005585,144.619965 300.304871,141.353928 302.897614,137.416306 
M114.791481,251.539917 
	C112.479492,251.289383 110.101570,250.912277 107.960602,252.066589 
	C102.724068,254.889893 97.125633,267.455872 98.314117,273.247772 
	C98.627914,274.777039 99.356316,275.672333 100.847130,275.853027 
	C105.783524,276.451416 110.719696,277.066864 115.669518,277.531311 
	C117.514992,277.704498 118.940392,277.016357 118.811272,274.722107 
	C118.377380,267.012756 118.177742,259.271759 114.791481,251.539917 
M256.357727,222.372818 
	C244.861725,222.364243 244.863693,222.364594 242.893890,233.415131 
	C242.777603,234.067535 242.536942,234.699692 242.444214,235.354019 
	C241.970642,238.695892 243.526215,239.903275 246.751099,239.562225 
	C253.165115,238.883972 259.580017,238.173737 266.011719,237.719543 
	C269.399078,237.480331 270.625580,235.855728 270.709076,232.641159 
	C270.879517,226.078171 266.203033,222.432907 256.357727,222.372818 
M207.462769,315.099762 
	C210.230743,317.211029 212.871063,319.522736 215.796844,321.386230 
	C220.091705,324.121704 226.674683,323.452820 227.542908,320.173828 
	C229.183563,313.977509 230.629501,307.698456 231.126038,300.648590 
	C226.100098,300.550751 221.364471,298.714081 216.943985,301.620453 
	C213.485260,303.894501 210.309296,306.594086 206.942245,309.013519 
	C204.235901,310.958191 203.892120,312.772034 207.462769,315.099762 
M226.647583,79.008850 
	C216.565338,76.601799 210.502838,83.095955 203.394745,89.083572 
	C207.201569,92.022484 210.559769,94.432266 213.706680,97.092033 
	C217.408585,100.220879 221.144516,101.963478 226.360474,101.097076 
	C230.178635,100.462845 231.346069,99.149963 230.614059,95.670723 
	C229.485092,90.304810 228.308807,84.948853 226.647583,79.008850 
M288.092590,251.542313 
	C286.673889,251.901611 285.755524,252.819641 285.422791,254.208389 
	C283.796265,260.997162 283.634674,267.957062 283.197418,274.872711 
	C283.065369,276.961578 284.702026,277.614594 286.641846,277.381958 
	C290.916901,276.869141 295.183838,276.262695 299.470856,275.884552 
	C302.644226,275.604675 303.466583,273.927338 303.655090,270.948547 
	C304.091766,264.046509 299.221436,259.885803 295.975128,254.846436 
	C294.259186,252.182724 291.987030,250.981552 288.092590,251.542313 
M260.431274,165.233871 
	C256.166138,164.705643 251.899902,164.186020 247.636307,163.645645 
	C245.449158,163.368454 242.738907,162.899368 242.634827,165.954651 
	C242.500717,169.891129 243.120316,173.866425 243.597855,177.802856 
	C243.749023,179.048798 244.935364,179.742050 246.188019,179.747940 
	C252.324417,179.776810 258.495392,180.119522 264.585815,179.579987 
	C268.664093,179.218704 271.126099,174.620224 270.756714,170.117981 
	C270.385010,165.587173 266.807434,165.944412 263.807190,165.414749 
	C262.996979,165.271729 262.151703,165.327484 260.431274,165.233871 
M164.165665,149.278839 
	C162.503738,157.924210 162.629318,158.073074 171.257629,157.630341 
	C172.252563,157.579269 173.250961,157.549576 174.240112,157.440689 
	C178.094635,157.016418 180.247513,155.265518 179.946289,150.965805 
	C179.679489,147.157440 179.810837,143.311035 179.945419,139.487732 
	C180.064011,136.119095 178.218613,133.778778 176.000931,131.755615 
	C173.687485,129.645065 170.613052,129.967545 167.914093,130.570206 
	C165.282654,131.157791 165.571899,133.900833 165.342606,135.978180 
	C164.886917,140.106125 164.578232,144.250275 164.165665,149.278839 
M140.601059,165.315018 
	C132.158600,165.625015 130.879654,166.742096 131.404266,173.291840 
	C131.739426,177.476227 134.172745,179.557648 138.175766,179.821335 
	C140.827652,179.996017 143.501205,179.833450 146.165039,179.836456 
	C157.290512,179.848969 157.685593,179.450836 157.788284,168.070938 
	C157.791290,167.738113 157.807907,167.405167 157.826462,167.072754 
	C157.987961,164.179047 156.753036,163.277863 153.853485,163.771896 
	C149.768875,164.467880 145.617691,164.772964 140.601059,165.315018 
M131.632797,234.550476 
	C132.117752,234.979385 132.563858,235.724457 133.093552,235.789536 
	C140.467560,236.695862 147.847076,237.569717 155.240677,238.293869 
	C156.720932,238.438858 157.763840,237.282715 157.743683,235.753448 
	C157.697952,232.284210 157.635880,228.801788 157.283417,225.355103 
	C157.077545,223.342117 155.733215,222.223251 153.488617,222.254257 
	C149.841934,222.304642 146.192032,222.100998 142.544846,222.138107 
	C133.448746,222.230667 131.200958,224.625961 131.632797,234.550476 
M164.377579,255.257782 
	C164.713684,258.555664 165.081635,261.850739 165.373703,265.152496 
	C165.543243,267.069183 164.733902,269.677094 167.196198,270.307983 
	C169.997559,271.025726 173.153580,271.606171 175.675873,269.224792 
	C177.768204,267.249359 179.409241,264.996826 179.459549,261.925293 
	C179.519379,258.273529 179.443039,254.607590 179.748138,250.974869 
	C180.143387,246.268372 178.215500,244.435669 173.495407,244.311447 
	C164.028717,244.062241 164.033707,243.880692 164.284744,252.872284 
	C164.298660,253.370270 164.304535,253.868484 164.377579,255.257782 
M236.586395,141.901718 
	C236.261398,139.278122 235.892151,136.658966 235.628235,134.029236 
	C235.473312,132.485474 235.297150,131.151688 233.502502,130.517822 
	C228.305969,128.682419 222.552094,132.029572 222.200073,137.566360 
	C221.863815,142.855026 222.104233,148.180923 222.109329,153.490433 
	C222.110916,155.154053 222.742874,156.289078 224.542633,156.716690 
	C228.560089,157.671143 232.568924,158.208160 236.610153,157.489319 
	C236.610153,152.384064 236.610153,147.607697 236.586395,141.901718 
M236.834824,250.736374 
	C236.740479,248.179413 237.627014,245.250381 233.707169,244.468170 
	C226.262039,242.982498 222.104507,246.163620 222.103241,253.524231 
	C222.102798,256.189850 222.019974,258.856354 222.064667,261.520935 
	C222.166428,267.586761 225.528976,270.666687 231.461395,270.613098 
	C234.403854,270.586517 235.367340,269.550232 235.733063,266.575226 
	C236.343826,261.607086 236.668518,256.646942 236.834824,250.736374 
M62.993980,254.368576 
	C65.224220,249.199203 67.451088,244.028381 69.686974,238.861450 
	C70.274277,237.504227 71.255104,236.064514 69.702583,234.818588 
	C68.172836,233.590942 66.567902,233.352142 64.729889,234.635803 
	C59.433434,238.334930 53.949135,241.767990 48.698177,245.528351 
	C45.116322,248.093399 45.363548,250.334869 49.295731,252.681671 
	C51.995895,254.293198 54.898117,255.567032 57.591999,257.187958 
	C60.440842,258.902100 61.856468,257.732178 62.993980,254.368576 
M350.381500,148.202667 
	C347.349518,146.573441 344.558594,144.431778 340.614044,143.324982 
	C337.604401,150.424911 334.712189,157.285355 331.782928,164.129929 
	C331.106567,165.710403 331.953186,166.583633 333.025269,167.515640 
	C334.595581,168.880798 335.829468,167.842422 337.047394,167.027634 
	C341.888824,163.788696 346.747864,160.572266 351.506561,157.214523 
	C356.424194,153.744629 356.278381,151.917343 350.381500,148.202667 
M346.633148,255.065842 
	C348.056824,254.214371 349.481232,253.364075 350.904083,252.511200 
	C355.555695,249.723007 355.639679,247.765717 351.035889,244.577286 
	C346.397919,241.365112 341.576111,238.415909 336.975159,235.153610 
	C334.549713,233.433838 332.536835,233.410904 330.170471,235.717758 
	C333.464508,243.191360 336.770721,250.692581 340.203888,258.481750 
	C342.529663,257.258453 344.275146,256.340363 346.633148,255.065842 
M47.900013,151.365341 
	C46.491081,154.207901 48.299725,155.713242 50.325127,157.068802 
	C54.889446,160.123596 59.527969,163.069916 64.041573,166.197098 
	C66.451462,167.866745 68.607544,167.779907 71.308922,165.671188 
	C68.043312,158.396240 64.745956,151.050568 61.188744,143.126007 
	C56.533165,145.906967 52.431995,148.356750 47.900013,151.365341 
M305.036865,210.538925 
	C302.948090,214.930374 298.491669,218.005768 300.097260,224.304596 
	C301.854340,231.197525 301.100616,231.424347 307.889404,228.809967 
	C310.805054,227.687149 314.109802,227.126572 316.147369,224.476456 
	C318.439545,221.495102 314.682373,219.362335 314.768250,216.626862 
	C314.917419,211.873672 311.890472,208.844299 309.127808,205.697861 
	C306.857605,206.549591 306.607483,208.632065 305.036865,210.538925 
M334.455688,217.003494 
	C333.969574,218.346207 332.901398,219.637558 334.430511,221.630615 
	C342.218933,220.097305 350.273315,218.615280 358.269928,216.868744 
	C360.427094,216.397598 361.314880,214.554245 359.597748,212.717224 
	C356.267548,209.154510 352.716949,205.797882 348.856903,201.957092 
	C343.831360,207.156479 339.347595,211.795364 334.455688,217.003494 
M102.174858,222.341049 
	C103.042305,221.472656 103.735611,220.508484 103.015495,219.259003 
	C100.076714,214.159958 97.011688,209.145264 93.323265,204.412292 
	C88.232552,209.828445 84.863205,220.330719 87.602425,224.371567 
	C90.473099,228.606293 95.713226,228.555252 100.109253,229.298294 
	C101.637283,227.013870 101.419449,224.926102 102.174858,222.341049 
M93.858009,196.518768 
	C95.224915,194.635345 96.660431,192.797363 97.944275,190.858932 
	C100.528732,186.956711 104.199501,183.466675 101.299492,177.905212 
	C100.299797,175.988068 101.059891,172.716354 97.645752,173.188477 
	C93.980553,173.695328 89.415291,173.512222 87.561638,177.417404 
	C84.683609,183.480774 87.539154,191.949265 93.858009,196.518768 
M45.218899,209.702240 
	C41.017250,213.970383 40.848755,216.493851 44.898586,217.311188 
	C52.285427,218.802017 59.769718,219.810013 67.151932,221.009460 
	C68.351685,218.247086 67.189987,216.554703 65.513306,215.009232 
	C63.443752,213.101593 61.375931,211.191727 59.329987,209.258865 
	C52.599808,202.900665 52.603725,202.896515 45.218899,209.702240 
M42.744465,189.492004 
	C45.640690,192.665421 48.750694,195.595978 52.688137,198.498672 
	C57.318588,194.113373 61.896946,189.843964 66.383751,185.480438 
	C67.479080,184.415207 68.110207,182.953842 67.308517,181.399689 
	C66.640549,180.104782 65.332909,180.287369 64.215309,180.526321 
	C57.901638,181.876266 51.599617,183.281174 45.298813,184.690552 
	C43.089142,185.184799 41.576771,186.217896 42.744465,189.492004 
M338.515808,188.010849 
	C339.338837,188.833496 340.158142,189.659912 340.985443,190.478241 
	C349.779877,199.176758 349.780212,199.176376 358.318817,189.748016 
	C361.030579,186.753616 360.637817,185.355942 356.596405,184.488907 
	C351.410675,183.376343 346.209656,182.241913 340.956940,181.578476 
	C338.723022,181.296341 335.570984,178.903885 334.200958,181.779190 
	C332.947235,184.410507 336.625366,185.613464 338.515808,188.010849 
M254.397659,60.081718 
	C256.108459,59.460468 258.305084,59.081203 256.785706,56.434433 
	C255.219452,53.706028 253.658325,50.953304 251.821487,48.408627 
	C250.440887,46.495979 247.938568,46.353188 246.469360,47.701084 
	C242.579102,51.270164 238.750717,55.122299 236.701248,60.063652 
	C235.305145,63.429707 237.053146,64.816238 240.729889,63.831154 
	C245.051834,62.673206 249.373199,61.513176 254.397659,60.081718 
M250.666061,354.428223 
	C253.495453,352.175293 254.726562,348.838806 256.434723,345.836975 
	C257.454834,344.044312 256.921173,342.486786 254.970657,341.874542 
	C249.218903,340.069031 243.418793,338.417542 237.725662,336.731873 
	C236.736404,339.067780 236.159393,340.896912 237.138794,342.273438 
	C240.010849,346.310028 243.114594,350.187714 246.252350,354.025635 
	C247.157516,355.132782 248.636368,355.015350 250.666061,354.428223 
M149.058929,60.564350 
	C154.031799,61.439117 158.680466,63.848019 164.088379,64.140312 
	C164.300568,62.807175 164.772278,61.781033 164.548080,60.940521 
	C162.989090,55.095890 158.854965,51.048630 154.351700,47.470570 
	C152.972504,46.374733 150.679489,46.872444 149.520676,48.662907 
	C147.497635,51.788689 145.002609,54.694016 144.167282,58.324501 
	C145.355621,59.884827 147.050995,59.677818 149.058929,60.564350 
M205.599182,51.011028 
	C210.745972,54.266388 214.578766,60.505924 222.723633,58.614265 
	C221.152725,53.438095 219.593658,48.748409 218.328613,43.980705 
	C217.432953,40.605053 215.436615,39.665199 212.400467,40.797485 
	C207.225815,42.727310 203.595825,47.706509 205.599182,51.011028 
M151.104248,354.569977 
	C157.443420,354.543945 165.440216,344.029419 163.678284,337.277100 
	C157.209427,338.936127 150.678085,340.298737 144.483505,343.510590 
	C145.946304,347.719910 148.035263,351.062164 151.104248,354.569977 
M180.172089,347.671661 
	C181.072937,351.212769 181.984604,354.751160 182.871613,358.295746 
	C183.757309,361.835114 186.214874,362.559814 188.903671,360.851318 
	C192.032684,358.863129 195.186340,356.674896 197.277420,353.506653 
	C194.939621,350.565308 187.859589,344.406525 185.535522,343.105286 
	C183.809570,342.138977 181.924942,341.822327 180.301666,342.807343 
	C178.683273,343.789398 179.602524,345.482422 180.172089,347.671661 
M88.086746,307.595978 
	C90.827972,307.202515 90.286072,305.318695 90.072838,303.447510 
	C89.531128,298.694061 89.089882,293.929016 88.627785,289.166748 
	C88.503601,287.887054 88.862160,286.335388 87.049370,285.978424 
	C85.570145,285.687134 84.438690,286.459778 83.740585,287.685028 
	C81.528435,291.567596 79.128616,295.374359 77.299149,299.434723 
	C75.627663,303.144440 77.515938,305.908661 81.509048,306.536041 
	C83.463974,306.843231 85.403191,307.250366 88.086746,307.595978 
M105.193314,312.388306 
	C104.363899,312.347473 103.512634,312.413727 102.708374,312.249603 
	C92.388062,310.143707 94.261383,311.920258 94.438538,320.341187 
	C94.518784,324.155701 97.724022,326.531860 101.151955,325.046753 
	C105.247025,323.272675 109.076378,320.876862 112.986229,318.688568 
	C114.245300,317.983856 114.887138,316.828003 114.534531,315.333588 
	C114.149117,313.700165 112.819817,313.567474 111.446526,313.394653 
	C109.643417,313.167755 107.859268,312.790192 105.193314,312.388306 
M221.422012,346.437653 
	C221.899719,342.728577 219.938965,340.793701 216.972122,342.675262 
	C212.186188,345.710449 207.914520,349.556610 203.196335,353.239197 
	C206.163696,356.523926 208.829086,358.727020 211.804535,360.509644 
	C215.170380,362.526154 217.519562,361.476837 218.546402,357.737793 
	C219.510147,354.228455 220.315994,350.675781 221.422012,346.437653 
M312.332947,294.542114 
	C312.462402,298.732239 310.509857,302.891266 311.861450,307.095123 
	C324.676361,307.490082 327.489990,303.135010 320.755035,292.762482 
	C320.306763,292.072083 320.064911,291.236816 319.568848,290.590332 
	C318.180206,288.780640 318.173309,284.917358 314.980927,285.768799 
	C312.392090,286.459229 312.458618,289.685974 312.364227,292.180969 
	C312.345490,292.676239 312.359070,293.172729 312.332947,294.542114 
M299.398956,323.866699 
	C305.770355,324.438446 305.721069,324.212524 307.139862,316.552917 
	C307.957977,312.136475 306.135254,311.119202 302.424896,311.578705 
	C298.169189,312.105835 293.935516,312.808777 289.683899,313.371979 
	C288.322205,313.552368 286.937531,313.651398 286.596039,315.281799 
	C286.265320,316.860748 287.377045,317.772827 288.554138,318.399933 
	C291.911896,320.188873 295.326874,321.870514 299.398956,323.866699 
M131.843552,328.654968 
	C130.460892,326.950226 130.025131,324.332184 127.122124,323.694336 
	C123.039093,329.426025 124.903770,335.893982 124.059471,341.757721 
	C129.382690,345.215027 133.946152,344.165771 138.840622,340.769989 
	C136.510849,336.724548 134.364624,332.997864 131.843552,328.654968 
M192.790695,44.621525 
	C191.864243,43.926121 190.940445,43.227158 190.010910,42.535912 
	C185.725067,39.348824 184.104584,39.808098 182.636063,44.756355 
	C181.697144,47.920151 180.891907,51.124691 180.077576,54.323906 
	C179.723709,55.714069 178.775024,57.339924 180.360474,58.423279 
	C181.633575,59.293190 183.404770,59.244251 184.658218,58.466106 
	C189.227036,55.629742 193.359268,52.238174 197.334534,48.189232 
	C195.655518,46.849483 194.504120,45.930729 192.790695,44.621525 
M337.984253,137.821899 
	C342.317932,135.855560 344.350800,129.218567 341.781586,125.757423 
	C340.966217,124.658951 340.009674,124.329910 338.814545,124.432762 
	C334.546844,124.800095 330.275940,125.152580 326.022369,125.648788 
	C324.756042,125.796509 323.180511,126.064667 322.814148,127.571350 
	C322.360596,129.436478 324.004181,130.117676 325.263092,130.835251 
	C329.279694,133.124832 333.333771,135.348618 337.984253,137.821899 
M270.747040,327.181610 
	C269.311127,329.610626 267.863434,332.032745 266.441559,334.469940 
	C262.613129,341.032166 263.618042,342.941620 271.257233,343.650818 
	C275.366760,344.032318 278.122223,341.399475 277.386566,337.382782 
	C276.843323,334.416382 276.605499,331.471649 276.578156,328.481323 
	C276.564636,326.999817 276.784851,325.290131 275.119293,324.556366 
	C273.140442,323.684570 272.069183,325.100494 270.747040,327.181610 
M125.582085,76.494766 
	C126.758072,78.286232 128.246552,77.958847 129.198883,76.557022 
	C132.593536,71.560150 135.771347,66.419701 138.285309,61.090725 
	C136.489059,59.085564 134.331192,59.149609 132.486343,58.620773 
	C126.996620,57.047119 124.583900,59.132004 124.329727,64.923370 
	C124.167671,68.615997 125.106300,72.139076 125.582085,76.494766 
M76.935669,130.466064 
	C79.728752,128.053253 78.851448,126.386009 75.674965,125.883377 
	C71.778114,125.266739 67.800240,125.179901 63.867779,124.765457 
	C60.157120,124.374390 57.602272,126.751999 58.749752,130.205887 
	C59.652672,132.923660 60.522823,135.869537 62.903629,138.157501 
	C67.832855,136.494614 71.870781,133.278442 76.935669,130.466064 
M342.607361,270.933472 
	C341.801544,269.107391 340.982849,267.286835 340.193420,265.453705 
	C339.374237,263.551361 338.128662,262.949341 336.246277,264.058807 
	C332.518524,266.255920 328.753998,268.392761 325.068756,270.658722 
	C323.912567,271.369629 323.073944,272.504425 323.412628,274.023926 
	C323.737244,275.480438 324.997009,275.545959 326.163513,275.659882 
	C329.639648,275.999268 333.139557,276.174866 336.588531,276.692139 
	C340.615021,277.295990 342.602020,275.722839 342.607361,270.933472 
M307.450104,279.862518 
	C307.231201,281.460449 307.912292,282.486755 309.513580,282.614075 
	C316.302063,283.153748 317.715820,281.871063 318.388977,275.142670 
	C318.591797,273.115295 318.441986,271.124054 316.322937,270.742126 
	C313.686310,270.266968 310.983063,268.038788 308.304138,269.963928 
	C306.485138,271.271118 307.014099,273.190826 308.444763,274.708313 
	C309.339203,275.656982 310.507111,275.507294 311.693512,275.347595 
	C313.166077,275.149353 314.546143,275.526459 314.307892,277.339844 
	C314.094025,278.968140 312.845825,279.444916 311.325562,278.818176 
	C310.018219,278.279236 308.790771,277.997559 307.450104,279.862518 
z"/>
<path fill="#000000" opacity="1.000000" stroke="none" 
	d="
M312.730042,94.528160 
	C310.412445,100.767380 312.848297,106.723755 312.926697,112.751266 
	C312.947266,114.331772 314.114594,115.882927 313.085663,117.545174 
	C311.203003,117.978432 310.777191,116.892464 310.614685,115.377861 
	C309.996002,109.612137 308.966156,103.860085 308.820648,98.084511 
	C308.719757,94.078026 306.803101,92.620277 303.450409,92.460670 
	C297.535583,92.179085 291.844788,89.333603 285.768066,90.959114 
	C284.856995,91.202827 283.627686,90.324081 283.886383,89.873367 
	C286.071564,86.066231 281.795654,82.014778 284.368835,77.724922 
	C287.844391,80.824356 290.590546,78.602242 293.458405,77.085976 
	C298.780823,74.271988 303.926208,70.079445 310.903656,75.292740 
	C307.854340,79.107933 310.071045,83.436691 310.385895,87.786293 
	C310.540497,89.922668 311.563660,91.448166 313.673492,91.479408 
	C317.864777,91.541451 321.718628,93.865173 326.345032,90.425003 
	C331.516327,86.579720 336.281036,90.236023 336.074707,96.651619 
	C335.987183,99.373032 335.152527,100.772644 332.267639,100.402580 
	C329.549835,100.053940 327.793793,101.377647 326.770477,103.756653 
	C324.836456,108.252960 319.978119,111.826767 322.439270,117.755554 
	C322.761292,118.531342 322.179962,119.719139 320.673584,120.285263 
	C317.660431,118.787933 316.639252,116.503922 318.397949,113.203606 
	C319.885010,110.412987 321.538330,107.707146 322.939972,104.875626 
	C325.809509,99.078697 326.703278,95.223640 317.582520,94.463142 
	C316.095123,94.339127 314.592377,94.399277 312.730042,94.528160 
M300.117981,76.760559 
	C296.284790,78.716988 292.442200,80.655273 288.623993,82.640503 
	C287.424561,83.264122 286.332184,84.078926 286.325928,85.619400 
	C286.322266,86.525986 286.815430,87.268982 287.732971,87.406326 
	C294.164429,88.368988 300.497864,90.301437 307.053284,89.842407 
	C308.616547,80.265022 307.408203,77.797829 300.117981,76.760559 
z"/>
<path fill="#000000" opacity="1.000000" stroke="none" 
	d="
M108.679291,78.187309 
	C111.379417,79.247383 113.698509,81.427139 116.035606,78.429924 
	C117.873909,79.981659 118.715553,81.694427 117.474586,83.431496 
	C115.881813,85.661026 114.184944,83.636238 112.667290,82.969757 
	C109.772125,81.698357 106.985374,80.181915 104.103088,78.878975 
	C98.187630,76.204872 94.787468,78.242729 94.391548,84.687935 
	C94.280159,86.501274 94.374542,88.327263 94.374542,90.443367 
	C102.273094,91.605042 109.629593,87.070488 117.526802,88.117706 
	C116.878601,91.251999 114.935989,90.683250 113.386726,90.921410 
	C108.138008,91.728256 102.900002,92.609398 97.642075,93.349800 
	C94.951149,93.728729 93.537407,94.985970 93.217545,97.808388 
	C92.456360,104.524971 91.483559,111.217567 90.417892,119.267082 
	C87.680656,115.712646 88.653076,112.742966 88.853256,110.072037 
	C89.138115,106.271225 89.758018,102.491707 90.329834,98.717506 
	C90.727814,96.090660 89.807579,94.846756 87.085732,95.287910 
	C85.118942,95.606697 83.153137,95.951385 81.208214,96.381050 
	C77.275330,97.249870 75.906784,100.098701 77.772575,103.802605 
	C79.418991,107.071014 81.424034,110.162491 83.000725,113.461151 
	C84.300644,116.180779 83.596336,117.944008 79.616104,117.651314 
	C81.381348,112.546509 77.537605,109.431190 75.626472,105.668999 
	C71.675415,97.891090 73.263168,94.585922 81.735847,93.613121 
	C83.877953,93.367172 85.996979,92.920982 88.127197,92.570381 
	C89.536316,92.338463 91.157402,91.563759 91.170425,90.350960 
	C91.219658,85.765388 94.833694,81.055122 90.826324,76.835632 
	C97.290413,69.810516 102.708420,75.345421 108.679291,78.187309 
z"/>
<path fill="#000000" opacity="1.000000" stroke="none" 
	d="
M308.991577,329.015808 
	C314.635040,328.559692 311.098907,332.622040 312.431152,335.038727 
	C307.439911,334.824768 308.660614,331.865967 308.922821,329.248413 
	C309.028748,328.980560 309.002350,329.002441 308.991577,329.015808 
z"/>
</svg>