<svg version="1.1" id="Layer_1" xmlns="http://www.w3.org/2000/svg" xmlns:xlink="http://www.w3.org/1999/xlink" x="0px" y="0px"
	 width="100%" viewBox="0 0 280 280" enable-background="new 0 0 280 280" xml:space="preserve">
<path fill="#000000" opacity="1.000000" stroke="none" 
	d="
M280.706024,157.781708 
	C281.000000,197.762375 280.954254,237.524918 281.086426,277.286865 
	C281.097046,280.482117 280.270905,281.083466 277.226013,281.074768 
	C237.796692,280.961884 198.366959,281.000000 158.468658,281.000000 
	C156.686951,277.697266 159.523849,277.509827 161.325287,276.865234 
	C163.980377,275.915192 166.680649,275.165894 168.914551,272.715546 
	C175.234253,270.248688 179.873978,266.123749 184.023026,261.385742 
	C185.346619,259.874298 187.028870,258.859833 188.744415,257.318054 
	C198.164291,246.975006 208.330048,237.863846 217.776154,228.040207 
	C225.266495,220.250504 233.340942,213.040176 240.780777,204.714157 
	C243.393860,202.330750 245.847870,200.279861 248.038025,197.477356 
	C251.685226,194.706573 254.071899,191.087860 257.708862,188.317505 
	C259.397705,185.678436 261.645203,184.030457 263.826721,181.833435 
	C269.661469,175.377884 274.517822,168.727280 277.097931,160.640823 
	C277.595367,159.081863 278.199768,157.390747 280.706024,157.781708 
z"/>
<path fill="#000000" opacity="1.000000" stroke="none" 
	d="
M1.300412,124.218315 
	C1.000000,84.237625 1.045718,44.475094 0.913568,4.713158 
	C0.902949,1.517918 1.729054,0.916516 4.773983,0.925234 
	C44.203297,1.038115 83.633041,1.000000 123.531342,1.000000 
	C124.588860,1.648649 124.551270,2.356368 123.961502,3.381620 
	C110.433144,7.885959 100.746284,17.114491 91.499443,26.927021 
	C90.007988,28.509726 88.312256,29.809059 86.436981,31.445187 
	C83.989075,34.996635 80.505791,37.103294 77.955193,40.556557 
	C73.544212,44.266506 69.817360,48.183472 65.893250,52.384216 
	C61.688549,55.963680 58.593098,60.208836 54.273163,63.664051 
	C49.950146,68.486649 45.199059,72.424728 41.047146,77.423340 
	C36.193798,81.852943 31.915926,86.375305 27.285511,91.031860 
	C22.428595,95.726082 18.163271,100.520607 13.260481,105.181107 
	C10.547413,111.042847 6.113549,115.637489 4.723629,121.815903 
	C4.401371,123.248390 3.534331,124.631737 1.300412,124.218315 
z"/>
<path fill="#000000" opacity="1.000000" stroke="none" 
	d="
M124.218384,280.691956 
	C84.237617,281.000000 44.475090,280.954285 4.713151,281.086426 
	C1.517897,281.097015 0.916518,280.270905 0.925235,277.226013 
	C1.038112,237.796692 1.000000,198.366959 1.000000,158.468658 
	C3.287228,156.641266 4.155133,158.481476 4.594637,159.962433 
	C8.408859,172.814880 17.901550,181.479065 27.184015,190.732849 
	C31.607687,195.373993 35.812172,199.735748 40.570984,204.039215 
	C44.739864,209.121094 49.520317,213.129532 53.973045,217.934967 
	C70.585136,234.144806 86.595634,250.467804 102.971207,266.423462 
	C106.137794,269.508850 110.121643,271.187927 113.840088,273.989136 
	C116.160896,275.717987 118.677414,275.991302 120.945496,276.897125 
	C122.582787,277.551025 124.530663,277.966187 124.218384,280.691956 
z"/>
<path fill="#000000" opacity="1.000000" stroke="none" 
	d="
M157.781677,1.294479 
	C197.762375,1.000000 237.524918,1.045718 277.286865,0.913567 
	C280.482117,0.902948 281.083466,1.729069 281.074738,4.773983 
	C280.961853,44.203297 281.000000,83.633041 281.000000,123.531342 
	C278.135773,125.229416 277.625031,122.884628 277.013916,121.159821 
	C276.078033,118.518211 275.265564,115.846130 273.453369,113.209946 
	C269.213531,104.232704 261.822449,98.352325 255.355804,91.760193 
	C235.835068,71.860573 215.997757,52.273720 196.129547,32.226910 
	C189.910522,26.446804 184.309402,20.525795 178.077545,14.744913 
	C172.503632,10.897766 167.425232,6.890469 161.093246,5.052373 
	C159.402908,4.561685 157.439453,4.060643 157.781677,1.294479 
z"/>
<path fill="#27A4D0" opacity="1.000000" stroke="none" 
	d="
M27.309799,192.049225 
	C22.087893,190.406860 20.284075,185.356430 16.347486,182.523773 
	C11.377951,178.947784 9.474001,172.736755 5.644835,168.098755 
	C3.100833,165.017395 4.365734,160.487381 1.342687,157.717621 
	C1.000000,146.979111 1.000000,135.958206 1.000000,124.468658 
	C1.976736,125.054214 2.701341,123.968781 2.731717,123.447205 
	C3.121438,116.755394 7.271471,111.897438 10.685806,106.663948 
	C11.100773,106.027885 11.079171,105.107002 11.572279,104.142334 
	C13.837445,104.276436 14.560590,105.843300 15.070539,107.393387 
	C16.512915,111.777740 19.464619,114.647598 23.990948,116.489815 
	C28.422379,118.188690 32.688637,118.841492 37.020943,119.054695 
	C39.231552,119.163483 41.234634,119.913429 43.659485,120.731155 
	C46.867157,122.332771 48.539112,124.836182 50.124157,127.936859 
	C51.316597,134.197128 51.940220,140.006226 47.736725,145.506775 
	C44.359531,150.427612 40.069229,154.290359 38.330540,160.220139 
	C36.619804,165.990036 34.844280,171.391266 37.018333,177.465424 
	C37.282906,178.590607 37.251087,179.351334 36.993553,180.474792 
	C33.509674,184.310272 32.383129,189.635162 27.309799,192.049225 
z"/>
<path fill="#BCE1D9" opacity="1.000000" stroke="none" 
	d="
M157.531433,1.000000 
	C157.422806,3.280170 159.092468,2.797291 160.365631,3.040888 
	C167.636200,4.431987 173.180969,9.049319 179.020935,13.512600 
	C179.515381,16.743504 178.324051,19.218271 177.038223,22.044407 
	C175.045105,24.451216 173.624802,26.998486 170.194489,27.561726 
	C162.644012,21.595106 153.959961,18.851187 145.016327,15.786983 
	C142.783813,12.525821 140.719452,9.609224 138.110565,7.074636 
	C136.619614,5.626142 134.933670,4.101541 135.772552,1.297064 
	C143.020950,1.000000 150.041901,1.000000 157.531433,1.000000 
z"/>
<path fill="#0193C8" opacity="1.000000" stroke="none" 
	d="
M281.000000,157.531342 
	C278.890961,157.370010 279.266937,158.964462 278.974182,160.140564 
	C276.999573,168.074142 272.887939,174.765656 267.068115,180.464783 
	C266.517242,181.004227 266.260925,181.844406 265.592529,182.729584 
	C261.344604,180.927414 260.256134,177.392853 260.288879,172.925690 
	C262.740356,168.757874 265.801239,165.527100 267.681580,161.375046 
	C270.958618,154.138931 272.609650,146.739334 272.059814,138.801239 
	C271.867126,136.019135 271.812042,133.181870 272.773132,130.034790 
	C274.652100,126.916069 276.883118,125.326050 280.642059,126.741463 
	C281.000000,137.020889 281.000000,147.041794 281.000000,157.531342 
z"/>
<path fill="#AFDBD1" opacity="1.000000" stroke="none" 
	d="
M281.000000,126.625000 
	C278.239685,126.114769 276.553070,128.418854 274.106598,129.474487 
	C272.267822,132.274445 269.923706,133.353470 266.584656,133.193268 
	C264.391479,132.535645 263.628113,131.054428 263.224182,129.407181 
	C261.374512,121.864342 256.952637,115.946732 251.554688,110.611427 
	C250.141632,109.214783 248.712723,107.783974 248.377777,105.295593 
	C249.485672,102.383011 251.624237,102.928780 253.439911,103.479797 
	C260.321320,105.568123 267.031952,108.116959 273.694763,111.759773 
	C278.037476,114.020721 277.873627,118.240555 278.895569,121.807106 
	C279.216583,122.927429 279.278107,124.004112 280.686096,124.326279 
	C281.000000,124.750000 281.000000,125.500000 281.000000,126.625000 
z"/>
<path fill="#74BD70" opacity="1.000000" stroke="none" 
	d="
M170.355469,273.482635 
	C168.166611,277.730865 164.065140,277.913605 160.433090,278.920563 
	C159.348724,279.221191 158.149551,279.051788 157.768005,280.639832 
	C155.629440,281.000000 153.258896,281.000000 150.444168,281.000000 
	C146.538025,278.492676 143.374756,275.653748 140.582047,272.416107 
	C139.282364,270.909363 138.143341,269.303101 138.374298,266.781250 
	C139.045578,265.390076 139.988922,264.987854 141.469650,264.794861 
	C146.527893,266.181152 150.901932,265.116058 155.218857,263.298523 
	C157.171555,262.476349 159.117065,261.576447 161.661545,261.413086 
	C164.923187,263.181030 166.971695,265.759796 169.126862,268.202820 
	C170.328445,269.564911 171.340302,271.110992 170.355469,273.482635 
z"/>
<path fill="#6CBA69" opacity="1.000000" stroke="none" 
	d="
M138.554626,266.344360 
	C140.472214,271.059357 144.368042,273.603668 147.416473,276.846985 
	C148.408630,277.902527 150.025360,278.463196 149.985016,280.643799 
	C141.645767,281.000000 133.291534,281.000000 124.468651,281.000000 
	C124.052979,277.110809 120.521851,279.419525 118.857475,278.292358 
	C117.330353,277.258179 114.863060,277.246368 113.083694,275.380188 
	C113.435616,270.819519 117.330811,271.247803 120.324738,269.768555 
	C125.020836,267.686005 129.698700,266.968689 134.644516,265.720337 
	C136.145767,265.498199 137.221756,265.558716 138.554626,266.344360 
z"/>
<path fill="#B5DDD2" opacity="1.000000" stroke="none" 
	d="
M135.539368,1.000000 
	C136.693054,4.514009 139.897507,6.029281 141.981339,8.423765 
	C143.477249,10.142679 145.313065,11.582387 144.992477,14.584242 
	C143.372787,17.181318 140.924667,16.850708 138.662369,16.932215 
	C135.675034,17.039843 132.745026,17.263641 129.783463,19.138161 
	C127.621063,19.968878 126.138512,19.265499 124.447136,17.875385 
	C122.877319,15.972931 122.207382,14.101968 121.614243,11.730639 
	C120.887566,8.641992 120.623619,6.029561 122.920227,3.449580 
	C123.721680,2.594311 124.173378,2.011995 124.312538,1.214840 
	C127.692909,1.000000 131.385818,1.000000 135.539368,1.000000 
z"/>
<path fill="#0092C8" opacity="1.000000" stroke="none" 
	d="
M242.229004,204.564423 
	C241.262589,209.229538 237.298553,211.014938 234.622681,213.616333 
	C224.780472,223.184601 215.404968,233.218994 205.350937,242.594193 
	C200.243378,247.356857 195.014557,252.249847 190.329529,258.001404 
	C187.385056,258.505310 184.762283,259.397125 181.766220,258.089294 
	C178.794632,254.973923 181.221558,253.011337 182.935516,251.188232 
	C188.589218,245.174530 194.569839,239.480392 200.690475,233.421783 
	C211.921341,222.238495 222.770554,211.181000 234.141479,200.113449 
	C238.301361,199.094116 241.181244,199.975891 242.229004,204.564423 
z"/>
<path fill="#76BF7C" opacity="1.000000" stroke="none" 
	d="
M180.663788,256.616150 
	C183.741974,257.401703 186.648758,256.408081 189.656906,257.968445 
	C186.069778,262.079010 181.932907,265.781464 178.237762,269.980743 
	C176.557602,271.890137 173.551682,272.632904 170.758820,273.892883 
	C169.479004,268.780792 163.917633,267.134766 162.055267,262.374176 
	C161.950287,261.462585 162.021790,260.904846 162.434967,259.996887 
	C168.083191,256.040009 173.990417,255.042572 180.663788,256.616150 
z"/>
<path fill="#9DD0B0" opacity="1.000000" stroke="none" 
	d="
M259.040436,188.683350 
	C255.451859,191.444489 253.776855,195.911346 249.456787,198.021973 
	C245.662125,198.909271 244.309555,195.935822 242.319809,194.242783 
	C240.724289,192.885193 239.011978,191.603302 237.645630,189.492157 
	C237.200058,184.409729 240.980270,182.343704 244.060425,179.383575 
	C244.986069,178.718704 245.680603,178.424240 246.777008,178.122696 
	C253.019226,179.247955 256.065125,183.702133 259.040436,188.683350 
z"/>
<path fill="#94CDAB" opacity="1.000000" stroke="none" 
	d="
M237.584106,188.706573 
	C242.418655,190.689789 244.801285,195.007889 248.806488,197.891449 
	C247.751083,200.988373 245.807877,203.365326 242.476166,204.846268 
	C240.578323,202.123962 238.207626,200.615707 234.480255,200.753937 
	C232.067535,201.790237 229.993317,202.084976 227.496033,200.894897 
	C225.410599,198.717880 226.571472,197.036835 227.761597,195.455826 
	C229.434479,193.233490 231.553604,191.435776 233.952026,189.370453 
	C235.167130,188.494446 236.152496,188.187744 237.584106,188.706573 
z"/>
<path fill="#9ED1B7" opacity="1.000000" stroke="none" 
	d="
M259.422607,188.893265 
	C254.742157,186.390198 252.333298,181.484177 247.380493,179.054352 
	C247.760117,173.626770 252.044785,171.566284 256.454742,169.212677 
	C258.882965,169.295135 260.200470,170.355957 260.792267,172.700089 
	C262.224030,176.133652 263.671722,179.177841 265.218323,182.568115 
	C264.048157,185.425110 260.168610,185.433853 259.422607,188.893265 
z"/>
<path fill="#26A3D0" opacity="1.000000" stroke="none" 
	d="
M122.854340,3.104351 
	C123.238647,5.814347 123.207314,8.452070 123.150208,11.530811 
	C122.992905,12.283956 122.865158,12.674545 122.589981,12.793358 
	C112.001770,17.365017 105.099251,26.410711 96.559357,34.088501 
	C92.089706,35.013855 88.152664,34.980541 84.887665,31.396681 
	C90.954132,24.325472 97.235115,17.678835 104.089920,12.123815 
	C109.113327,8.052933 114.936867,3.190261 122.854340,3.104351 
z"/>
<path fill="#90CA93" opacity="1.000000" stroke="none" 
	d="
M23.260971,117.790741 
	C16.199495,116.123451 13.960566,110.572891 12.053535,104.292847 
	C16.365343,99.379601 20.846024,94.792641 25.667271,90.186050 
	C30.487530,93.018517 34.277348,96.535721 36.795982,101.680344 
	C36.612434,104.462059 34.907684,105.912498 33.049995,107.669693 
	C28.718565,110.191734 26.604568,114.347855 23.260971,117.790741 
z"/>
<path fill="#97CD9C" opacity="1.000000" stroke="none" 
	d="
M36.314449,102.141655 
	C33.262909,97.763519 28.587303,95.273399 26.066833,90.495087 
	C30.298910,85.721321 34.134583,80.810150 39.575981,77.086411 
	C46.055351,77.575905 48.533577,82.302330 51.076500,87.355507 
	C50.360641,91.709518 46.883530,93.627129 44.317600,96.679176 
	C41.559658,98.692833 40.165401,101.977020 36.314449,102.141655 
z"/>
<path fill="#9CD0A5" opacity="1.000000" stroke="none" 
	d="
M50.321960,88.154953 
	C48.176456,83.211693 43.795849,80.720459 40.192581,77.113602 
	C42.353699,71.874237 47.107452,68.894989 50.941437,65.089508 
	C51.538349,64.497032 51.936749,63.956074 52.577442,63.106712 
	C59.147354,63.612282 61.555561,68.773483 64.777237,73.422653 
	C63.595963,79.450218 58.101337,81.774246 54.918015,86.381104 
	C53.507832,87.640724 52.256359,88.411659 50.321960,88.154953 
z"/>
<path fill="#A1D2AC" opacity="1.000000" stroke="none" 
	d="
M64.266907,74.202431 
	C60.908020,69.996948 57.201466,66.632881 53.191910,63.112236 
	C56.823124,59.473934 59.836163,55.048283 64.535889,51.980625 
	C66.688850,50.660431 68.107506,51.702995 69.216850,52.931690 
	C71.512177,55.473949 74.766174,57.230507 75.889183,61.184956 
	C75.998878,63.160233 75.246391,64.464767 74.252945,66.066254 
	C71.654457,69.301666 69.161995,72.146255 65.601814,74.347939 
	C65.020622,74.448837 64.781517,74.440605 64.266907,74.202431 
z"/>
<path fill="#A6D4B3" opacity="1.000000" stroke="none" 
	d="
M75.356369,62.195324 
	C72.916458,57.752247 68.833748,55.308033 65.232750,52.019646 
	C67.585541,46.962978 71.973663,43.562054 76.541794,39.976357 
	C83.013344,40.630489 85.584297,45.205650 87.939125,50.398743 
	C87.517609,53.150940 85.990341,54.808903 84.054260,56.620979 
	C80.798706,58.267586 79.317734,61.888237 75.356369,62.195324 
z"/>
<path fill="#A8D6BB" opacity="1.000000" stroke="none" 
	d="
M87.330093,51.119423 
	C85.163971,46.215801 80.797646,43.715446 77.192207,40.112320 
	C77.882660,35.810936 82.547035,34.782513 84.576172,31.107283 
	C88.394485,32.980080 92.339371,32.583206 96.563370,32.975246 
	C98.877098,31.614595 100.508125,32.230179 102.251915,33.930695 
	C102.998634,39.085449 98.271072,40.676373 96.209991,44.337738 
	C92.994659,46.577114 91.823433,50.796730 87.330093,51.119423 
z"/>
<path fill="#0193C8" opacity="1.000000" stroke="none" 
	d="
M121.233284,270.822052 
	C118.493019,272.255432 115.909203,273.365448 113.120819,274.765381 
	C103.316200,270.864380 96.846855,262.998657 89.868286,255.663986 
	C85.216156,250.774445 80.073189,246.355545 75.242874,241.630936 
	C69.885452,236.390778 64.292725,231.327866 59.501972,225.602463 
	C57.552402,223.272507 54.598320,222.281784 52.994930,219.311310 
	C52.505001,212.146118 57.495167,208.593353 62.056999,204.359756 
	C63.018375,203.739655 63.735790,203.545654 64.865234,203.672363 
	C73.991020,214.350632 81.706497,225.783234 91.411263,235.589600 
	C94.233643,238.441544 95.974609,242.095901 98.028770,245.497147 
	C102.557281,252.995377 108.339684,259.252655 115.688332,264.087921 
	C118.107666,265.679810 121.065788,266.968018 121.233284,270.822052 
z"/>
<path fill="#6AB967" opacity="1.000000" stroke="none" 
	d="
M62.851414,204.611420 
	C59.103168,209.018356 55.154415,212.982712 52.975780,218.672089 
	C48.602837,214.539398 43.589516,210.828430 39.948227,205.387146 
	C39.397564,204.145203 38.966938,203.150726 39.231518,202.174500 
	C40.921852,195.937637 39.954632,190.020660 37.318901,183.906677 
	C39.466991,181.002075 41.380280,182.682419 42.836624,184.088364 
	C49.634392,190.650955 56.598858,197.057159 62.851414,204.611420 
z"/>
<path fill="#0494C5" opacity="1.000000" stroke="none" 
	d="
M37.893475,182.731079 
	C42.827953,189.700714 43.411339,196.793655 40.024696,204.670685 
	C34.744602,201.884201 30.834953,197.455414 27.083755,192.407059 
	C30.252243,188.818771 31.142637,183.707291 35.650913,181.013580 
	C37.260899,180.577469 37.634953,181.425705 37.893475,182.731079 
z"/>
<path fill="#BEE1DB" opacity="1.000000" stroke="none" 
	d="
M274.025513,111.515755 
	C269.063660,112.538757 264.934448,109.866150 260.756317,107.984657 
	C257.091339,106.334244 253.440536,105.117081 249.262573,104.763832 
	C246.994858,105.875931 245.846939,104.404678 244.289124,103.090881 
	C224.657608,83.736397 205.510666,64.406914 186.265533,45.175884 
	C184.296570,43.208355 181.927460,41.486240 181.292175,38.131485 
	C182.132217,34.669197 185.097122,33.871178 187.600250,32.024593 
	C190.595352,30.838947 193.277481,29.989967 196.557129,30.640503 
	C202.120987,35.843201 207.306732,40.990879 212.491028,46.139984 
	C220.158447,53.755363 227.832031,61.364532 235.489197,68.990211 
	C240.786774,74.265968 246.124680,79.503448 251.327789,84.871231 
	C256.455536,90.161247 261.126373,95.939987 266.596069,100.835793 
	C269.951111,103.838867 272.088104,107.313774 274.025513,111.515755 
z"/>
<path fill="#29A4D1" opacity="1.000000" stroke="none" 
	d="
M196.809662,30.401081 
	C194.590347,32.295105 191.761444,32.377335 188.783112,33.174355 
	C187.283768,33.515106 185.954163,34.056713 185.055740,33.202526 
	C181.535385,29.855453 176.914291,27.439583 175.607056,21.887318 
	C176.652542,19.111298 177.568008,16.713169 178.762405,14.098335 
	C185.684372,18.461298 190.381119,25.157141 196.809662,30.401081 
z"/>
<path fill="#B7DA85" opacity="1.000000" stroke="none" 
	d="
M35.841530,102.258080 
	C38.133389,100.078941 40.272598,98.183495 42.699814,96.125977 
	C43.148357,96.004974 43.360310,95.993980 43.462135,96.094513 
	C53.451664,105.957466 64.733391,114.492332 73.764633,125.807205 
	C74.042648,128.083008 72.836082,129.260452 71.456741,130.188812 
	C68.284904,132.323563 65.904846,135.348785 62.521896,137.768402 
	C56.024502,137.202072 52.831467,132.484222 48.827644,128.270554 
	C47.058483,126.387535 45.651928,124.610916 44.062263,122.582008 
	C40.477295,119.162567 37.546638,115.548355 34.303940,112.229164 
	C33.033066,110.928299 31.651228,109.643097 31.795731,107.266479 
	C33.194080,105.472450 34.441479,104.007111 35.841530,102.258080 
z"/>
<path fill="#94C94D" opacity="1.000000" stroke="none" 
	d="
M38.209393,183.092682 
	C37.384071,182.489090 36.912685,181.894485 36.215637,181.119171 
	C35.904335,180.242676 35.818695,179.546906 35.719894,178.498596 
	C36.505676,175.067978 38.117985,172.611465 41.401989,171.041748 
	C45.859440,170.441376 48.645798,172.787918 51.334759,175.360168 
	C58.537140,182.249985 65.116585,189.783173 73.036453,196.466003 
	C73.018440,201.535889 69.465828,202.895386 65.370560,204.027390 
	C64.479256,204.215347 63.965466,204.461243 63.196648,204.840012 
	C60.523331,204.783463 59.382633,202.771271 57.829155,201.363922 
	C51.269981,195.421661 45.905514,188.218872 38.209393,183.092682 
z"/>
<path fill="#AFD67C" opacity="1.000000" stroke="none" 
	d="
M48.554863,128.610657 
	C52.557278,128.624191 54.646240,132.152283 57.674095,134.234726 
	C59.001560,135.147705 59.902721,136.674500 62.021011,137.053131 
	C64.199165,139.223694 65.126305,141.858810 66.670319,144.524368 
	C66.864670,146.810760 65.500587,147.979523 64.244133,149.615417 
	C62.111622,151.799973 60.364132,153.908142 57.322540,154.873047 
	C51.863205,154.126038 49.156086,150.182419 46.011517,146.332703 
	C49.138126,140.709457 49.967953,135.056915 48.554863,128.610657 
z"/>
<path fill="#AAD371" opacity="1.000000" stroke="none" 
	d="
M45.628086,146.139313 
	C50.521252,147.046677 52.079250,152.241531 56.694489,153.857025 
	C57.145874,154.185913 57.290962,154.370575 57.441635,154.908295 
	C56.255283,158.727463 52.643597,160.284271 50.802437,163.708130 
	C49.528656,165.175415 48.254551,165.980621 46.315342,166.358673 
	C41.733807,166.386841 39.224514,163.774994 36.890968,160.293671 
	C37.766457,154.226135 41.593033,150.289413 45.628086,146.139313 
z"/>
<path fill="#ADD680" opacity="1.000000" stroke="none" 
	d="
M31.613525,107.011002 
	C35.628899,112.056320 41.403797,115.472351 43.871243,121.957649 
	C39.265007,120.121643 34.104851,121.231323 29.341658,119.936928 
	C27.445498,119.421654 25.559771,118.867989 23.333759,118.167236 
	C23.819685,112.892174 27.211756,109.731598 31.613525,107.011002 
z"/>
<path fill="#A4D26A" opacity="1.000000" stroke="none" 
	d="
M36.511349,160.213959 
	C40.493011,160.089493 41.470139,164.942474 45.656021,165.002014 
	C47.463680,168.531174 45.469898,170.264786 42.314217,171.779556 
	C39.326008,173.173477 38.851025,176.482162 36.025864,177.981934 
	C32.956535,172.167343 34.461174,166.327469 36.511349,160.213959 
z"/>
<path fill="#29B3DC" opacity="1.000000" stroke="none" 
	d="
M175.456543,21.690258 
	C179.474609,25.587156 183.036346,29.846991 188.030548,33.095261 
	C186.388657,34.594669 184.370239,36.011803 182.173584,37.707165 
	C180.098511,42.120594 176.289230,44.976284 174.438019,49.503357 
	C174.176147,50.641140 173.947525,51.452583 173.699799,52.574081 
	C173.559799,54.025921 174.272064,54.818317 175.066116,55.943535 
	C176.367752,58.637257 177.941711,60.847267 178.415253,63.919891 
	C178.496902,65.882690 178.433258,67.439117 177.228027,69.105103 
	C172.960800,73.157295 167.818909,75.049530 162.814331,77.873459 
	C160.174637,78.951332 157.884171,79.929337 155.707260,81.149330 
	C150.897491,83.844803 150.887161,83.909378 154.045593,88.333977 
	C156.125656,91.247910 155.383636,93.474304 150.830109,97.156982 
	C149.096420,97.835876 147.793900,98.749886 145.818695,98.277954 
	C142.088058,94.285912 140.524567,89.436745 138.732330,84.871666 
	C132.286255,68.452591 124.542992,52.595940 118.046700,36.201832 
	C114.019196,26.037979 114.832504,22.997265 124.724625,16.819702 
	C126.198784,17.466892 127.288261,18.174946 128.703217,18.909626 
	C130.805374,17.299543 133.110733,17.938686 135.152740,17.647280 
	C143.765427,16.418194 146.689362,19.589420 145.042969,28.562878 
	C144.188766,30.816433 143.257141,32.714161 145.800934,34.389160 
	C147.977829,35.264313 149.971497,35.079475 152.245651,35.296223 
	C154.662872,35.558426 156.428726,34.811268 158.268311,33.286316 
	C162.358704,31.429930 165.534256,28.578648 169.840179,27.206196 
	C171.851242,25.443129 173.513611,23.657108 175.456543,21.690258 
z"/>
<path fill="#E6F1D4" opacity="1.000000" stroke="none" 
	d="
M170.010361,26.919098 
	C167.609940,30.601910 163.958481,32.424744 159.889053,34.180122 
	C157.601196,35.035439 155.654343,35.857189 153.278717,36.511772 
	C150.499893,37.224049 148.042282,37.406334 145.329529,36.174957 
	C143.561691,34.504532 143.048828,32.741928 143.138428,30.418427 
	C144.448334,19.429390 144.448975,19.453060 133.651230,19.744534 
	C132.362732,19.779316 131.062668,19.386143 129.398315,19.063795 
	C129.591660,15.310321 132.743744,15.506227 135.160645,15.162245 
	C138.080994,14.746608 141.098450,15.013196 144.533585,14.973209 
	C154.269577,16.718632 163.467148,18.643179 170.010361,26.919098 
z"/>
<path fill="#0CA8D7" opacity="1.000000" stroke="none" 
	d="
M261.135376,173.023544 
	C259.786072,172.118057 258.795837,171.146652 257.530334,170.053543 
	C257.055756,169.793365 256.856415,169.654877 256.687225,169.154633 
	C259.413696,165.192810 260.582001,160.866379 262.405090,156.486725 
	C263.373077,151.833160 264.773163,147.645813 265.590820,142.964661 
	C266.343109,141.045685 266.812500,139.444275 265.932526,137.441391 
	C265.584106,136.031342 265.407104,134.921249 265.286072,133.461151 
	C265.406738,132.902359 265.496582,132.689255 265.859039,132.261505 
	C268.739258,132.204895 270.726288,130.366577 273.489441,129.793152 
	C274.238983,140.917755 275.004974,152.129837 269.351685,162.558289 
	C267.233856,166.465012 265.350647,170.420578 261.135376,173.023544 
z"/>
<path fill="#E6F1CF" opacity="1.000000" stroke="none" 
	d="
M265.865204,131.779541 
	C266.131622,132.046875 265.919098,132.432831 265.825745,132.632355 
	C261.960358,135.150696 258.367310,134.757980 254.231857,131.117493 
	C250.873688,128.161255 247.526413,125.202065 243.723846,122.183197 
	C243.294296,121.719841 243.143906,121.518051 242.824936,120.984436 
	C242.291946,118.942009 241.291946,117.653984 239.928192,116.629044 
	C237.662170,114.925972 235.627045,112.931839 233.851807,110.776947 
	C227.667480,103.269997 220.301270,97.785240 210.142395,96.039673 
	C199.588028,88.477684 190.947586,79.298264 181.780029,70.706802 
	C179.955856,68.997246 178.259598,67.179428 177.511932,64.311035 
	C176.094513,61.752075 174.847824,59.501923 173.532028,56.913200 
	C173.561676,55.454357 172.899734,54.528309 172.526764,53.202461 
	C172.362427,52.089005 172.346786,51.263580 172.475800,50.160538 
	C175.331741,48.028950 177.336029,49.616249 179.227539,51.329350 
	C182.182877,54.005939 184.981781,56.852425 187.728973,59.738171 
	C197.698471,70.210449 208.547501,79.767769 218.910233,89.830231 
	C222.306122,93.127693 226.256088,95.455521 230.874893,96.696312 
	C235.528137,97.946358 240.005035,99.712471 244.673035,101.922569 
	C246.172760,102.869568 247.312698,103.779991 248.732193,104.831001 
	C252.259689,109.403229 256.818268,112.657524 259.867828,117.301544 
	C262.747559,121.686974 264.562073,126.423218 265.865204,131.779541 
z"/>
<path fill="#029CCF" opacity="1.000000" stroke="none" 
	d="
M181.059692,256.540588 
	C175.167099,257.873962 169.245071,258.408020 163.249298,260.341919 
	C156.562714,263.639374 149.697037,265.101685 142.424225,266.267090 
	C141.158493,266.108185 140.264145,266.123840 139.122223,266.372437 
	C137.849991,266.756866 136.825317,266.908264 135.412689,267.084778 
	C130.313049,262.145935 128.532791,255.578537 125.909821,249.577805 
	C118.307884,232.186478 111.140205,214.605209 103.272896,197.325363 
	C100.999931,192.333008 99.792442,186.881592 96.639717,181.848160 
	C96.419670,181.258163 96.362495,181.012527 96.308945,180.391251 
	C99.298592,173.598862 98.517921,168.176605 93.145065,163.026611 
	C86.916313,157.056229 79.424553,153.285782 72.052353,149.211960 
	C70.325813,148.257874 68.370155,147.641800 67.229980,145.390320 
	C66.875114,143.621353 67.200050,142.264984 68.221375,141.353958 
	C72.754997,137.309967 76.699471,132.362061 83.559990,131.301956 
	C86.620499,133.041534 86.780228,136.138443 88.028572,138.612534 
	C90.153465,142.823883 92.537392,143.018127 95.407906,139.206879 
	C97.283653,136.716385 97.389587,134.009430 96.481255,131.150970 
	C95.777954,128.937759 94.737007,126.814209 94.688858,124.059273 
	C95.197739,120.989922 97.182175,119.440186 99.290497,118.167877 
	C103.080658,115.880661 106.887802,113.591270 111.456665,112.007874 
	C116.546272,112.330223 119.241600,115.056122 120.734512,119.331497 
	C121.602524,121.817268 122.846222,124.158318 123.890152,126.996803 
	C124.022285,127.628075 124.049019,127.884392 124.054253,128.524017 
	C122.903084,133.242279 119.588432,136.569000 118.366333,141.273926 
	C117.523392,145.022476 116.870331,148.425415 117.004578,151.919159 
	C117.263824,158.665863 119.806732,161.937592 126.389954,163.389069 
	C137.704208,165.883652 146.671600,171.310532 151.196976,182.531250 
	C152.449646,185.637283 153.232483,188.832443 152.472366,192.600586 
	C151.502731,197.164368 148.959946,200.861832 148.684753,205.628021 
	C148.079773,217.499268 151.960968,226.934357 161.772247,234.002136 
	C163.187103,237.737061 164.357071,241.178085 165.637421,244.578735 
	C168.162811,251.286301 169.033112,251.569229 174.983353,247.307922 
	C178.342163,244.902512 181.490982,242.211502 184.523834,239.408813 
	C188.038513,236.160858 192.358154,234.565872 196.771149,233.138046 
	C198.363205,232.622940 200.013794,232.424728 201.772308,233.717407 
	C196.270905,239.891678 190.530151,245.769836 184.831223,251.688278 
	C183.479446,253.092148 181.745880,254.204758 181.059692,256.540588 
z"/>
<path fill="#8BC761" opacity="1.000000" stroke="none" 
	d="
M142.363464,266.337860 
	C148.437637,263.180969 155.225952,261.741669 162.524063,260.574188 
	C162.782516,260.909637 162.612518,261.270142 162.221634,261.833252 
	C155.846542,264.775787 149.902115,268.407288 142.363464,266.337860 
z"/>
<path fill="#0198CC" opacity="1.000000" stroke="none" 
	d="
M96.614876,180.828949 
	C100.085945,181.797516 100.469315,184.821198 101.442879,187.121017 
	C110.430534,208.352402 119.122459,229.710129 128.254150,250.878525 
	C130.477081,256.031525 133.336151,260.918335 135.006516,266.721619 
	C130.633179,268.437866 126.241646,269.765869 121.463470,271.119629 
	C120.009972,269.187469 118.383461,267.825134 116.497536,266.689575 
	C107.783409,261.442657 100.747513,254.466644 96.046959,245.453186 
	C91.198624,236.156326 82.571678,230.003723 76.830902,221.454239 
	C73.799957,216.940384 70.539513,212.492432 66.389816,208.839874 
	C65.163811,207.760742 64.949738,206.277695 64.997101,204.352081 
	C67.617996,201.866684 70.242943,199.763901 73.065308,197.383972 
	C74.315392,193.685287 77.918427,192.916962 80.303482,190.386353 
	C83.293831,188.897522 85.263695,186.569412 88.103088,184.869934 
	C91.278442,183.831635 92.933319,180.579407 96.614876,180.828949 
z"/>
<path fill="#28AED9" opacity="1.000000" stroke="none" 
	d="
M112.391914,113.015671 
	C106.760002,116.798210 99.871002,118.100929 95.713249,124.084114 
	C94.782761,124.444557 94.098862,124.148857 93.214920,123.391228 
	C91.773232,121.683563 91.498360,119.853333 90.654648,117.844437 
	C89.512497,112.716583 90.759727,108.449074 93.541138,104.139267 
	C96.439598,100.708412 99.839874,98.587479 103.764603,96.580948 
	C106.755768,94.740227 110.269081,93.192604 110.149879,89.740555 
	C110.020401,85.990822 105.842514,85.658226 103.163155,84.224098 
	C101.555290,83.363480 99.781372,82.821419 98.158936,81.962570 
	C90.452431,77.883072 88.395889,73.205620 90.672806,64.382828 
	C92.846703,59.019688 97.567352,56.167900 100.849419,51.683842 
	C101.227089,51.121433 101.429070,50.863884 101.661446,50.635231 
	C108.631615,43.776657 108.688324,42.614697 102.194733,35.287567 
	C100.818947,33.761787 99.128593,33.713043 97.324081,33.048836 
	C103.802094,23.979355 110.784897,15.224102 122.733772,11.990777 
	C123.744492,13.354635 124.364548,14.737443 125.046951,16.439545 
	C124.849304,19.962442 121.740433,20.671865 119.922844,22.438980 
	C117.172592,25.112856 116.473984,27.620396 118.058823,31.279211 
	C126.739296,51.319260 135.237244,71.438454 143.771423,91.541679 
	C144.612335,93.522545 145.273758,95.579597 146.101562,97.990822 
	C146.448395,98.855453 146.519165,99.357628 146.192627,100.219193 
	C143.888519,102.311035 141.194473,102.720634 138.745895,103.655190 
	C132.113480,106.186577 125.310646,108.282028 119.001839,111.621086 
	C117.066200,112.645554 114.945053,112.980713 112.391914,113.015671 
z"/>
<path fill="#01A0D2" opacity="1.000000" stroke="none" 
	d="
M202.287354,233.837891 
	C192.519989,234.400253 185.858276,240.164001 179.468445,246.168823 
	C176.881897,248.599487 173.651550,249.918442 171.010391,252.194305 
	C169.326370,253.645432 167.558990,253.056564 166.542374,251.011215 
	C164.114761,246.126984 161.922668,241.151581 161.019714,235.312592 
	C164.332886,232.235672 169.362656,233.446487 172.518768,229.653961 
	C175.644760,226.453033 178.348923,223.354294 180.783997,219.584610 
	C182.620590,217.006958 183.875916,214.412460 186.502777,212.474945 
	C191.186539,211.083725 192.643417,214.227112 194.162384,217.249130 
	C197.207001,223.306488 197.668259,223.507309 203.068802,219.187866 
	C209.276443,214.222916 215.082886,208.780121 221.057404,203.537704 
	C222.263763,202.479187 222.497772,200.963120 223.728790,199.598297 
	C224.718384,199.028900 225.447617,198.949692 226.548523,199.291077 
	C229.102295,199.674408 231.312607,199.895874 233.807480,200.413681 
	C233.981354,202.317627 233.052475,203.457993 231.965897,204.534332 
	C222.164764,214.243225 212.372925,223.961502 202.287354,233.837891 
z"/>
<path fill="#CCE3A6" opacity="1.000000" stroke="none" 
	d="
M238.063370,188.641739 
	C237.147247,189.218842 236.387955,189.498260 235.350861,189.909882 
	C234.011261,190.842529 232.736282,190.909866 231.840088,190.118469 
	C226.310242,185.235184 220.067932,180.968567 217.124725,173.365509 
	C218.552658,168.577911 222.681000,167.285355 226.477142,165.059891 
	C227.598343,164.746735 228.362366,164.736877 229.497650,164.916077 
	C235.717987,168.892166 240.190277,174.236404 244.986023,179.682831 
	C243.143890,183.097641 239.715134,184.923584 238.063370,188.641739 
z"/>
<path fill="#CFE5B0" opacity="1.000000" stroke="none" 
	d="
M245.352982,179.982910 
	C238.772278,176.860504 234.900818,171.066940 230.013672,165.882614 
	C232.236786,160.533997 237.256790,160.758514 241.416733,160.545258 
	C247.803406,160.217850 253.923615,161.705444 257.302551,168.563843 
	C257.234955,168.982422 257.195038,169.458267 257.225037,169.695053 
	C253.276550,171.963593 250.760773,175.699112 247.207352,178.708252 
	C246.573502,179.310089 246.103790,179.620834 245.352982,179.982910 
z"/>
<path fill="#C5E09D" opacity="1.000000" stroke="none" 
	d="
M217.605118,172.616150 
	C222.108047,179.783478 228.094681,184.992889 234.725571,189.979523 
	C232.410370,192.983582 229.747681,195.925079 226.988480,199.159744 
	C226.158325,199.703903 225.424683,199.954880 224.359955,200.407776 
	C223.543961,200.807800 223.042740,200.866348 222.165100,200.653229 
	C218.259155,196.388916 214.503403,192.454956 210.657715,188.601639 
	C209.000854,186.941513 207.638321,185.074600 207.696991,182.162064 
	C209.486176,177.209045 211.831161,173.233032 217.605118,172.616150 
z"/>
<path fill="#BDDC8F" opacity="1.000000" stroke="none" 
	d="
M91.834366,117.752678 
	C92.764900,119.366829 93.398460,120.798447 94.064590,122.570267 
	C93.752266,128.440735 89.374619,129.204605 84.940826,130.330200 
	C81.057335,129.471680 78.363548,126.293854 74.087997,126.597389 
	C63.389427,116.680969 52.032421,107.913902 43.042572,96.308105 
	C45.217392,93.496544 47.446968,91.029182 49.835365,88.269768 
	C51.084396,87.331474 52.174610,86.685234 53.579613,85.985199 
	C57.307056,85.063530 59.080742,87.629227 60.882488,89.592522 
	C68.724388,98.137527 77.563072,105.645828 85.755379,113.821381 
	C87.424606,115.487198 89.349831,116.721916 91.834366,117.752678 
z"/>
<path fill="#C3DF98" opacity="1.000000" stroke="none" 
	d="
M92.138412,117.503372 
	C90.204865,119.088120 88.497299,119.104301 86.812630,117.330597 
	C77.988403,108.040024 67.736519,100.196815 59.469524,90.325310 
	C58.122158,88.716438 56.174046,87.610680 54.198997,86.101883 
	C55.836395,81.007790 60.789581,78.673805 63.832451,74.266373 
	C63.991390,73.972481 64.487404,73.970985 64.735405,73.969376 
	C66.054756,73.976730 66.951233,74.455093 67.607590,75.225739 
	C75.405991,84.382088 84.948730,91.731674 93.419960,100.189423 
	C94.473267,101.241051 95.693367,102.207253 95.408340,104.311066 
	C93.012306,108.476357 91.134163,112.401794 92.138412,117.503372 
z"/>
<path fill="#C8E19F" opacity="1.000000" stroke="none" 
	d="
M95.659027,104.524719 
	C87.564644,97.282036 79.800148,89.884789 72.005653,82.519295 
	C69.464989,80.118469 67.158409,77.537086 65.146164,74.265167 
	C67.448715,71.413506 69.914024,68.859245 72.666351,66.141525 
	C75.468353,64.332634 77.081413,66.220535 78.533676,67.657890 
	C86.433952,75.477074 95.143410,82.449554 102.639008,90.684433 
	C104.256317,92.461250 106.543648,94.041626 105.223160,97.341400 
	C102.010735,99.913429 98.392029,101.345245 95.659027,104.524719 
z"/>
<path fill="#C8E2A6" opacity="1.000000" stroke="none" 
	d="
M105.297516,97.538025 
	C104.724457,96.692596 104.745636,95.490784 104.155685,94.866432 
	C94.540123,84.690369 84.364380,75.100815 73.298538,66.035431 
	C73.539650,64.858696 74.125931,63.739330 74.869530,62.341393 
	C77.833893,60.530144 79.233521,57.286057 82.641510,56.011345 
	C86.572716,57.759754 88.919441,61.074120 92.187225,63.788147 
	C90.340500,74.612022 91.901886,77.543625 101.757584,81.787270 
	C104.049973,82.774315 106.378761,83.690178 108.613426,84.795273 
	C113.919624,87.419319 114.363335,90.303429 110.037727,94.233452 
	C108.695045,95.453339 107.091507,96.386101 105.297516,97.538025 
z"/>
<path fill="#CFE5AF" opacity="1.000000" stroke="none" 
	d="
M92.574142,63.870289 
	C87.545273,63.746136 85.405960,60.085037 83.034424,56.293419 
	C84.159622,54.430641 85.342484,52.915051 86.762436,51.182770 
	C89.454933,48.718582 91.910347,46.471085 94.661003,44.065571 
	C97.298172,46.563530 99.764313,49.099987 102.489861,51.869244 
	C99.755302,56.328941 95.104317,58.975559 92.574142,63.870289 
z"/>
<path fill="#D1E7B8" opacity="1.000000" stroke="none" 
	d="
M102.885071,51.971062 
	C98.609131,51.220783 95.134254,49.662842 94.971725,44.300488 
	C95.990356,40.154114 99.743385,38.607807 101.847824,35.305481 
	C109.221992,37.252621 111.034599,42.883720 106.338257,48.702538 
	C105.415192,49.846222 104.190590,50.746532 102.885071,51.971062 
z"/>
<path fill="#EBF3D6" opacity="1.000000" stroke="none" 
	d="
M244.866150,101.672760 
	C244.455200,102.239960 243.718079,102.907623 243.323380,102.744865 
	C234.078232,98.932838 223.956085,97.585388 216.161179,89.945946 
	C203.450790,77.489090 190.653076,65.115967 178.051743,52.543930 
	C176.738846,51.234085 175.450333,49.930630 173.013855,49.917778 
	C173.797394,44.689564 177.411118,41.309235 181.667709,38.074425 
	C186.840881,42.990524 191.634720,48.046967 196.541443,52.991383 
	C212.571960,69.145042 228.643631,85.257866 244.866150,101.672760 
z"/>
<path fill="#2DAAD0" opacity="1.000000" stroke="none" 
	d="
M73.543320,126.706886 
	C77.587502,124.354233 80.667816,125.028885 83.168617,129.065125 
	C84.831642,129.483627 84.525696,130.466156 84.038086,131.709000 
	C77.547981,135.012299 72.276276,139.106171 67.943031,144.835144 
	C67.454941,145.439789 67.017143,145.531372 66.297699,145.186371 
	C63.885090,143.064331 61.580109,141.263062 62.349304,137.486938 
	C64.791191,132.404449 69.154556,129.801910 73.543320,126.706886 
z"/>
<path fill="#9BCC53" opacity="1.000000" stroke="none" 
	d="
M81.308990,191.266510 
	C79.202904,194.001450 76.390366,195.262756 73.584793,197.040405 
	C70.867943,197.224670 69.291771,195.837082 67.732086,194.259048 
	C61.908775,188.367203 55.971359,182.587097 50.202732,176.642822 
	C48.060284,174.435165 45.766968,172.704086 42.356300,172.053253 
	C43.301586,169.896576 44.605423,167.794373 45.965149,165.354599 
	C47.419010,164.973022 48.373280,164.057373 49.686871,163.135376 
	C52.711929,160.664291 54.878971,162.389938 57.019749,164.021469 
	C61.921291,167.757111 65.562988,172.765778 70.018753,176.957748 
	C72.908401,179.676331 75.656593,182.537796 78.693489,185.109222 
	C80.414543,186.566422 82.449203,188.062836 81.308990,191.266510 
z"/>
<path fill="#A2CF63" opacity="1.000000" stroke="none" 
	d="
M96.940094,180.719086 
	C94.518204,182.658020 92.106697,184.336197 89.348358,186.011719 
	C82.499313,179.474945 75.995323,172.942612 69.486382,166.415207 
	C65.650032,162.567993 61.892639,158.640778 57.159523,155.317230 
	C57.002819,154.834549 57.002506,154.667892 57.001488,154.251221 
	C58.806808,152.435410 60.612831,150.869583 62.704758,149.145996 
	C65.267677,147.294449 67.339897,147.927322 69.334122,149.537354 
	C78.799515,157.179184 87.114655,166.018906 95.534523,174.746140 
	C96.695015,175.948990 97.572693,177.397659 97.094635,179.586487 
	C96.962715,180.110596 96.956596,180.284454 96.940094,180.719086 
z"/>
<path fill="#A3D06B" opacity="1.000000" stroke="none" 
	d="
M97.292198,179.771255 
	C95.364410,175.921310 91.888611,173.468582 89.006386,170.551285 
	C82.389679,163.853973 75.857498,157.065399 68.594200,151.033478 
	C67.121017,149.810059 65.725281,148.834061 63.372173,148.993744 
	C63.909157,147.826233 64.827660,146.664261 65.898880,145.220520 
	C66.452942,145.001587 66.854286,145.064407 67.558914,145.156586 
	C74.860199,148.986572 82.181183,152.204422 88.697342,156.874115 
	C91.690666,159.019226 94.449287,161.410446 96.838058,164.201553 
	C101.135033,169.222260 101.346565,173.984360 97.292198,179.771255 
z"/>
<path fill="#A0CE5B" opacity="1.000000" stroke="none" 
	d="
M56.712486,155.163040 
	C59.474506,154.941025 61.470692,155.991913 63.168850,157.687073 
	C71.106133,165.610291 79.032341,173.544617 86.969299,181.468155 
	C88.040009,182.537064 89.010437,183.640686 88.989998,185.645508 
	C86.525154,187.674759 84.824692,190.358124 81.550720,191.531647 
	C81.017685,190.090195 80.447983,188.672440 79.194672,187.751328 
	C70.320061,181.228851 63.812775,172.250641 55.594997,165.045425 
	C54.142323,163.771744 52.714855,162.836578 50.353088,162.985870 
	C50.906391,159.402649 54.089085,157.722183 56.712486,155.163040 
z"/>
<path fill="#E0EEC6" opacity="1.000000" stroke="none" 
	d="
M161.674133,76.881149 
	C166.291412,73.997894 170.761536,71.471443 175.572388,68.839294 
	C182.098373,75.834801 189.189484,82.033821 195.793243,88.717911 
	C197.254486,90.196930 199.264114,91.514412 198.039948,94.437897 
	C196.391708,95.819153 194.768539,95.494942 192.806747,95.492416 
	C191.899033,95.519157 191.391891,95.466934 190.546173,95.205704 
	C189.757248,94.850494 189.334488,94.588295 188.977234,94.242592 
	C184.794174,90.194931 180.175217,88.086235 174.061707,90.910652 
	C168.698700,88.918564 165.644745,84.716202 162.264359,80.916588 
	C161.381302,79.924019 160.910736,78.635902 161.674133,76.881149 
z"/>
<path fill="#D6E9BC" opacity="1.000000" stroke="none" 
	d="
M161.454498,76.587387 
	C164.141464,82.527786 169.701904,85.622833 174.070892,90.273117 
	C175.147736,91.825523 174.605576,93.108444 174.279816,94.775284 
	C173.955017,95.683090 173.644928,96.138512 172.903259,96.783318 
	C167.014145,98.809280 161.117035,97.814285 155.097137,99.356674 
	C152.432144,99.597191 150.190216,99.719254 149.778625,96.368408 
	C155.576935,91.186951 155.672882,91.038033 150.098663,87.446449 
	C147.501602,85.773109 147.871674,84.453941 149.835358,82.944672 
	C153.269745,80.305031 157.115250,78.353043 161.454498,76.587387 
z"/>
<path fill="#E4F0CD" opacity="1.000000" stroke="none" 
	d="
M198.269455,94.341789 
	C194.021927,88.937180 188.878448,84.994629 184.630188,80.233765 
	C181.593704,76.830902 176.471008,74.995842 175.937256,69.134605 
	C176.624435,67.484314 177.318863,66.229439 177.291199,64.360687 
	C184.429031,70.667480 191.082489,77.777802 198.500137,84.114555 
	C202.362381,87.413994 205.709015,91.319145 209.924713,94.666489 
	C207.403427,97.339661 204.537506,95.198792 201.387604,95.477165 
	C200.054398,95.505295 199.252380,95.230614 198.269455,94.341789 
z"/>
<path fill="#C2E0A9" opacity="1.000000" stroke="none" 
	d="
M149.657349,95.964554 
	C150.497467,98.480133 152.531189,97.879761 154.602814,98.006973 
	C159.303452,98.807823 162.298172,100.986130 162.888351,106.013512 
	C161.972656,108.415916 160.280899,109.387444 157.957397,110.221848 
	C153.168839,110.703751 148.767517,111.159988 146.089523,106.503395 
	C145.067612,104.726448 144.416672,102.878731 145.470276,100.439384 
	C145.850327,99.695221 145.985779,99.328445 146.152924,98.671005 
	C147.232193,97.580032 148.279770,96.779716 149.657349,95.964554 
z"/>
<path fill="#C8E5C5" opacity="1.000000" stroke="none" 
	d="
M152.632202,64.354515 
	C156.936172,63.699909 160.292175,64.634331 162.339890,68.234116 
	C163.794464,70.791214 163.235184,72.735405 159.932007,73.034111 
	C156.729843,73.323677 153.741211,72.930717 151.255112,70.503815 
	C148.587387,67.899628 148.185181,65.844254 152.632202,64.354515 
z"/>
<path fill="#D2EAD0" opacity="1.000000" stroke="none" 
	d="
M142.968887,30.297554 
	C143.765610,31.781523 144.342087,33.495762 144.978455,35.555367 
	C142.340118,34.934395 142.431564,32.779186 142.968887,30.297554 
z"/>
<path fill="#D2EAD0" opacity="1.000000" stroke="none" 
	d="
M153.335175,36.721519 
	C154.175385,34.185627 156.789749,34.943195 159.150925,34.207764 
	C158.065826,36.146488 155.796448,36.252148 153.335175,36.721519 
z"/>
<path fill="#BBE3D3" opacity="1.000000" stroke="none" 
	d="
M172.302963,53.243408 
	C173.777603,53.463722 173.986313,54.558960 173.597214,56.220665 
	C172.657822,55.735729 172.174500,54.764450 172.302963,53.243408 
z"/>
<path fill="#05ABD9" opacity="1.000000" stroke="none" 
	d="
M257.590515,168.960022 
	C249.320953,160.592041 240.123001,161.156342 230.151550,165.346298 
	C229.169296,165.740768 228.470322,165.928665 227.410553,166.146423 
	C224.228729,159.241638 222.261520,151.971252 218.836899,145.274155 
	C217.792160,143.231094 216.521667,141.255432 217.141220,138.421112 
	C218.527145,136.010651 220.727692,135.242035 222.952103,133.889923 
	C226.440933,130.381058 226.757477,126.767426 224.513031,122.822578 
	C223.062317,120.272766 221.922928,117.689186 225.086639,115.040955 
	C232.360031,112.951797 238.415741,114.357864 243.656937,119.997864 
	C243.870041,120.369911 243.898590,120.754417 243.925964,120.945251 
	C250.163223,130.281387 252.920944,141.039230 257.764832,150.828186 
	C259.084839,153.495850 260.505585,155.672516 263.728699,156.759369 
	C261.805481,160.886887 262.304230,166.143036 257.590515,168.960022 
z"/>
<path fill="#0FAFDB" opacity="1.000000" stroke="none" 
	d="
M264.058380,156.619034 
	C260.334503,158.557968 258.418762,157.412537 256.914368,153.591873 
	C253.332504,144.495132 249.236099,135.600159 245.301270,126.644020 
	C244.627747,125.110977 243.912491,123.625381 243.964691,121.519272 
	C247.759506,122.676918 250.586609,125.524086 253.324753,128.405289 
	C256.535370,131.783661 260.262360,133.443802 265.333893,132.787735 
	C266.901337,133.658371 267.002625,134.891129 267.002472,136.540314 
	C265.084259,138.368668 263.186890,137.226089 261.284393,136.862366 
	C259.569336,136.534485 257.848450,135.561066 255.784012,136.965820 
	C258.634216,141.008926 263.874023,138.887695 266.957245,142.062210 
	C267.306824,147.280594 265.490417,151.715408 264.058380,156.619034 
z"/>
<path fill="#D2E9C8" opacity="1.000000" stroke="none" 
	d="
M267.280151,142.200958 
	C263.197357,142.315094 259.441925,141.831528 255.930786,140.289444 
	C254.010773,139.446167 252.416214,137.956787 253.168961,135.668747 
	C253.898560,133.450974 256.050232,133.683167 257.811737,134.129562 
	C260.674683,134.855057 263.469910,135.847885 266.649292,136.822571 
	C267.929810,138.530823 270.264832,139.992462 267.280151,142.200958 
z"/>
<path fill="#E0EEC6" opacity="1.000000" stroke="none" 
	d="
M243.865875,120.001549 
	C238.318436,117.646088 232.751419,114.985832 225.843033,116.128265 
	C222.819946,117.300369 221.012344,115.885986 219.265274,114.262276 
	C213.477325,108.883057 208.429214,102.717903 201.966339,98.049988 
	C200.877625,97.263657 200.162186,96.110794 200.770386,94.308624 
	C203.760696,94.006584 206.553284,93.764458 209.602661,94.932617 
	C217.301575,96.246498 224.573013,97.116859 229.581314,103.915054 
	C233.769943,109.600632 240.279648,113.305710 243.865875,120.001549 
z"/>
<path fill="#BADA87" opacity="1.000000" stroke="none" 
	d="
M117.044067,141.353882 
	C117.416267,136.470032 120.306168,133.105225 122.742271,129.203094 
	C125.576744,127.844917 127.142075,129.566544 128.629974,131.084564 
	C146.328690,149.141434 165.469498,165.716705 182.957260,183.988586 
	C185.612137,186.762497 188.481873,189.275452 191.972794,191.655106 
	C194.670761,197.826508 192.499710,203.026688 189.491486,208.371155 
	C186.807266,209.636246 184.944290,208.541962 183.280869,207.067535 
	C180.668503,204.751999 177.771057,202.754074 175.343826,200.245178 
	C157.546295,181.848785 138.408661,164.820206 120.540138,146.497742 
	C119.155876,145.078308 117.578217,143.785431 117.044067,141.353882 
z"/>
<path fill="#BFDC8F" opacity="1.000000" stroke="none" 
	d="
M191.444305,191.682190 
	C188.264542,191.736496 186.361343,189.884705 184.460052,187.973801 
	C177.528549,181.007233 170.673965,173.959442 163.593597,167.146805 
	C154.277023,158.182556 144.664398,149.524567 135.404343,140.503662 
	C131.522995,136.722565 128.210434,132.357742 123.331726,129.156647 
	C123.025497,129.013046 123.029037,128.527756 123.025986,128.285126 
	C124.187325,123.099922 126.761436,119.567307 132.554153,118.967087 
	C136.107605,120.987015 138.033127,124.193886 140.636017,126.721024 
	C156.075638,141.711380 172.623871,155.540085 187.338013,171.289734 
	C188.577271,172.616211 190.061188,173.714142 191.224213,175.638367 
	C192.065674,181.110184 192.892700,186.215485 191.444305,191.682190 
z"/>
<path fill="#B1D780" opacity="1.000000" stroke="none" 
	d="
M116.731728,141.284882 
	C117.890945,141.727814 118.855637,142.392197 119.679420,143.200241 
	C138.442856,161.604706 157.138687,180.078583 175.987045,198.395554 
	C179.637253,201.942856 183.304321,205.591599 188.248138,208.150818 
	C189.461136,209.926163 188.956924,211.293701 187.304840,212.724533 
	C185.578461,215.233536 184.134369,217.465729 182.421173,219.887955 
	C179.637360,221.087769 178.156006,219.153839 176.485306,217.982666 
	C170.491394,213.780899 166.137466,207.866852 160.931656,202.837692 
	C157.739212,199.753555 154.401031,196.813156 151.154037,193.273560 
	C150.734711,179.428131 143.406647,169.805008 130.565079,166.260132 
	C114.928162,161.943619 112.722321,158.079758 116.731728,141.284882 
z"/>
<path fill="#ADD476" opacity="1.000000" stroke="none" 
	d="
M150.754990,193.307297 
	C153.640228,192.695816 155.064224,194.668625 156.756546,196.239059 
	C165.103989,203.985123 172.020111,213.240524 181.846252,219.913391 
	C180.304184,223.776367 177.829071,227.003448 174.524963,229.978027 
	C172.487091,230.809738 170.863892,230.365768 169.621872,229.180435 
	C161.986160,221.893188 154.022873,214.920074 147.274628,206.264603 
	C146.166809,201.283951 149.250946,197.701431 150.754990,193.307297 
z"/>
<path fill="#04A1D2" opacity="1.000000" stroke="none" 
	d="
M132.933517,119.222794 
	C128.720535,121.116104 126.295311,124.550148 123.304367,127.862320 
	C120.831924,125.438591 119.699631,122.257828 118.689201,119.132103 
	C117.649162,115.914780 115.824112,114.025818 112.273506,113.260368 
	C122.519165,107.496307 133.406174,102.934853 145.335617,100.060135 
	C147.789734,108.174141 148.952805,109.031906 157.457565,108.408005 
	C158.665405,109.031860 158.895844,109.879570 158.743576,111.270660 
	C156.555969,114.553635 153.476990,113.860992 150.238266,114.085373 
	C147.424149,114.948059 144.872040,115.163239 142.107788,116.052383 
	C138.744308,116.657837 136.360733,118.907814 132.933517,119.222794 
z"/>
<path fill="#A6D170" opacity="1.000000" stroke="none" 
	d="
M146.954834,206.451248 
	C149.468964,206.224930 150.607330,208.272598 152.180771,209.692902 
	C159.450562,216.254990 165.329956,224.295685 173.903656,229.970276 
	C171.072586,234.187042 166.843979,235.467468 161.459534,234.897919 
	C149.972900,228.774033 146.558456,218.781265 146.954834,206.451248 
z"/>
<path fill="#A8D37F" opacity="1.000000" stroke="none" 
	d="
M83.894653,132.368164 
	C83.649689,131.347504 83.591881,130.657959 83.474655,129.626404 
	C87.664001,128.803360 90.922142,126.551003 93.918327,123.210472 
	C94.456032,123.303795 94.814903,123.697105 95.376083,124.263733 
	C96.502975,126.733864 97.482002,129.010635 98.336533,131.333221 
	C99.159744,133.570663 99.311249,135.901932 98.347885,138.115417 
	C96.964165,141.294754 94.684418,144.078552 91.174507,144.208481 
	C87.832222,144.332230 87.022949,140.921692 86.008469,138.326706 
	C85.287231,136.481796 84.718575,134.577240 83.894653,132.368164 
z"/>
<path fill="#05A5D4" opacity="1.000000" stroke="none" 
	d="
M187.393066,213.014648 
	C187.515594,211.648911 188.008636,210.296494 188.564728,208.586395 
	C190.449158,203.202255 192.117645,198.147827 191.309113,192.334793 
	C190.149445,186.704102 189.912720,181.379333 190.488297,175.564056 
	C189.549835,173.102966 189.564163,171.362183 192.231064,170.212402 
	C195.416992,170.863678 196.206314,173.326736 197.367279,175.491577 
	C199.616837,179.686310 200.655945,184.522171 204.251251,188.419510 
	C204.654861,189.180832 204.818436,189.650650 204.866287,190.142990 
	C205.677948,198.494873 207.722870,200.220627 216.056046,199.558929 
	C217.850006,199.416473 219.661774,198.992172 221.702454,200.086670 
	C222.487015,200.264862 222.934708,200.331863 223.705627,200.504272 
	C224.579315,205.392395 220.074814,206.369492 217.628326,208.715942 
	C212.271057,213.854126 206.735077,218.823654 200.713989,223.232803 
	C197.595688,225.516266 196.037567,224.854462 194.169876,221.623871 
	C192.401932,218.565857 192.848740,213.647476 187.393066,213.014648 
z"/>
<path fill="#03A7D7" opacity="1.000000" stroke="none" 
	d="
M204.384552,188.965607 
	C200.643524,189.197220 200.173019,186.381821 199.246170,184.205368 
	C197.312790,179.665329 195.487427,175.082123 192.662598,170.515930 
	C191.648544,169.121353 191.612946,167.922943 191.791565,166.335571 
	C192.762497,163.280853 194.211029,160.833328 195.527710,157.939117 
	C196.187622,155.726654 197.395935,154.248077 198.780136,152.461060 
	C201.965546,147.850113 203.982346,143.046783 206.173904,137.913361 
	C207.252289,136.639542 208.394363,136.047913 209.839203,135.235535 
	C212.947693,134.922348 215.350113,135.829712 217.783936,137.674774 
	C220.684143,144.679825 223.028549,151.524719 226.213943,157.952866 
	C227.537613,160.623993 227.585098,162.821518 227.049026,165.784241 
	C224.125671,168.202454 221.201569,170.228577 218.110062,172.538849 
	C214.235580,174.809830 211.720840,178.040756 209.056000,181.545227 
	C207.605042,184.252380 208.115448,187.745224 204.384552,188.965607 
z"/>
<path fill="#BCDC97" opacity="1.000000" stroke="none" 
	d="
M203.978058,189.388092 
	C205.474945,186.738495 206.922455,184.476028 208.656769,182.035828 
	C208.709625,184.711853 210.906387,186.125977 212.442215,188.003311 
	C215.589767,191.850708 220.611649,194.137207 222.022827,199.819260 
	C218.740936,201.342300 215.334885,201.718155 211.887085,201.334366 
	C203.816986,200.436111 202.057480,197.831161 203.978058,189.388092 
z"/>
<path fill="#06A8D7" opacity="1.000000" stroke="none" 
	d="
M158.191223,112.327606 
	C157.976395,111.090256 157.954102,110.198151 157.906586,108.856201 
	C159.136673,107.811508 160.392014,107.216660 161.855408,106.400284 
	C165.114212,102.490288 169.334900,100.060135 172.728729,96.239548 
	C173.073456,95.577232 173.179840,95.159660 173.378525,94.431671 
	C178.637619,90.114189 184.088272,91.904938 189.976059,93.534286 
	C190.742996,93.807297 191.045853,93.909119 191.578583,94.056534 
	C199.381165,97.330032 200.597565,104.215607 201.586700,111.607124 
	C202.913910,118.136543 202.656082,124.720734 206.734238,130.102036 
	C207.625565,131.278168 208.008194,132.751175 207.406677,134.636688 
	C198.540833,135.509506 190.254639,134.156967 182.605499,129.826111 
	C181.895889,129.424332 181.270966,128.736420 180.966721,127.982101 
	C177.515198,119.424660 170.235580,116.283096 161.995850,114.467865 
	C161.180649,114.288277 160.430634,113.924629 159.347076,113.349625 
	C158.789108,113.009758 158.586441,112.841301 158.191223,112.327606 
z"/>
<path fill="#D9EABD" opacity="1.000000" stroke="none" 
	d="
M200.616852,112.306160 
	C199.062943,105.560135 197.003159,99.443848 191.982346,94.373230 
	C193.585144,94.050385 195.352524,94.026337 197.560257,94.000992 
	C198.748947,94.001114 199.497269,94.002533 200.619614,94.004822 
	C201.448074,97.735703 205.389679,97.634865 207.361557,99.767105 
	C211.525162,104.269287 215.978287,108.504669 220.337631,112.824280 
	C221.619049,114.094017 222.729919,115.627251 225.045868,116.081169 
	C223.834885,117.740913 224.149612,119.058884 225.484116,120.823189 
	C229.347855,125.931252 229.032104,129.708557 224.383423,134.993622 
	C222.678055,134.917282 221.521286,134.320602 220.540451,133.368744 
	C214.241394,127.255692 208.139404,120.943634 201.832870,114.837952 
	C201.218521,114.243149 201.037674,113.401237 200.616852,112.306160 
z"/>
<path fill="#35B8DB" opacity="1.000000" stroke="none" 
	d="
M190.258530,93.437607 
	C185.067200,93.844849 179.703598,93.956512 173.905396,94.094711 
	C173.074753,93.008926 173.698349,92.116631 174.183990,90.882561 
	C180.523865,85.653015 180.523865,85.653015 190.258530,93.437607 
z"/>
<path fill="#CCE4AF" opacity="1.000000" stroke="none" 
	d="
M172.507401,95.996155 
	C171.941971,101.754349 167.330734,103.908318 162.422684,106.151901 
	C161.395416,102.252159 157.713608,100.995834 155.164551,98.296638 
	C160.483444,95.683220 166.285172,96.006462 172.507401,95.996155 
z"/>
<path fill="#CFE6B6" opacity="1.000000" stroke="none" 
	d="
M200.371460,112.397156 
	C209.047821,118.639114 216.159515,126.800880 223.880966,134.797241 
	C222.640823,136.805344 220.574860,137.133240 218.314484,137.855927 
	C215.596558,137.325485 213.192581,136.647934 210.429749,135.893127 
	C209.407166,135.940781 208.745499,136.107864 207.552582,135.490326 
	C208.066879,134.296005 207.363174,133.560684 206.849457,133.044952 
	C201.227997,127.401443 200.369736,120.230850 200.371460,112.397156 
z"/>
<path fill="#C1DE97" opacity="1.000000" stroke="none" 
	d="
M193.140900,165.753540 
	C193.006256,167.213226 192.738663,168.344589 192.468567,169.814819 
	C191.270767,171.370895 191.238113,173.030243 190.630508,174.820908 
	C188.654617,175.024170 187.383972,173.978989 186.237198,172.731506 
	C171.051254,156.211716 153.564133,142.092896 137.729843,126.248909 
	C135.840408,124.358322 133.983582,122.473473 132.757202,119.585770 
	C134.448395,116.587097 137.353882,115.746864 140.552582,114.762024 
	C141.714844,115.035973 142.469360,115.423706 143.042908,116.027588 
	C158.846848,132.667801 176.195465,147.730698 192.187927,164.177429 
	C192.532684,164.531982 192.755905,164.994827 193.140900,165.753540 
z"/>
<path fill="#C7E09B" opacity="1.000000" stroke="none" 
	d="
M193.504242,165.839569 
	C191.457153,165.975525 190.298904,164.781448 189.101578,163.609741 
	C174.165939,148.993637 159.214844,134.393326 144.288635,119.767632 
	C143.003189,118.508072 141.452652,117.407204 140.983887,115.109299 
	C143.097061,113.228607 145.635406,112.997978 148.549500,112.786026 
	C156.248566,118.782112 162.819351,125.486977 169.492004,132.080261 
	C178.303818,140.787262 187.036148,149.577164 196.840195,157.738464 
	C196.610550,160.819519 194.857727,163.069916 193.504242,165.839569 
z"/>
<path fill="#C9E19F" opacity="1.000000" stroke="none" 
	d="
M197.255737,157.728302 
	C194.594330,158.069672 192.524460,157.090836 190.867386,155.333252 
	C181.604568,145.508530 170.912979,137.137589 162.096329,126.839737 
	C159.435196,123.731522 156.153748,121.063789 152.824203,118.653175 
	C150.892960,117.254944 149.997711,115.538864 149.090759,113.196884 
	C151.580475,111.553780 154.418594,112.495445 157.570007,112.059891 
	C158.174728,112.074333 158.350784,112.166298 158.767715,112.433617 
	C165.719604,115.975632 169.978012,122.213371 175.523651,126.945190 
	C183.492554,133.744675 190.528320,141.611877 197.932800,149.052887 
	C198.872726,149.997452 199.785446,150.984436 200.104919,152.718048 
	C199.250107,154.528503 198.343369,155.991348 197.255737,157.728302 
z"/>
<path fill="#C8E2A7" opacity="1.000000" stroke="none" 
	d="
M200.427139,152.868347 
	C197.123825,151.228607 194.871460,148.510422 192.533188,145.962021 
	C181.984253,134.465088 169.484039,124.955498 159.129333,112.878319 
	C168.869370,113.714378 178.093903,115.706383 182.130432,126.622681 
	C183.431534,130.141312 187.096466,130.689819 190.363770,131.428574 
	C195.664902,132.627151 201.386169,131.952332 206.656616,135.029724 
	C207.038940,135.067154 206.993164,135.030701 206.983917,135.002930 
	C207.553787,135.623901 207.819504,136.370605 207.522064,137.622681 
	C206.472946,143.497726 203.351837,147.978378 200.427139,152.868347 
z"/>
<path fill="#06A8D7" opacity="1.000000" stroke="none" 
	d="
M207.657349,137.937286 
	C207.204926,137.249008 207.049301,136.495529 206.934174,135.358612 
	C207.993835,133.502869 208.715240,135.073700 209.822998,135.522736 
	C209.641586,136.785690 209.016159,137.553604 207.657349,137.937286 
z"/>
</svg>