<svg version="1.1" id="Layer_1" xmlns="http://www.w3.org/2000/svg" xmlns:xlink="http://www.w3.org/1999/xlink" x="0px" y="0px"
	 width="100%" viewBox="0 0 866 650" enable-background="new 0 0 866 650" xml:space="preserve">
<path fill="#FFFFFE" opacity="1.000000" stroke="none" 
	d="
M544.000000,651.000000 
	C362.666656,651.000000 181.833328,651.000000 1.000000,651.000000 
	C1.000000,434.333344 1.000000,217.666672 1.000000,1.000000 
	C289.666656,1.000000 578.333313,1.000000 867.000000,1.000000 
	C867.000000,217.666672 867.000000,434.333344 867.000000,651.000000 
	C759.500000,651.000000 652.000000,651.000000 544.000000,651.000000 
M167.989120,217.970734 
	C167.989120,217.970734 167.951019,217.934158 167.449615,218.454697 
	C164.117142,228.816238 160.784668,239.177795 157.089233,250.152405 
	C156.145752,253.436111 155.202271,256.719818 153.845779,260.634705 
	C153.320801,262.210632 152.788620,263.784210 152.271896,265.362823 
	C141.247238,299.044250 130.150726,332.702423 119.238319,366.420166 
	C115.044807,379.377502 118.648407,389.117188 129.526917,396.981262 
	C156.503738,416.482788 183.381271,436.121552 210.311493,455.687622 
	C244.237885,480.336700 278.185394,504.956726 312.108154,529.610779 
	C342.939545,552.018127 373.727905,574.484741 404.582947,596.859375 
	C413.979828,603.673584 423.534790,610.269653 433.674011,617.205200 
	C434.082672,617.001953 434.491333,616.798706 435.363678,616.605225 
	C435.673767,616.458862 435.843628,616.214844 436.536957,615.700073 
	C440.637726,612.862854 444.800781,610.111084 448.829224,607.174683 
	C476.944855,586.680969 505.006653,566.113403 533.135803,545.638245 
	C568.788147,519.686951 604.480957,493.791290 640.169250,467.889404 
	C672.771057,444.227600 705.378906,420.573975 738.007935,396.949677 
	C748.781494,389.149353 752.261963,379.112000 748.272949,366.837921 
	C741.175537,344.998871 734.125488,323.144196 726.947632,301.331573 
	C722.583923,288.070892 718.017700,274.876923 713.588440,260.964752 
	C712.913574,258.566986 712.320435,256.142700 711.551392,253.775528 
	C701.737854,223.569290 691.884216,193.376068 682.070312,163.169922 
	C669.378235,124.105011 656.740234,85.022499 643.974182,45.981815 
	C643.122192,43.376308 641.877380,40.555195 639.972168,38.700214 
	C633.230591,32.136311 622.971863,35.175205 619.891663,44.606323 
	C603.990601,93.292801 588.154663,142.000626 572.358643,190.721329 
	C567.800354,204.780731 563.449524,218.907410 558.578308,233.387817 
	C558.474792,233.937851 558.371338,234.487900 557.869019,235.666000 
	C555.699402,242.128357 553.319763,248.530655 551.447754,255.078110 
	C550.494446,258.412079 548.894226,259.515717 545.484436,259.512238 
	C470.853210,259.436218 396.221863,259.445557 321.590576,259.501740 
	C318.501801,259.504059 316.996368,258.684967 315.974487,255.413116 
	C311.534943,241.198761 306.668365,227.117798 301.978485,212.216690 
	C299.758881,205.723785 297.539246,199.230881 295.268433,191.953094 
	C293.817902,187.641251 292.367371,183.329407 290.975586,178.424255 
	C290.705597,177.930069 290.435577,177.435883 290.136230,176.147171 
	C288.749390,171.707138 287.415466,167.249771 285.966766,162.830017 
	C278.989716,141.544510 271.981659,120.269150 265.023346,98.206749 
	C264.377319,96.154175 263.747223,94.096428 263.082733,92.049850 
	C257.914459,76.132118 252.783127,60.202171 247.543457,44.307953 
	C245.669235,38.622631 241.658997,35.525089 236.346390,35.246162 
	C231.283585,34.980354 226.180817,37.881966 224.537170,42.693085 
	C221.220795,52.400372 218.264557,62.230694 214.955002,72.710831 
	C214.782593,73.890556 214.610184,75.070274 213.927994,76.658997 
	C213.626678,77.442528 213.325348,78.226051 212.574356,79.563370 
	C208.909180,91.063179 205.244019,102.562996 201.329926,114.356827 
	C201.329926,114.356827 201.330475,114.742058 200.972839,115.323708 
	C198.781616,121.921165 196.536682,128.501343 194.409561,135.119400 
	C188.638275,153.075516 182.916962,171.047684 176.846542,189.633591 
	C176.572174,190.757614 176.297806,191.881622 175.584763,193.375198 
	C175.468964,193.921600 175.353165,194.468018 174.861008,195.657089 
	C172.872299,202.106003 170.883591,208.554901 168.739075,215.195908 
	C168.739075,215.195908 168.837830,215.422684 168.298950,215.900681 
	C168.178848,216.594330 168.058731,217.287964 167.989120,217.970734 
z"/>
<path fill="#E34329" opacity="1.000000" stroke="none" 
	d="
M434.900024,616.595459 
	C434.491333,616.798706 434.082672,617.001953 433.311340,616.750610 
	C432.264099,614.891296 431.579559,613.486572 430.935852,611.674438 
	C425.872192,594.664246 420.901367,578.018982 415.622681,561.471863 
	C411.039795,547.105835 405.993866,532.887878 401.360321,518.537476 
	C395.611603,500.733063 390.212036,482.815521 384.416504,465.026733 
	C376.613068,441.075012 368.513733,417.219849 360.654785,393.286011 
	C351.560059,365.588440 342.571777,337.855865 333.569702,310.127960 
	C328.365448,294.097900 323.225098,278.047058 318.475403,261.992249 
	C321.511322,261.655884 324.127655,261.052582 326.744415,261.050659 
	C396.939392,260.999329 467.134399,260.994080 537.329346,261.051880 
	C541.217346,261.055084 545.104858,261.667358 548.951660,262.377441 
	C541.263550,286.383270 533.583130,309.997131 525.978638,333.635437 
	C518.734192,356.154846 511.630707,378.719757 504.347168,401.226471 
	C499.505066,416.189026 494.420471,431.072968 489.508392,446.013092 
	C484.179504,462.220856 478.895447,478.443542 473.646484,494.677368 
	C468.855774,509.493927 464.215942,524.359619 459.368530,539.157410 
	C453.386444,557.419006 447.162750,575.601868 441.241150,593.882751 
	C438.904358,601.096802 437.100372,608.483398 434.987305,615.987061 
	C434.920868,616.182739 434.900024,616.595459 434.900024,616.595459 
z"/>
<path fill="#FCA329" opacity="1.000000" stroke="none" 
	d="
M430.895020,612.081909 
	C431.579559,613.486572 432.264099,614.891296 432.982971,616.630798 
	C423.534790,610.269653 413.979828,603.673584 404.582947,596.859375 
	C373.727905,574.484741 342.939545,552.018127 312.108154,529.610779 
	C278.185394,504.956726 244.237885,480.336700 210.311493,455.687622 
	C183.381271,436.121552 156.503738,416.482788 129.526917,396.981262 
	C118.648407,389.117188 115.044807,379.377502 119.238319,366.420166 
	C130.150726,332.702423 141.247238,299.044250 152.271896,265.362823 
	C152.788620,263.784210 153.320801,262.210632 154.265564,260.322388 
	C154.685349,260.010040 155.106537,260.078705 155.216370,260.387329 
	C160.665680,267.455933 166.065521,274.169250 171.332794,280.985016 
	C184.605789,298.160095 197.730881,315.450134 211.082916,332.563293 
	C222.598099,347.322205 234.421692,361.840271 245.965729,376.576996 
	C256.592224,390.142456 266.987122,403.889069 277.558136,417.498322 
	C290.677307,434.388000 303.916443,451.184570 317.022705,468.084198 
	C329.815735,484.580017 342.415222,501.226532 355.272552,517.671692 
	C364.869232,529.946350 374.883118,541.895142 384.455566,554.188171 
	C397.380920,570.786926 409.998535,587.625244 422.905060,604.238892 
	C425.174011,607.159607 428.212128,609.482788 430.895020,612.081909 
z"/>
<path fill="#FCA229" opacity="1.000000" stroke="none" 
	d="
M713.542480,261.652954 
	C718.017700,274.876923 722.583923,288.070892 726.947632,301.331573 
	C734.125488,323.144196 741.175537,344.998871 748.272949,366.837921 
	C752.261963,379.112000 748.781494,389.149353 738.007935,396.949677 
	C705.378906,420.573975 672.771057,444.227600 640.169250,467.889404 
	C604.480957,493.791290 568.788147,519.686951 533.135803,545.638245 
	C505.006653,566.113403 476.944855,586.680969 448.829224,607.174683 
	C444.800781,610.111084 440.637726,612.862854 436.180603,615.758850 
	C435.824249,615.817627 435.773071,615.763916 435.889557,615.446655 
	C438.321991,612.111267 440.635712,609.091431 442.954254,606.075317 
	C452.344910,593.859192 461.662201,581.585815 471.145569,569.442078 
	C486.846680,549.336365 502.683777,529.336914 518.406433,509.247986 
	C526.562927,498.826447 534.547302,488.270264 542.699280,477.845184 
	C552.088989,465.837250 561.652649,453.964996 571.002197,441.926147 
	C580.142273,430.156952 588.983337,418.154572 598.176880,406.427979 
	C614.936462,385.050781 631.897949,363.832062 648.698669,342.487000 
	C657.614685,331.159393 666.374084,319.708435 675.197083,308.307739 
	C687.454895,292.468628 699.705994,276.624390 712.176270,260.859558 
	C712.775818,261.175476 713.159180,261.414215 713.542480,261.652954 
z"/>
<path fill="#E2442A" opacity="1.000000" stroke="none" 
	d="
M558.267822,235.037933 
	C558.371338,234.487900 558.474792,233.937851 559.111450,233.031067 
	C560.343628,231.563019 561.285706,230.535782 561.703735,229.327271 
	C565.682373,217.825119 569.626526,206.310272 573.466980,194.761307 
	C575.738342,187.931183 577.861328,181.050079 579.948914,174.160934 
	C582.105530,167.043625 583.959412,159.830215 586.272217,152.765717 
	C588.998413,144.438553 592.075195,136.226151 595.007263,127.943283 
	C595.470276,128.084183 596.305420,128.338303 596.729736,128.467422 
	C596.729736,125.953079 596.189331,123.444489 596.828125,121.284714 
	C598.994019,113.962456 601.659851,106.789940 603.974854,99.509369 
	C605.862854,93.571365 607.415833,87.524948 609.396729,81.620338 
	C609.693848,80.734543 611.519043,80.361366 611.662476,80.283058 
	C612.517761,76.476868 613.031311,73.242935 613.981873,70.143021 
	C616.572266,61.695805 619.048096,53.193645 622.133057,44.923538 
	C625.228699,36.624878 631.651062,34.617290 638.235779,40.176483 
	C640.986694,42.499012 642.534119,46.651516 643.786438,50.263973 
	C646.799988,58.956600 649.368896,67.805939 651.996460,76.628029 
	C652.674683,78.905281 652.906433,81.315521 653.343262,83.664680 
	C653.416870,85.333275 654.599670,86.730209 655.209045,88.343689 
	C657.581055,94.624161 659.919983,100.924866 661.998840,107.306770 
	C666.758545,121.918793 671.392700,136.572113 676.008362,151.230560 
	C678.266907,158.403336 680.183777,165.687759 682.581360,172.811951 
	C688.091064,189.183411 693.823792,205.479706 699.412170,221.824921 
	C700.744080,225.720566 701.975586,229.658203 703.059692,233.629349 
	C705.445435,242.367905 707.707642,251.140167 709.549927,259.928558 
	C657.054626,259.940460 605.029663,259.922485 553.042847,259.561401 
	C553.709961,257.079102 557.367554,255.539612 554.260986,252.555801 
	C553.864868,252.175369 554.672791,250.100815 555.357422,249.111954 
	C558.341431,244.802048 559.267334,240.136566 558.267822,235.037933 
z"/>
<path fill="#E34329" opacity="1.000000" stroke="none" 
	d="
M175.237350,195.014420 
	C175.353165,194.468018 175.468964,193.921600 176.103165,193.175140 
	C177.090103,192.649902 177.558624,192.324707 178.409027,192.005798 
	C180.527878,192.340775 182.264847,192.669479 184.352036,192.996368 
	C185.800690,192.662155 186.899124,192.329742 188.302826,192.124588 
	C189.346359,192.059265 190.084641,191.866684 190.822922,191.674103 
	C189.880936,191.117096 188.938934,190.560074 187.702728,189.860962 
	C186.272751,189.146530 185.136993,188.574188 184.072540,187.633759 
	C184.955338,186.841522 186.074249,186.623932 186.523026,185.956055 
	C188.134552,183.557755 189.976425,181.158401 190.864975,178.472839 
	C191.800583,175.645035 189.677307,174.314224 187.000397,173.665970 
	C187.000320,172.887955 187.000473,172.443375 187.333557,171.999008 
	C188.110382,171.998886 188.554276,171.998535 189.427856,171.998718 
	C196.449768,171.869751 196.969070,170.923386 195.531677,161.807022 
	C194.325211,161.531128 193.161667,161.265045 191.971680,160.675583 
	C191.283585,159.564590 190.621933,158.776978 189.965958,157.657867 
	C189.977295,156.884338 189.982956,156.442291 190.335907,155.947052 
	C191.116943,154.919495 191.550674,153.945145 191.984604,152.553833 
	C192.646698,149.750870 193.308624,147.364822 194.279968,145.137726 
	C196.950882,148.047180 199.299667,150.860367 203.399994,147.000000 
	C204.866653,147.000000 205.933334,147.000000 207.395691,146.999268 
	C213.125931,146.012924 214.087036,143.017990 211.000000,136.550018 
	C211.000000,133.400024 211.000000,130.700012 211.301514,127.761337 
	C214.887756,120.222939 212.679886,109.481354 206.977295,104.583710 
	C207.987030,100.785973 208.990280,97.390846 210.356674,94.004074 
	C211.171204,95.173431 211.448929,96.448921 212.119217,97.465591 
	C212.905136,98.657639 214.032516,99.624550 215.011795,100.689102 
	C216.002304,99.616783 217.740768,98.577377 217.789780,97.463638 
	C217.848099,96.138130 216.263580,94.817230 215.747894,93.367348 
	C215.260025,91.995628 215.234451,90.459488 215.282150,89.199806 
	C216.631683,90.205231 217.704636,91.006508 218.777573,91.807785 
	C219.184845,90.871857 219.592117,89.935928 220.337769,88.998199 
	C221.450958,88.663651 222.225784,88.330910 223.380829,87.917084 
	C225.408142,85.040115 226.558640,82.292458 222.875275,79.706833 
	C222.499954,78.608208 222.249985,77.804581 222.250000,77.000595 
	C222.666672,77.000061 222.833328,76.999878 223.392914,76.992798 
	C225.172058,76.043762 227.393341,75.376175 227.808121,74.114632 
	C230.381561,66.287506 228.988449,64.039917 220.996765,61.662796 
	C220.982346,60.882584 220.968704,60.436829 220.968124,59.985970 
	C220.981201,59.980862 220.977203,59.953072 221.348938,59.961838 
	C222.813980,58.313683 223.907288,56.656765 225.381714,54.919464 
	C226.175369,52.558876 226.587906,50.278667 227.343140,48.147972 
	C229.456360,47.865417 231.226898,47.433338 233.373016,47.000870 
	C234.499817,46.999882 235.251038,46.999287 236.334900,46.998695 
	C237.111099,46.998730 237.554626,46.998756 238.248932,46.999519 
	C238.666870,47.000595 238.834045,47.000938 239.000977,47.334267 
	C239.000702,48.111237 239.000656,48.555222 238.990967,49.416672 
	C237.348572,55.196133 237.275909,60.350460 240.684204,65.166801 
	C240.245590,67.556145 240.122803,69.778069 239.953400,72.382614 
	C239.272156,75.079712 238.417496,77.360847 238.060272,79.717392 
	C237.641769,82.478233 238.840408,83.986908 241.946915,84.020988 
	C245.878006,84.064110 249.804657,84.515053 254.176834,84.821167 
	C252.483337,91.841743 257.883057,92.513542 261.041992,95.247787 
	C261.053589,95.486580 261.058472,95.964706 260.760925,96.213936 
	C259.977936,98.200241 258.988403,99.978470 259.126099,101.664665 
	C259.328583,104.144150 260.335663,106.557922 260.997437,109.348633 
	C260.329926,110.798477 259.664948,111.899391 258.688171,112.871307 
	C254.993774,111.922211 254.775024,114.736588 255.214355,116.391014 
	C255.595856,117.827690 257.672516,118.814224 259.119598,120.266296 
	C259.826141,121.021935 260.413055,121.510963 260.994324,122.377350 
	C260.704834,124.244545 260.421021,125.734375 260.052032,127.671242 
	C261.661438,127.397400 262.830719,127.198441 264.000183,127.415878 
	C264.854248,129.212524 265.476593,131.492401 266.610596,131.784256 
	C268.915619,132.377518 270.214172,130.975616 269.462036,128.296860 
	C269.411041,128.115280 271.105804,127.443535 272.034607,127.370277 
	C273.055237,130.825409 274.029938,133.910019 274.992310,137.380981 
	C271.721619,140.497864 268.679291,143.369797 269.061127,148.153229 
	C269.268890,150.756424 270.212982,153.481094 269.702911,155.915939 
	C269.058502,158.992203 270.269196,159.887131 272.614288,161.134232 
	C273.744019,161.735016 274.378784,163.943695 274.523926,165.491196 
	C274.628235,166.603378 273.550476,167.826416 272.640228,169.066193 
	C272.164185,170.658417 271.458496,173.190491 272.037537,173.529739 
	C274.124664,174.752533 276.644684,175.236389 279.260071,176.106598 
	C280.012604,176.476288 280.506317,176.738754 281.040039,177.356873 
	C284.011810,183.508835 285.633698,176.626617 288.365204,176.996552 
	C289.205536,176.977859 289.685547,176.959778 290.165558,176.941696 
	C290.435577,177.435883 290.705597,177.930069 290.680725,178.978668 
	C290.257965,181.022141 290.130066,182.511200 289.622864,184.049179 
	C287.935364,188.251480 285.642517,192.386185 285.563263,196.562866 
	C285.459656,202.024536 287.106323,207.519409 287.843475,213.359344 
	C287.457977,215.812454 287.228973,217.906235 286.853638,220.337189 
	C285.153534,224.288605 286.473816,226.190979 291.199158,227.059555 
	C292.502472,221.692154 293.698334,216.491272 295.080292,211.340317 
	C295.318207,210.453476 296.347351,209.778946 297.051514,209.385101 
	C296.719666,213.020920 296.588989,216.330978 295.890656,219.516602 
	C295.418518,221.670242 293.620392,223.747513 297.271606,225.189667 
	C298.897461,227.036987 300.190216,228.146103 301.325073,224.951950 
	C302.098053,224.269592 302.549652,223.626862 303.281006,223.195435 
	C304.694092,226.270935 305.827362,229.135162 306.556030,232.000687 
	C304.885071,232.541107 303.046692,232.724731 302.452087,233.681396 
	C299.978058,237.661850 301.357635,244.021622 305.000763,247.428467 
	C305.000214,249.571289 305.000092,251.285645 305.000000,253.399994 
	C305.000000,254.866653 305.000000,255.933334 304.554565,257.000000 
	C256.739227,256.999573 209.369308,256.999176 162.039276,256.635864 
	C165.928970,250.277267 165.913330,248.209869 161.994598,244.613434 
	C161.995285,242.813095 161.995285,241.397461 161.995285,239.851562 
	C163.232895,240.323608 164.112473,240.659119 165.278748,241.115143 
	C166.711105,241.156509 167.856781,241.077347 169.362457,240.931946 
	C171.104431,236.092346 168.900772,232.077866 167.262360,227.793915 
	C167.679810,226.724335 167.834290,225.860214 167.994080,224.997437 
	C167.999390,224.998795 167.992783,224.988235 168.368820,224.992493 
	C169.496567,224.997818 170.248291,224.998901 171.000000,225.429535 
	C172.094803,231.320114 173.101135,236.802170 174.388046,242.217560 
	C174.563721,242.956818 176.240631,243.927292 177.041885,243.783630 
	C178.083740,243.596817 179.785690,242.325302 179.724426,241.656006 
	C179.548477,239.734131 178.627548,237.880478 177.994720,235.632874 
	C176.993790,233.844788 175.997513,232.423828 174.963013,230.641022 
	C173.616531,228.519440 172.308273,226.759720 171.035370,224.645538 
	C171.380692,221.860657 171.690643,219.430206 172.254303,216.831757 
	C173.005463,215.775620 173.502945,214.887512 174.401917,213.999542 
	C176.413986,213.369400 178.024567,212.739136 179.635147,212.108856 
	C178.422333,211.406921 177.209518,210.704987 175.724899,209.770950 
	C175.300842,208.360245 175.148605,207.181656 175.242508,205.725586 
	C176.648361,204.401764 177.808060,203.355392 178.967758,202.309036 
	C177.979919,201.539566 176.992096,200.770096 176.004761,199.667099 
	C176.008667,198.888916 176.012100,198.444229 176.311630,197.960846 
	C176.926941,197.518814 177.246170,197.115494 177.565399,196.712189 
	C177.055603,196.475601 176.545807,196.239014 175.953918,195.799973 
	C175.724411,195.333450 175.512909,195.139084 175.237350,195.014420 
M256.296356,99.431671 
	C256.010681,99.704384 255.724976,99.977089 255.439285,100.249802 
	C255.552353,100.368034 255.757507,100.595276 255.765228,100.588753 
	C256.066559,100.334244 256.349884,100.058441 256.296356,99.431671 
z"/>
<path fill="#D84C36" opacity="1.000000" stroke="none" 
	d="
M710.020203,259.898682 
	C707.707642,251.140167 705.445435,242.367905 703.059692,233.629349 
	C701.975586,229.658203 700.744080,225.720566 699.412170,221.824921 
	C693.823792,205.479706 688.091064,189.183411 682.581360,172.811951 
	C680.183777,165.687759 678.266907,158.403336 676.008362,151.230560 
	C671.392700,136.572113 666.758545,121.918793 661.998840,107.306770 
	C659.919983,100.924866 657.581055,94.624161 655.209045,88.343689 
	C654.599670,86.730209 653.416870,85.333275 653.343262,83.664680 
	C652.906433,81.315521 652.674683,78.905281 651.996460,76.628029 
	C649.368896,67.805939 646.799988,58.956600 643.786438,50.263973 
	C642.534119,46.651516 640.986694,42.499012 638.235779,40.176483 
	C631.651062,34.617290 625.228699,36.624878 622.133057,44.923538 
	C619.048096,53.193645 616.572266,61.695805 613.981873,70.143021 
	C613.031311,73.242935 612.517761,76.476868 611.662476,80.283058 
	C611.519043,80.361366 609.693848,80.734543 609.396729,81.620338 
	C607.415833,87.524948 605.862854,93.571365 603.974854,99.509369 
	C601.659851,106.789940 598.994019,113.962456 596.828125,121.284714 
	C596.189331,123.444489 596.729736,125.953079 596.729736,128.467422 
	C596.305420,128.338303 595.470276,128.084183 595.007263,127.943283 
	C592.075195,136.226151 588.998413,144.438553 586.272217,152.765717 
	C583.959412,159.830215 582.105530,167.043625 579.948914,174.160934 
	C577.861328,181.050079 575.738342,187.931183 573.466980,194.761307 
	C569.626526,206.310272 565.682373,217.825119 561.703735,229.327271 
	C561.285706,230.535782 560.343628,231.563019 559.324036,232.838776 
	C563.449524,218.907410 567.800354,204.780731 572.358643,190.721329 
	C588.154663,142.000626 603.990601,93.292801 619.891663,44.606323 
	C622.971863,35.175205 633.230591,32.136311 639.972168,38.700214 
	C641.877380,40.555195 643.122192,43.376308 643.974182,45.981815 
	C656.740234,85.022499 669.378235,124.105011 682.070312,163.169922 
	C691.884216,193.376068 701.737854,223.569290 711.551392,253.775528 
	C712.320435,256.142700 712.913574,258.566986 713.565430,261.308838 
	C713.159180,261.414215 712.775818,261.175476 712.001343,260.649170 
	C711.080139,260.207306 710.550171,260.052979 710.020203,259.898682 
z"/>
<path fill="#D84C36" opacity="1.000000" stroke="none" 
	d="
M306.960632,231.999390 
	C305.827362,229.135162 304.694092,226.270935 303.281067,222.951172 
	C303.001343,222.495621 303.000000,222.006714 302.998901,221.634064 
	C302.987244,220.516190 302.976715,219.770950 302.875000,218.803558 
	C302.599884,218.303482 302.349701,218.112274 302.021240,217.671494 
	C301.673340,216.564957 301.337433,215.794693 300.997955,214.694717 
	C300.984833,213.926254 300.975311,213.487503 301.213562,213.032990 
	C301.461304,213.017212 301.957001,212.988342 301.957001,212.988342 
	C306.668365,227.117798 311.534943,241.198761 315.974487,255.413116 
	C316.996368,258.684967 318.501801,259.504059 321.590576,259.501740 
	C396.221863,259.445557 470.853210,259.436218 545.484436,259.512238 
	C548.894226,259.515717 550.494446,258.412079 551.447754,255.078110 
	C553.319763,248.530655 555.699402,242.128357 558.068420,235.351959 
	C559.267334,240.136566 558.341431,244.802048 555.357422,249.111954 
	C554.672791,250.100815 553.864868,252.175369 554.260986,252.555801 
	C557.367554,255.539612 553.709961,257.079102 552.716980,259.617706 
	C551.232849,260.676788 550.112671,261.336456 548.992554,261.996155 
	C545.104858,261.667358 541.217346,261.055084 537.329346,261.051880 
	C467.134399,260.994080 396.939392,260.999329 326.744415,261.050659 
	C324.127655,261.052582 321.511322,261.655884 318.273041,261.727417 
	C316.438934,260.952850 315.226624,260.429871 314.013641,259.589539 
	C314.011169,258.848145 314.009369,258.424072 314.005737,257.600891 
	C311.656128,248.801010 309.308380,240.400208 306.960632,231.999390 
z"/>
<path fill="#CD5847" opacity="1.000000" stroke="none" 
	d="
M261.058472,95.964706 
	C261.058472,95.964706 261.053589,95.486580 261.041718,94.837494 
	C258.372070,86.113319 255.714325,78.038231 253.045822,69.637199 
	C253.028351,68.876114 253.021622,68.440979 253.015411,67.666840 
	C252.694748,66.538422 252.373581,65.749001 252.042542,64.563606 
	C251.370346,61.772396 250.708054,59.377171 250.031204,56.736618 
	C250.016663,56.491299 249.971375,56.001884 249.833710,55.667694 
	C248.803894,52.886723 247.911743,50.439941 247.010651,47.634804 
	C246.041809,46.147018 245.081924,45.017586 244.095581,43.551598 
	C243.398895,42.129517 242.728653,41.043995 241.876831,39.640945 
	C238.211517,36.530262 234.660553,35.459194 230.662292,39.045059 
	C229.589081,39.782200 228.786911,40.377586 227.629059,41.047333 
	C226.843842,42.416199 226.414322,43.710705 225.978882,45.330170 
	C225.961517,46.087627 225.950089,46.520126 225.568573,47.042664 
	C224.777008,49.078533 224.355545,51.024364 223.629227,53.143959 
	C222.541977,55.529503 221.759583,57.741287 220.977203,59.953072 
	C220.977203,59.953072 220.981201,59.980862 220.737457,60.081520 
	C220.317566,60.790390 220.141403,61.398594 219.961761,62.334518 
	C219.952988,63.099182 219.947678,63.536133 219.634003,64.152786 
	C218.880386,65.887146 218.435120,67.441795 217.862701,69.287895 
	C216.876938,70.389641 216.018356,71.199944 215.159760,72.010254 
	C218.264557,62.230694 221.220795,52.400372 224.537170,42.693085 
	C226.180817,37.881966 231.283585,34.980354 236.346390,35.246162 
	C241.658997,35.525089 245.669235,38.622631 247.543457,44.307953 
	C252.783127,60.202171 257.914459,76.132118 263.082733,92.049850 
	C263.747223,94.096428 264.377319,96.154175 264.758484,98.601715 
	C264.493622,98.996689 264.002441,98.998886 263.952576,98.682098 
	C262.954620,97.565117 262.006531,96.764915 261.058472,95.964706 
z"/>
<path fill="#D94A33" opacity="1.000000" stroke="none" 
	d="
M264.002441,98.998886 
	C264.002441,98.998886 264.493622,98.996689 264.739136,98.993431 
	C271.981659,120.269150 278.989716,141.544510 285.966766,162.830017 
	C287.415466,167.249771 288.749390,171.707138 290.150879,176.544434 
	C289.685547,176.959778 289.205536,176.977859 288.362366,176.601212 
	C287.960541,175.545242 288.046783,174.847153 287.864105,174.228455 
	C285.841278,167.378098 283.807983,160.530273 281.675171,153.713791 
	C281.461517,153.030960 280.575287,152.558578 279.998322,151.639679 
	C279.664032,150.195328 279.332611,149.099792 278.999268,147.665298 
	C278.665802,146.547653 278.334290,145.768982 277.999512,144.642700 
	C277.336029,143.196411 276.675873,142.097733 276.012756,140.633347 
	C275.674713,139.176636 275.339691,138.085632 275.004639,136.994629 
	C274.029938,133.910019 273.055237,130.825409 272.032532,126.992424 
	C270.659515,122.826241 269.334534,119.408432 268.007477,115.616852 
	C268.000000,114.494987 267.994629,113.746895 267.884399,112.778870 
	C267.583130,112.283440 267.322876,112.096985 266.740601,111.892303 
	C265.990875,111.521378 265.499298,111.257721 265.158508,110.649200 
	C266.274963,107.320229 266.842804,104.461678 263.002686,102.628754 
	C263.336090,101.175163 263.669281,100.087029 264.002441,98.998886 
z"/>
<path fill="#D7503A" opacity="1.000000" stroke="none" 
	d="
M193.970551,144.978790 
	C193.308624,147.364822 192.646698,149.750870 191.641449,152.614929 
	C190.861618,154.062042 190.425110,155.031158 189.988602,156.000259 
	C189.982956,156.442291 189.977295,156.884338 189.689804,157.871399 
	C187.946823,161.946365 186.485672,165.476303 185.010864,169.374573 
	C184.665665,171.162033 184.334137,172.581146 184.001144,174.331177 
	C183.994980,175.102875 183.990280,175.543701 183.768143,176.095139 
	C183.280106,176.406158 183.091248,176.665985 182.709000,177.241592 
	C180.958847,181.340195 179.483841,185.182465 177.800568,189.023407 
	C177.592300,189.022110 177.175827,189.013489 177.175842,189.013489 
	C182.916962,171.047684 188.638275,153.075516 194.409561,135.119400 
	C196.536682,128.501343 198.781616,121.921165 201.465805,115.195511 
	C201.968735,116.706474 201.978714,118.345627 201.700714,120.211235 
	C200.933563,122.622223 200.454391,124.806755 199.603119,127.071884 
	C198.812317,129.093307 198.393646,131.034149 197.705597,133.228729 
	C196.281006,137.314590 195.125778,141.146698 193.970551,144.978790 
z"/>
<path fill="#E3432A" opacity="1.000000" stroke="none" 
	d="
M215.057373,72.360542 
	C216.018356,71.199944 216.876938,70.389641 218.226746,69.350296 
	C219.811996,71.747826 220.906006,74.374390 222.000000,77.000961 
	C222.249985,77.804581 222.499954,78.608208 222.875275,80.150742 
	C223.000610,83.259155 223.000610,85.628662 223.000610,87.998169 
	C222.225784,88.330910 221.450958,88.663651 220.053818,88.731628 
	C217.831467,86.554611 221.204514,82.004311 216.001266,82.001373 
	C216.000000,82.000000 215.997513,81.997253 216.028107,81.663132 
	C215.706635,80.219261 215.354538,79.109520 214.904190,77.548492 
	C214.683228,76.814796 214.560501,76.532402 214.437759,76.250000 
	C214.610184,75.070274 214.782593,73.890556 215.057373,72.360542 
z"/>
<path fill="#D94A33" opacity="1.000000" stroke="none" 
	d="
M164.992065,240.994629 
	C164.112473,240.659119 163.232895,240.323608 161.995285,239.851562 
	C161.995285,241.397461 161.995285,242.813095 161.683563,244.778870 
	C160.272888,246.908920 159.173950,248.488846 157.923462,249.931519 
	C157.771896,249.794296 157.452179,249.539337 157.452179,249.539337 
	C160.784668,239.177795 164.117142,228.816238 167.726028,218.577286 
	C168.009857,219.466660 168.017273,220.233444 168.018219,221.250153 
	C168.012421,221.666779 168.013077,221.833450 168.010254,222.373749 
	C168.002136,223.494339 167.997467,224.241287 167.992783,224.988235 
	C167.992783,224.988235 167.999390,224.998795 167.775879,225.104950 
	C167.281036,225.409714 167.092407,225.668579 166.711655,226.241760 
	C165.956268,228.994171 165.475708,231.492538 164.722107,234.231201 
	C164.630081,236.645889 164.811066,238.820251 164.992065,240.994629 
z"/>
<path fill="#D7503A" opacity="1.000000" stroke="none" 
	d="
M209.993530,93.995728 
	C208.990280,97.390846 207.987030,100.785973 206.704956,104.794250 
	C205.943954,106.934090 205.461792,108.460770 204.716995,110.202934 
	C203.495865,111.633209 202.537354,112.848007 201.578842,114.062805 
	C205.244019,102.562996 208.909180,91.063179 213.014954,79.393753 
	C213.722961,79.423355 213.905807,79.682297 214.001801,80.332489 
	C213.995758,81.105911 213.991989,81.547813 213.720062,82.218765 
	C212.969055,84.297485 212.486206,86.147141 212.000641,88.242264 
	C211.997910,88.487717 211.993286,88.978645 211.678375,89.153214 
	C210.906845,90.883759 210.450195,92.439743 209.993530,93.995728 
z"/>
<path fill="#DD482D" opacity="1.000000" stroke="none" 
	d="
M201.454376,114.209816 
	C202.537354,112.848007 203.495865,111.633209 205.062408,110.397812 
	C208.241226,115.587425 207.508545,121.494331 203.867615,123.816940 
	C203.235687,122.528114 202.612183,121.256447 201.988678,119.984779 
	C201.978714,118.345627 201.968735,116.706474 201.644623,114.904694 
	C201.330475,114.742058 201.329926,114.356827 201.454376,114.209816 
z"/>
<path fill="#D94A33" opacity="1.000000" stroke="none" 
	d="
M301.967743,212.602509 
	C301.957001,212.988342 301.461304,213.017212 300.865112,212.950272 
	C299.516296,211.254974 298.763641,209.626617 298.008972,207.607758 
	C297.337555,205.143768 296.668182,203.070282 295.971191,200.714844 
	C294.966095,200.285950 293.988525,200.139008 293.042725,199.649628 
	C293.711731,197.874008 294.349030,196.440811 294.987244,194.681061 
	C294.968262,193.919891 294.948395,193.485291 295.026154,192.972351 
	C295.123779,192.893982 295.319641,192.737976 295.319641,192.737976 
	C297.539246,199.230881 299.758881,205.723785 301.967743,212.602509 
z"/>
<path fill="#D94A33" opacity="1.000000" stroke="none" 
	d="
M176.015549,197.999557 
	C176.012100,198.444229 176.008667,198.888916 175.696655,199.826294 
	C174.596725,202.211044 173.805389,204.103088 172.849884,206.364441 
	C172.456329,209.489792 172.226944,212.245819 171.609924,215.001434 
	C170.446472,215.001968 169.670685,215.002884 168.894897,215.003799 
	C170.883591,208.554901 172.872299,202.106003 175.049179,195.335754 
	C175.512909,195.139084 175.724411,195.333450 175.943115,196.132675 
	C176.014771,197.111725 176.015167,197.555649 176.015549,197.999557 
z"/>
<path fill="#E3432A" opacity="1.000000" stroke="none" 
	d="
M168.816986,215.099854 
	C169.670685,215.002884 170.446472,215.001968 171.610474,215.334412 
	C171.999313,216.111771 171.999954,216.555771 172.000610,216.999771 
	C171.690643,219.430206 171.380692,221.860657 171.035370,224.645538 
	C170.248291,224.998901 169.496567,224.997818 168.368820,224.992493 
	C167.997467,224.241287 168.002136,223.494339 168.174362,222.284973 
	C168.404434,221.716278 168.545029,221.552826 168.516205,221.513458 
	C168.377441,221.324020 168.192963,221.168060 168.024689,221.000229 
	C168.017273,220.233444 168.009857,219.466660 167.976730,218.317017 
	C167.951019,217.934158 167.989120,217.970734 168.255905,217.758240 
	C168.627731,216.838043 168.732788,216.130371 168.837830,215.422684 
	C168.837830,215.422684 168.739075,215.195908 168.816986,215.099854 
z"/>
<path fill="#D94A33" opacity="1.000000" stroke="none" 
	d="
M290.002136,184.000244 
	C290.130066,182.511200 290.257965,181.022141 290.651367,179.275330 
	C292.367371,183.329407 293.817902,187.641251 295.294037,192.345535 
	C295.319641,192.737976 295.123779,192.893982 294.752808,192.808212 
	C293.917206,191.813156 293.452545,190.903885 292.952209,189.642197 
	C291.945068,187.526611 290.973602,185.763428 290.002136,184.000244 
z"/>
<path fill="#D94A33" opacity="1.000000" stroke="none" 
	d="
M155.106537,260.078705 
	C155.106537,260.078705 154.685349,260.010040 154.472076,260.006775 
	C155.202271,256.719818 156.145752,253.436111 157.270706,249.845871 
	C157.452179,249.539337 157.771896,249.794296 157.901794,250.322754 
	C158.348358,252.895523 158.665024,254.939835 158.664093,257.025208 
	C157.571182,258.019348 156.795898,258.972382 155.790619,259.954987 
	C155.560638,259.984558 155.106537,260.078705 155.106537,260.078705 
z"/>
<path fill="#D94A33" opacity="1.000000" stroke="none" 
	d="
M177.011185,189.323547 
	C177.175827,189.013489 177.592300,189.022110 177.801453,189.394745 
	C178.016129,190.511429 178.021652,191.255478 178.027161,191.999527 
	C177.558624,192.324707 177.090103,192.649902 176.322510,192.990356 
	C176.297806,191.881622 176.572174,190.757614 177.011185,189.323547 
z"/>
<path fill="#D84C36" opacity="1.000000" stroke="none" 
	d="
M214.004074,80.000961 
	C213.905807,79.682297 213.722961,79.423355 213.239807,79.116867 
	C213.325348,78.226051 213.626678,77.442528 214.182877,76.454498 
	C214.560501,76.532402 214.683228,76.814796 214.881836,77.845741 
	C214.639847,79.063187 214.321960,79.532074 214.004074,80.000961 
z"/>
<path fill="#D94A33" opacity="1.000000" stroke="none" 
	d="
M168.568390,215.661682 
	C168.732788,216.130371 168.627731,216.838043 168.230652,217.763672 
	C168.058731,217.287964 168.178848,216.594330 168.568390,215.661682 
z"/>
<path fill="#FCA229" opacity="1.000000" stroke="none" 
	d="
M435.131836,616.600342 
	C434.900024,616.595459 434.920868,616.182739 435.168274,616.012695 
	C435.415680,615.842651 435.773071,615.763916 435.773071,615.763916 
	C435.773071,615.763916 435.824249,615.817627 435.848724,615.845337 
	C435.843628,616.214844 435.673767,616.458862 435.131836,616.600342 
z"/>
<path fill="#FC6E26" opacity="1.000000" stroke="none" 
	d="
M435.889557,615.446655 
	C435.773071,615.763916 435.415680,615.842651 435.234741,615.817017 
	C437.100372,608.483398 438.904358,601.096802 441.241150,593.882751 
	C447.162750,575.601868 453.386444,557.419006 459.368530,539.157410 
	C464.215942,524.359619 468.855774,509.493927 473.646484,494.677368 
	C478.895447,478.443542 484.179504,462.220856 489.508392,446.013092 
	C494.420471,431.072968 499.505066,416.189026 504.347168,401.226471 
	C511.630707,378.719757 518.734192,356.154846 525.978638,333.635437 
	C533.583130,309.997131 541.263550,286.383270 548.951660,262.377411 
	C550.112671,261.336456 551.232849,260.676788 552.678833,259.960815 
	C605.029663,259.922485 657.054626,259.940460 709.549927,259.928558 
	C710.550171,260.052979 711.080139,260.207306 711.785034,260.571991 
	C699.705994,276.624390 687.454895,292.468628 675.197083,308.307739 
	C666.374084,319.708435 657.614685,331.159393 648.698669,342.487000 
	C631.897949,363.832062 614.936462,385.050781 598.176880,406.427979 
	C588.983337,418.154572 580.142273,430.156952 571.002197,441.926147 
	C561.652649,453.964996 552.088989,465.837250 542.699280,477.845184 
	C534.547302,488.270264 526.562927,498.826447 518.406433,509.247986 
	C502.683777,529.336914 486.846680,549.336365 471.145569,569.442078 
	C461.662201,581.585815 452.344910,593.859192 442.954254,606.075317 
	C440.635712,609.091431 438.321991,612.111267 435.889557,615.446655 
z"/>
<path fill="#FC6E26" opacity="1.000000" stroke="none" 
	d="
M155.216370,260.387329 
	C155.106537,260.078705 155.560638,259.984558 156.256317,259.978210 
	C209.306091,259.950226 261.660187,259.928558 314.014282,259.906860 
	C315.226624,260.429871 316.438934,260.952850 317.853638,261.740723 
	C323.225098,278.047058 328.365448,294.097900 333.569702,310.127960 
	C342.571777,337.855865 351.560059,365.588440 360.654785,393.286011 
	C368.513733,417.219849 376.613068,441.075012 384.416504,465.026733 
	C390.212036,482.815521 395.611603,500.733063 401.360321,518.537476 
	C405.993866,532.887878 411.039795,547.105835 415.622681,561.471863 
	C420.901367,578.018982 425.872192,594.664246 430.935852,611.674438 
	C428.212128,609.482788 425.174011,607.159607 422.905060,604.238892 
	C409.998535,587.625244 397.380920,570.786926 384.455566,554.188171 
	C374.883118,541.895142 364.869232,529.946350 355.272552,517.671692 
	C342.415222,501.226532 329.815735,484.580017 317.022705,468.084198 
	C303.916443,451.184570 290.677307,434.388000 277.558136,417.498322 
	C266.987122,403.889069 256.592224,390.142456 245.965729,376.576996 
	C234.421692,361.840271 222.598099,347.322205 211.082916,332.563293 
	C197.730881,315.450134 184.605789,298.160095 171.332794,280.985016 
	C166.065521,274.169250 160.665680,267.455933 155.216370,260.387329 
z"/>
<path fill="#E34627" opacity="1.000000" stroke="none" 
	d="
M314.013641,259.589539 
	C261.660187,259.928558 209.306091,259.950226 156.486298,259.948669 
	C156.795898,258.972382 157.571182,258.019348 159.041687,257.031006 
	C160.491043,256.996704 161.245224,256.997742 161.999390,256.998779 
	C209.369308,256.999176 256.739227,256.999573 304.778107,257.264771 
	C308.300568,257.686371 311.154053,257.843170 314.007568,258.000000 
	C314.009369,258.424072 314.011169,258.848145 314.013641,259.589539 
z"/>
<path fill="#E3432A" opacity="1.000000" stroke="none" 
	d="
M249.971375,56.001884 
	C249.971375,56.001884 250.016663,56.491299 249.768707,56.954506 
	C248.183044,63.745201 246.845367,70.072685 245.455154,76.648582 
	C248.985260,77.142975 250.923630,76.258797 250.749268,72.294670 
	C250.716629,71.552765 252.247345,70.742088 253.056580,69.963150 
	C255.714325,78.038231 258.372070,86.113319 261.030121,94.598694 
	C257.883057,92.513542 252.483337,91.841743 254.176834,84.821167 
	C249.804657,84.515053 245.878006,84.064110 241.946915,84.020988 
	C238.840408,83.986908 237.641769,82.478233 238.060272,79.717392 
	C238.417496,77.360847 239.272156,75.079712 240.351532,72.369324 
	C243.813538,69.652023 243.870316,67.708412 241.000000,64.999390 
	C237.275909,60.350460 237.348572,55.196133 239.362701,49.416897 
	C240.857956,48.999653 241.971848,48.999653 243.015289,48.999653 
	C243.378433,47.123440 243.678741,45.571865 244.014404,43.986843 
	C244.049774,43.953400 244.122040,43.888149 244.122040,43.888153 
	C245.081924,45.017586 246.041809,46.147018 246.690216,47.801743 
	C242.507095,54.846386 241.953857,58.693359 244.537781,62.543171 
	C245.329285,59.387951 244.913544,55.258469 249.971375,56.001884 
z"/>
<path fill="#E3432A" opacity="1.000000" stroke="none" 
	d="
M201.700714,120.211235 
	C202.612183,121.256447 203.235687,122.528114 203.867615,123.816940 
	C207.508545,121.494331 208.241226,115.587425 205.325043,110.182335 
	C205.461792,108.460770 205.943954,106.934090 206.698456,105.196869 
	C212.679886,109.481354 214.887756,120.222939 210.953247,127.610092 
	C209.207382,128.272293 207.412354,128.636627 207.162552,129.466217 
	C206.662170,131.128082 207.057938,133.046295 206.991974,134.855331 
	C206.864075,138.362900 208.589050,138.295807 211.000000,137.000000 
	C214.087036,143.017990 213.125931,146.012924 207.394989,146.599503 
	C206.344879,144.421616 205.691132,142.642761 205.037384,140.863922 
	C204.358261,141.042160 203.679123,141.220413 203.000000,141.398666 
	C203.000000,143.265778 203.000000,145.132889 203.000000,147.000000 
	C199.299667,150.860367 196.950882,148.047180 194.279968,145.137726 
	C195.125778,141.146698 196.281006,137.314590 198.064117,133.293625 
	C199.838684,133.725845 200.985367,134.346954 202.467438,135.149719 
	C203.143646,131.489227 204.034500,128.442429 199.975220,126.991287 
	C200.454391,124.806755 200.933563,122.622223 201.700714,120.211235 
z"/>
<path fill="#E3432A" opacity="1.000000" stroke="none" 
	d="
M274.992310,137.380981 
	C275.339691,138.085632 275.674713,139.176636 275.746704,140.837387 
	C275.233643,145.511017 274.983643,149.614883 274.669006,154.779617 
	C277.511963,153.291504 278.756592,152.640015 280.001221,151.988525 
	C280.575287,152.558578 281.461517,153.030960 281.675171,153.713791 
	C283.807983,160.530273 285.841278,167.378098 287.864105,174.228455 
	C288.046783,174.847153 287.960541,175.545242 288.002014,176.601807 
	C285.633698,176.626617 284.011810,183.508835 281.412323,177.280411 
	C282.233948,174.876144 282.723389,172.904007 283.247192,170.793243 
	C278.219513,170.661713 279.083649,173.625061 279.001221,175.999359 
	C276.644684,175.236389 274.124664,174.752533 272.037537,173.529739 
	C271.458496,173.190491 272.164185,170.658417 272.640625,169.438522 
	C273.269745,170.930008 273.538635,172.115372 273.807556,173.300720 
	C274.369293,173.029648 274.931000,172.758560 275.492737,172.487488 
	C274.661835,171.324982 273.830902,170.162491 273.000000,169.000000 
	C273.550476,167.826416 274.628235,166.603378 274.523926,165.491196 
	C274.378784,163.943695 273.744019,161.735016 272.614288,161.134232 
	C270.269196,159.887131 269.058502,158.992203 269.702911,155.915939 
	C270.212982,153.481094 269.268890,150.756424 269.061127,148.153229 
	C268.679291,143.369797 271.721619,140.497864 274.992310,137.380981 
M281.345886,164.627701 
	C281.420258,164.880981 281.494659,165.134247 281.569031,165.387527 
	C281.850433,165.112610 282.131805,164.837708 282.413208,164.562790 
	C282.161713,164.482147 281.910217,164.401520 281.345886,164.627701 
M282.413757,168.483170 
	C282.413757,168.483170 282.522797,168.418427 282.413757,168.483170 
z"/>
<path fill="#E3432A" opacity="1.000000" stroke="none" 
	d="
M289.622864,184.049179 
	C290.973602,185.763428 291.945068,187.526611 292.584198,189.717926 
	C289.373291,193.898392 291.152191,195.031021 294.986328,195.007629 
	C294.349030,196.440811 293.711731,197.874008 292.768280,199.877686 
	C291.964722,202.074387 291.467346,203.700592 290.969940,205.326797 
	C291.575745,205.635315 292.181549,205.943832 292.787354,206.252365 
	C293.857819,204.500504 294.928314,202.748657 295.998779,200.996796 
	C296.668182,203.070282 297.337555,205.143768 297.899170,207.826843 
	C297.593140,208.711105 297.333008,208.901077 297.010986,209.006348 
	C296.347351,209.778946 295.318207,210.453476 295.080292,211.340317 
	C293.698334,216.491272 292.502472,221.692154 291.199158,227.059555 
	C286.473816,226.190979 285.153534,224.288605 287.258850,220.335236 
	C288.867676,219.161865 290.944794,217.993561 290.800476,217.552994 
	C290.261017,215.906250 288.994080,214.497818 288.000000,213.000000 
	C287.106323,207.519409 285.459656,202.024536 285.563263,196.562866 
	C285.642517,192.386185 287.935364,188.251480 289.622864,184.049179 
z"/>
<path fill="#E3432A" opacity="1.000000" stroke="none" 
	d="
M314.005737,257.600891 
	C311.154053,257.843170 308.300568,257.686371 305.223541,257.264771 
	C305.000000,255.933334 305.000000,254.866653 305.346191,253.362671 
	C309.724518,250.453018 307.365143,248.726242 305.001221,247.000000 
	C301.357635,244.021622 299.978058,237.661850 302.452087,233.681396 
	C303.046692,232.724731 304.885071,232.541107 306.556030,232.000687 
	C309.308380,240.400208 311.656128,248.801010 314.005737,257.600891 
z"/>
<path fill="#E3432A" opacity="1.000000" stroke="none" 
	d="
M178.409027,192.005798 
	C178.021652,191.255478 178.016129,190.511429 178.009735,189.396057 
	C179.483841,185.182465 180.958847,181.340195 182.961502,177.245850 
	C183.657394,176.994217 183.825638,176.994675 184.245605,176.997223 
	C184.665161,176.999756 184.832977,177.000183 185.007385,177.350800 
	C185.379791,178.284973 185.745590,178.868958 186.111404,179.452942 
	C186.406799,178.303391 186.702179,177.153824 186.998657,175.670074 
	C186.999786,174.890640 186.999832,174.445389 186.999939,174.000061 
	C187.000000,174.000000 187.000610,173.999390 187.000610,173.999390 
	C189.677307,174.314224 191.800583,175.645035 190.864975,178.472839 
	C189.976425,181.158401 188.134552,183.557755 186.523026,185.956055 
	C186.074249,186.623932 184.955338,186.841522 184.072449,188.050095 
	C184.001312,190.222397 184.001572,191.610275 184.001831,192.998169 
	C182.264847,192.669479 180.527878,192.340775 178.409027,192.005798 
z"/>
<path fill="#E3432A" opacity="1.000000" stroke="none" 
	d="
M219.942352,63.973080 
	C219.947678,63.536133 219.952988,63.099182 220.220032,62.331615 
	C220.653687,61.999752 220.825623,61.998505 220.997559,61.997253 
	C228.988449,64.039917 230.381561,66.287506 227.808121,74.114632 
	C227.393341,75.376175 225.172058,76.043762 223.392914,76.560898 
	C221.980774,72.081627 220.961563,68.027351 219.942352,63.973080 
z"/>
<path fill="#E3432A" opacity="1.000000" stroke="none" 
	d="
M171.000000,225.429535 
	C172.308273,226.759720 173.616531,228.519440 174.963089,231.046921 
	C174.974670,233.944748 174.645294,236.291626 177.999390,236.000000 
	C178.627548,237.880478 179.548477,239.734131 179.724426,241.656006 
	C179.785690,242.325302 178.083740,243.596817 177.041885,243.783630 
	C176.240631,243.927292 174.563721,242.956818 174.388046,242.217560 
	C173.101135,236.802170 172.094803,231.320114 171.000000,225.429535 
z"/>
<path fill="#E3432A" opacity="1.000000" stroke="none" 
	d="
M210.356689,94.004074 
	C210.450195,92.439743 210.906845,90.883759 211.846497,89.070709 
	C212.392685,88.707199 212.533981,88.540985 212.505951,88.504364 
	C212.362411,88.316803 212.175278,88.162636 212.003372,87.996803 
	C212.486206,86.147141 212.969055,84.297485 214.055099,82.221939 
	C215.104706,81.996452 215.551117,81.996849 215.997513,81.997253 
	C215.997513,81.997253 216.000000,82.000000 215.993546,82.395988 
	C215.659912,84.859871 215.332733,86.927765 215.005554,88.995659 
	C215.234451,90.459488 215.260025,91.995628 215.747894,93.367348 
	C216.263580,94.817230 217.848099,96.138130 217.789780,97.463638 
	C217.740768,98.577377 216.002304,99.616783 215.011795,100.689102 
	C214.032516,99.624550 212.905136,98.657639 212.119217,97.465591 
	C211.448929,96.448921 211.171204,95.173431 210.356689,94.004074 
z"/>
<path fill="#E3432A" opacity="1.000000" stroke="none" 
	d="
M268.009552,115.990623 
	C269.334534,119.408432 270.659515,122.826241 271.986572,126.621902 
	C271.105804,127.443535 269.411041,128.115280 269.462036,128.296860 
	C270.214172,130.975616 268.915619,132.377518 266.610596,131.784256 
	C265.476593,131.492401 264.854248,129.212524 264.041199,127.050331 
	C265.391205,122.842461 266.700378,119.416542 268.009552,115.990623 
z"/>
<path fill="#E3432A" opacity="1.000000" stroke="none" 
	d="
M263.002441,102.994202 
	C266.842804,104.461678 266.274963,107.320229 264.877960,110.897057 
	C263.297791,114.993195 262.148895,118.496597 261.000000,122.000000 
	C260.413055,121.510963 259.826141,121.021935 259.119598,119.828842 
	C259.000000,117.083290 259.000000,115.041801 259.000000,113.000305 
	C259.664948,111.899391 260.329926,110.798477 261.157593,109.028503 
	C261.881042,106.571030 262.441742,104.782616 263.002441,102.994202 
z"/>
<path fill="#E14429" opacity="1.000000" stroke="none" 
	d="
M260.994324,122.377350 
	C262.148895,118.496597 263.297791,114.993195 264.727203,111.241928 
	C265.499298,111.257721 265.990875,111.521378 266.847717,112.110580 
	C267.409943,112.708908 267.668701,112.896469 267.989258,112.998795 
	C267.994629,113.746895 268.000000,114.494987 268.007477,115.616852 
	C266.700378,119.416542 265.391205,122.842461 264.041016,126.633926 
	C262.830719,127.198441 261.661438,127.397400 260.052032,127.671242 
	C260.421021,125.734375 260.704834,124.244545 260.994324,122.377350 
z"/>
<path fill="#DF462D" opacity="1.000000" stroke="none" 
	d="
M230.933319,38.903297 
	C234.660553,35.459194 238.211517,36.530262 241.563049,39.803219 
	C240.286621,42.521606 239.142395,44.760193 237.998169,46.998779 
	C237.554626,46.998756 237.111099,46.998730 236.299713,46.652840 
	C234.265701,43.839085 232.599503,41.371189 230.933319,38.903297 
z"/>
<path fill="#E3432A" opacity="1.000000" stroke="none" 
	d="
M191.998108,160.998962 
	C193.161667,161.265045 194.325211,161.531128 195.531677,161.807022 
	C196.969070,170.923386 196.449768,171.869751 189.435364,171.605255 
	C190.008163,167.807175 191.003128,164.403061 191.998108,160.998962 
z"/>
<path fill="#E3432A" opacity="1.000000" stroke="none" 
	d="
M162.039276,256.635864 
	C161.245224,256.997742 160.491043,256.996704 159.359283,256.989899 
	C158.665024,254.939835 158.348358,252.895523 158.053360,250.459991 
	C159.173950,248.488846 160.272888,246.908920 161.682861,245.163574 
	C165.913330,248.209869 165.928970,250.277267 162.039276,256.635864 
z"/>
<path fill="#DF462D" opacity="1.000000" stroke="none" 
	d="
M191.971680,160.675583 
	C191.003128,164.403061 190.008163,167.807175 189.005676,171.604736 
	C188.554276,171.998535 188.110382,171.998886 187.328369,171.646606 
	C186.335007,170.531403 185.679764,169.768829 185.024521,169.006256 
	C186.485672,165.476303 187.946823,161.946365 189.684113,158.202881 
	C190.621933,158.776978 191.283585,159.564590 191.971680,160.675583 
z"/>
<path fill="#E14429" opacity="1.000000" stroke="none" 
	d="
M263.002686,102.628754 
	C262.441742,104.782616 261.881042,106.571030 261.160156,108.679573 
	C260.335663,106.557922 259.328583,104.144150 259.126099,101.664665 
	C258.988403,99.978470 259.977936,98.200241 260.760925,96.213943 
	C262.006531,96.764915 262.954620,97.565117 263.952576,98.682098 
	C263.669281,100.087029 263.336090,101.175163 263.002686,102.628754 
z"/>
<path fill="#E3432A" opacity="1.000000" stroke="none" 
	d="
M230.662292,39.045059 
	C232.599503,41.371189 234.265701,43.839085 235.967072,46.652832 
	C235.251038,46.999287 234.499817,46.999882 233.002991,47.000538 
	C230.837051,46.335430 229.416687,45.670261 227.997681,44.602211 
	C227.994247,43.123878 227.989502,42.048424 227.984741,40.972969 
	C228.786911,40.377586 229.589081,39.782200 230.662292,39.045059 
z"/>
<path fill="#E14429" opacity="1.000000" stroke="none" 
	d="
M211.000000,136.550018 
	C208.589050,138.295807 206.864075,138.362900 206.991974,134.855331 
	C207.057938,133.046295 206.662170,131.128082 207.162552,129.466217 
	C207.412354,128.636627 209.207382,128.272293 210.651733,127.848755 
	C211.000000,130.700012 211.000000,133.400024 211.000000,136.550018 
z"/>
<path fill="#E3432A" opacity="1.000000" stroke="none" 
	d="
M302.966187,219.025726 
	C302.976715,219.770950 302.987244,220.516190 302.654877,221.684357 
	C301.875854,223.068726 301.439758,224.030151 301.003662,224.991577 
	C300.190216,228.146103 298.897461,227.036987 297.273010,224.802887 
	C298.335724,221.158295 299.668640,218.091354 301.001526,215.024414 
	C301.337433,215.794693 301.673340,216.564957 302.117126,217.889313 
	C302.413208,218.712418 302.660278,218.906509 302.966187,219.025726 
z"/>
<path fill="#DE472D" opacity="1.000000" stroke="none" 
	d="
M300.997925,214.694702 
	C299.668640,218.091354 298.335724,221.158295 297.001404,224.612000 
	C293.620392,223.747513 295.418518,221.670242 295.890656,219.516602 
	C296.588989,216.330978 296.719666,213.020920 297.051514,209.385101 
	C297.333008,208.901077 297.593140,208.711105 297.901184,208.217346 
	C298.763641,209.626617 299.516296,211.254974 300.617371,212.966034 
	C300.975311,213.487503 300.984833,213.926254 300.997925,214.694702 
z"/>
<path fill="#DF462D" opacity="1.000000" stroke="none" 
	d="
M164.995148,233.990906 
	C165.475708,231.492538 165.956268,228.994171 166.715881,226.577194 
	C166.996429,227.105515 166.997910,227.552460 166.999390,227.999390 
	C168.900772,232.077866 171.104431,236.092346 169.357910,240.569244 
	C167.660614,238.178802 166.327881,236.084854 164.995148,233.990906 
z"/>
<path fill="#DF462D" opacity="1.000000" stroke="none" 
	d="
M215.282135,89.199806 
	C215.332733,86.927765 215.659912,84.859871 215.994812,82.397362 
	C221.204514,82.004311 217.831467,86.554611 219.715454,88.733429 
	C219.592117,89.935928 219.184845,90.871857 218.777573,91.807785 
	C217.704636,91.006508 216.631683,90.205231 215.282135,89.199806 
z"/>
<path fill="#DF462D" opacity="1.000000" stroke="none" 
	d="
M219.634003,64.152786 
	C220.961563,68.027351 221.980774,72.081627 223.000000,76.567795 
	C222.833328,76.999878 222.666672,77.000061 222.250000,77.000595 
	C220.906006,74.374390 219.811996,71.747826 218.353928,69.058853 
	C218.435120,67.441795 218.880386,65.887146 219.634003,64.152786 
z"/>
<path fill="#E14429" opacity="1.000000" stroke="none" 
	d="
M258.688171,112.871307 
	C259.000000,115.041801 259.000000,117.083290 259.000000,119.562241 
	C257.672516,118.814224 255.595856,117.827690 255.214355,116.391014 
	C254.775024,114.736588 254.993774,111.922211 258.688171,112.871307 
z"/>
<path fill="#DF462D" opacity="1.000000" stroke="none" 
	d="
M172.254303,216.831757 
	C171.999954,216.555771 171.999313,216.111771 171.998108,215.334808 
	C172.226944,212.245819 172.456329,209.489792 173.180084,206.366364 
	C174.115097,206.000320 174.555725,206.001694 174.996353,206.003052 
	C175.148605,207.181656 175.300842,208.360245 175.679016,210.099686 
	C175.270096,211.773468 174.635254,212.886429 174.000427,213.999390 
	C173.502945,214.887512 173.005463,215.775620 172.254303,216.831757 
z"/>
<path fill="#E3432A" opacity="1.000000" stroke="none" 
	d="
M175.242508,205.725586 
	C174.555725,206.001694 174.115097,206.000320 173.344254,205.997040 
	C173.805389,204.103088 174.596725,202.211044 175.696167,200.159821 
	C176.992096,200.770096 177.979919,201.539566 178.967758,202.309036 
	C177.808060,203.355392 176.648361,204.401764 175.242508,205.725586 
z"/>
<path fill="#E3432A" opacity="1.000000" stroke="none" 
	d="
M164.722122,234.231201 
	C166.327881,236.084854 167.660614,238.178802 168.997894,240.635468 
	C167.856781,241.077347 166.711105,241.156509 165.278748,241.115158 
	C164.811066,238.820251 164.630081,236.645889 164.722122,234.231201 
z"/>
<path fill="#E2442A" opacity="1.000000" stroke="none" 
	d="
M287.843475,213.359344 
	C288.994080,214.497818 290.261017,215.906250 290.800476,217.552994 
	C290.944794,217.993561 288.867676,219.161865 287.405212,219.998047 
	C287.228973,217.906235 287.457977,215.812454 287.843475,213.359344 
z"/>
<path fill="#E14429" opacity="1.000000" stroke="none" 
	d="
M240.684204,65.166801 
	C243.870316,67.708412 243.813538,69.652023 240.398132,71.986710 
	C240.122803,69.778069 240.245590,67.556145 240.684204,65.166801 
z"/>
<path fill="#DE462D" opacity="1.000000" stroke="none" 
	d="
M279.260071,176.106598 
	C279.083649,173.625061 278.219513,170.661713 283.247192,170.793243 
	C282.723389,172.904007 282.233948,174.876144 281.372253,176.924744 
	C280.506317,176.738754 280.012604,176.476288 279.260071,176.106598 
z"/>
<path fill="#E3432A" opacity="1.000000" stroke="none" 
	d="
M238.248932,46.999519 
	C239.142395,44.760193 240.286621,42.521606 241.744629,40.120743 
	C242.728653,41.043995 243.398895,42.129517 244.095581,43.551594 
	C244.122040,43.888149 244.049774,43.953400 243.652603,43.988358 
	C241.837357,45.015976 240.419296,46.008629 239.001221,47.001282 
	C238.834045,47.000938 238.666870,47.000595 238.248932,46.999519 
z"/>
<path fill="#E34329" opacity="1.000000" stroke="none" 
	d="
M203.399994,147.000000 
	C203.000000,145.132889 203.000000,143.265778 203.000000,141.398666 
	C203.679123,141.220413 204.358261,141.042160 205.037384,140.863922 
	C205.691132,142.642761 206.344879,144.421616 206.999313,146.600220 
	C205.933334,147.000000 204.866653,147.000000 203.399994,147.000000 
z"/>
<path fill="#E3432A" opacity="1.000000" stroke="none" 
	d="
M223.934082,52.970192 
	C224.355545,51.024364 224.777008,49.078533 225.798416,47.159576 
	C226.599060,47.457115 226.799759,47.727783 227.000458,47.998451 
	C226.587906,50.278667 226.175369,52.558876 225.358444,54.614277 
	C224.614075,53.916374 224.274078,53.443279 223.934082,52.970192 
z"/>
<path fill="#DF462D" opacity="1.000000" stroke="none" 
	d="
M223.629211,53.143955 
	C224.274078,53.443279 224.614075,53.916374 224.977341,54.694656 
	C223.907288,56.656765 222.813980,58.313683 221.348938,59.961834 
	C221.759583,57.741287 222.541977,55.529503 223.629211,53.143955 
z"/>
<path fill="#E3432A" opacity="1.000000" stroke="none" 
	d="
M174.401917,213.999542 
	C174.635254,212.886429 175.270096,211.773468 175.950836,210.331787 
	C177.209518,210.704987 178.422333,211.406921 179.635147,212.108856 
	C178.024567,212.739136 176.413986,213.369400 174.401917,213.999542 
z"/>
<path fill="#DF462D" opacity="1.000000" stroke="none" 
	d="
M239.000977,47.334267 
	C240.419296,46.008629 241.837357,45.015976 243.617233,44.021805 
	C243.678741,45.571865 243.378433,47.123440 243.015289,48.999653 
	C241.971848,48.999653 240.857956,48.999653 239.372345,48.999428 
	C239.000656,48.555222 239.000702,48.111237 239.000977,47.334267 
z"/>
<path fill="#DF462D" opacity="1.000000" stroke="none" 
	d="
M227.343140,48.147972 
	C226.799759,47.727783 226.599060,47.457115 226.168518,47.069538 
	C225.950089,46.520126 225.961517,46.087627 226.314362,45.328678 
	C227.102646,45.003185 227.549484,45.004139 227.996338,45.005089 
	C229.416687,45.670261 230.837051,46.335430 232.627411,47.000931 
	C231.226898,47.433338 229.456360,47.865417 227.343140,48.147972 
z"/>
<path fill="#DF462D" opacity="1.000000" stroke="none" 
	d="
M184.352036,192.996368 
	C184.001572,191.610275 184.001312,190.222397 184.001129,188.418167 
	C185.136993,188.574188 186.272751,189.146530 187.703339,190.193329 
	C187.997940,191.110947 187.997757,191.554123 187.997559,191.997314 
	C186.899124,192.329742 185.800690,192.662155 184.352036,192.996368 
z"/>
<path fill="#DF462D" opacity="1.000000" stroke="none" 
	d="
M223.380829,87.917076 
	C223.000610,85.628662 223.000610,83.259155 223.000610,80.445740 
	C226.558640,82.292458 225.408142,85.040115 223.380829,87.917076 
z"/>
<path fill="#E34627" opacity="1.000000" stroke="none" 
	d="
M305.000763,247.428467 
	C307.365143,248.726242 309.724518,250.453018 305.346191,252.962677 
	C305.000092,251.285645 305.000214,249.571289 305.000763,247.428467 
z"/>
<path fill="#DF462D" opacity="1.000000" stroke="none" 
	d="
M177.994720,235.632874 
	C174.645294,236.291626 174.974670,233.944748 175.001312,231.408783 
	C175.997513,232.423828 176.993790,233.844788 177.994720,235.632874 
z"/>
<path fill="#E3432A" opacity="1.000000" stroke="none" 
	d="
M185.010864,169.374573 
	C185.679764,169.768829 186.335007,170.531403 186.995438,171.646378 
	C187.000473,172.443375 187.000320,172.887955 187.000397,173.665970 
	C187.000610,173.999390 187.000000,174.000000 186.625153,174.000000 
	C185.501068,174.000092 184.751846,174.000183 184.002609,174.000275 
	C184.334137,172.581146 184.665665,171.162033 185.010864,169.374573 
z"/>
<path fill="#E3432A" opacity="1.000000" stroke="none" 
	d="
M188.302826,192.124573 
	C187.997757,191.554123 187.997940,191.110947 187.997543,190.335403 
	C188.938934,190.560074 189.880936,191.117096 190.822922,191.674103 
	C190.084641,191.866684 189.346359,192.059265 188.302826,192.124573 
z"/>
<path fill="#D94A33" opacity="1.000000" stroke="none" 
	d="
M301.325073,224.951950 
	C301.439758,224.030151 301.875854,223.068726 302.655975,222.057007 
	C303.000000,222.006714 303.001343,222.495621 303.001282,222.739883 
	C302.549652,223.626862 302.098053,224.269592 301.325073,224.951950 
z"/>
<path fill="#E3432A" opacity="1.000000" stroke="none" 
	d="
M190.335907,155.947052 
	C190.425110,155.031158 190.861618,154.062042 191.641266,153.031860 
	C191.550674,153.945145 191.116943,154.919495 190.335907,155.947052 
z"/>
<path fill="#E3432A" opacity="1.000000" stroke="none" 
	d="
M176.311630,197.960846 
	C176.015167,197.555649 176.014771,197.111725 176.025192,196.335114 
	C176.545807,196.239014 177.055603,196.475601 177.565399,196.712189 
	C177.246170,197.115494 176.926941,197.518814 176.311630,197.960846 
z"/>
<path fill="#E3432A" opacity="1.000000" stroke="none" 
	d="
M256.465973,99.608543 
	C256.349884,100.058441 256.066559,100.334244 255.765228,100.588753 
	C255.757507,100.595276 255.552353,100.368034 255.439285,100.249802 
	C255.724976,99.977089 256.010681,99.704384 256.465973,99.608543 
z"/>
<path fill="#E3432A" opacity="1.000000" stroke="none" 
	d="
M167.262360,227.793915 
	C166.997910,227.552460 166.996429,227.105515 166.990723,226.323151 
	C167.092407,225.668579 167.281036,225.409714 167.770569,225.103607 
	C167.834290,225.860214 167.679810,226.724335 167.262360,227.793915 
z"/>
<path fill="#DF462D" opacity="1.000000" stroke="none" 
	d="
M220.996765,61.662796 
	C220.825623,61.998505 220.653687,61.999752 220.223511,62.003899 
	C220.141403,61.398594 220.317566,60.790390 220.724396,60.086628 
	C220.968704,60.436829 220.982346,60.882584 220.996765,61.662796 
z"/>
<path fill="#D94A33" opacity="1.000000" stroke="none" 
	d="
M302.875000,218.803558 
	C302.660278,218.906509 302.413208,218.712418 302.129089,218.225586 
	C302.349701,218.112274 302.599884,218.303482 302.875000,218.803558 
z"/>
<path fill="#DF462D" opacity="1.000000" stroke="none" 
	d="
M253.045837,69.637207 
	C252.247345,70.742088 250.716629,71.552765 250.749268,72.294670 
	C250.923630,76.258797 248.985260,77.142975 245.455154,76.648582 
	C246.845367,70.072685 248.183044,63.745201 249.783234,57.199829 
	C250.708054,59.377171 251.370346,61.772396 251.778595,64.764557 
	C252.021301,66.242935 252.518097,67.124390 253.014893,68.005836 
	C253.021622,68.440979 253.028351,68.876114 253.045837,69.637207 
z"/>
<path fill="#DF462D" opacity="1.000000" stroke="none" 
	d="
M249.833710,55.667694 
	C244.913544,55.258469 245.329285,59.387951 244.537781,62.543171 
	C241.953857,58.693359 242.507095,54.846386 246.699158,48.160095 
	C247.911743,50.439941 248.803894,52.886723 249.833710,55.667694 
z"/>
<path fill="#E34329" opacity="1.000000" stroke="none" 
	d="
M227.997681,44.602211 
	C227.549484,45.004139 227.102646,45.003185 226.320312,45.003723 
	C226.414322,43.710705 226.843842,42.416199 227.629059,41.047333 
	C227.989502,42.048424 227.994247,43.123878 227.997681,44.602211 
z"/>
<path fill="#E3432A" opacity="1.000000" stroke="none" 
	d="
M253.015411,67.666840 
	C252.518097,67.124390 252.021301,66.242935 251.788467,65.160538 
	C252.373581,65.749001 252.694748,66.538422 253.015411,67.666840 
z"/>
<path fill="#DC492E" opacity="1.000000" stroke="none" 
	d="
M279.998322,151.639679 
	C278.756592,152.640015 277.511963,153.291504 274.669006,154.779617 
	C274.983643,149.614883 275.233643,145.511017 275.749695,141.203094 
	C276.675873,142.097733 277.336029,143.196411 277.743744,144.843369 
	C277.994598,146.262527 278.497925,147.133408 279.001221,148.004272 
	C279.332611,149.099792 279.664032,150.195328 279.998322,151.639679 
z"/>
<path fill="#E3432A" opacity="1.000000" stroke="none" 
	d="
M278.999268,147.665298 
	C278.497925,147.133408 277.994598,146.262527 277.747070,145.190979 
	C278.334290,145.768982 278.665802,146.547653 278.999268,147.665298 
z"/>
<path fill="#E3432A" opacity="1.000000" stroke="none" 
	d="
M267.884399,112.778870 
	C267.668701,112.896469 267.409943,112.708908 267.105896,112.217850 
	C267.322876,112.096985 267.583130,112.283440 267.884399,112.778870 
z"/>
<path fill="#DD482D" opacity="1.000000" stroke="none" 
	d="
M199.603119,127.071884 
	C204.034500,128.442429 203.143646,131.489227 202.467438,135.149719 
	C200.985367,134.346954 199.838684,133.725845 198.333466,133.039856 
	C198.393646,131.034149 198.812317,129.093307 199.603119,127.071884 
z"/>
<path fill="#E34329" opacity="1.000000" stroke="none" 
	d="
M184.001144,174.331177 
	C184.751846,174.000183 185.501068,174.000092 186.625092,174.000061 
	C186.999832,174.445389 186.999786,174.890640 186.701172,175.689377 
	C185.935318,176.362106 185.468048,176.681351 185.000793,177.000610 
	C184.832977,177.000183 184.665161,176.999756 184.245636,176.744583 
	C183.991150,176.321411 183.988373,176.152969 183.985580,175.984512 
	C183.990280,175.543701 183.994980,175.102875 184.001144,174.331177 
z"/>
<path fill="#DF462D" opacity="1.000000" stroke="none" 
	d="
M183.768143,176.095139 
	C183.988373,176.152969 183.991150,176.321411 183.993927,176.742477 
	C183.825638,176.994675 183.657394,176.994217 183.236649,176.989502 
	C183.091248,176.665985 183.280106,176.406158 183.768143,176.095139 
z"/>
<path fill="#DF462D" opacity="1.000000" stroke="none" 
	d="
M216.028107,81.663132 
	C215.551117,81.996849 215.104706,81.996452 214.323273,81.992874 
	C213.991989,81.547813 213.995758,81.105911 214.001801,80.332489 
	C214.321960,79.532074 214.639847,79.063187 214.980087,78.297043 
	C215.354538,79.109520 215.706635,80.219261 216.028107,81.663132 
z"/>
<path fill="#DF462D" opacity="1.000000" stroke="none" 
	d="
M168.018219,221.250153 
	C168.192963,221.168060 168.377441,221.324020 168.516205,221.513458 
	C168.545029,221.552826 168.404434,221.716278 168.177826,221.911316 
	C168.013077,221.833450 168.012421,221.666779 168.018219,221.250153 
z"/>
<path fill="#D84C36" opacity="1.000000" stroke="none" 
	d="
M212.000641,88.242264 
	C212.175278,88.162636 212.362411,88.316803 212.505951,88.504364 
	C212.533981,88.540985 212.392685,88.707199 212.161392,88.896141 
	C211.993286,88.978645 211.997910,88.487717 212.000641,88.242264 
z"/>
<path fill="#DE472D" opacity="1.000000" stroke="none" 
	d="
M295.971191,200.714844 
	C294.928314,202.748657 293.857819,204.500504 292.787354,206.252365 
	C292.181549,205.943832 291.575745,205.635315 290.969940,205.326797 
	C291.467346,203.700592 291.964722,202.074387 292.736542,200.220123 
	C293.988525,200.139008 294.966095,200.285950 295.971191,200.714844 
z"/>
<path fill="#DE472D" opacity="1.000000" stroke="none" 
	d="
M294.987244,194.681061 
	C291.152191,195.031021 289.373291,193.898392 292.619873,190.070343 
	C293.452545,190.903885 293.917206,191.813156 294.655212,192.886566 
	C294.948395,193.485291 294.968262,193.919891 294.987244,194.681061 
z"/>
<path fill="#DE462D" opacity="1.000000" stroke="none" 
	d="
M273.000427,169.372330 
	C273.830902,170.162491 274.661835,171.324982 275.492737,172.487488 
	C274.931000,172.758560 274.369293,173.029648 273.807556,173.300720 
	C273.538635,172.115372 273.269745,170.930008 273.000427,169.372330 
z"/>
<path fill="#DE462D" opacity="1.000000" stroke="none" 
	d="
M281.502319,164.474289 
	C281.910217,164.401520 282.161713,164.482147 282.413208,164.562790 
	C282.131805,164.837708 281.850433,165.112610 281.569031,165.387527 
	C281.494659,165.134247 281.420258,164.880981 281.502319,164.474289 
z"/>
<path fill="#DE462D" opacity="1.000000" stroke="none" 
	d="
M282.468262,168.450806 
	C282.522797,168.418427 282.413757,168.483170 282.468262,168.450806 
z"/>
<path fill="#DF462D" opacity="1.000000" stroke="none" 
	d="
M185.007385,177.350800 
	C185.468048,176.681351 185.935318,176.362106 186.700073,176.023560 
	C186.702179,177.153824 186.406799,178.303391 186.111404,179.452942 
	C185.745590,178.868958 185.379791,178.284973 185.007385,177.350800 
z"/>
</svg>