<svg version="1.1" id="Layer_1" xmlns="http://www.w3.org/2000/svg" xmlns:xlink="http://www.w3.org/1999/xlink" x="0px" y="0px"
	 width="100%" viewBox="0 0 200 200" enable-background="new 0 0 200 200" xml:space="preserve">
<path fill="#FEFEFE" opacity="1.000000" stroke="none" 
	d="
M121.000000,201.000000 
	C80.691574,201.000000 40.883148,201.000000 1.037362,201.000000 
	C1.037362,134.399948 1.037362,67.799866 1.037362,1.099894 
	C67.558250,1.099894 134.116699,1.099894 200.837585,1.099894 
	C200.837585,67.666344 200.837585,134.333145 200.837585,201.000000 
	C174.466812,201.000000 147.983414,201.000000 121.000000,201.000000 
M29.474220,69.128609 
	C29.140676,69.741028 28.807133,70.353447 28.060005,71.369270 
	C28.241550,71.995338 28.423098,72.621414 28.582773,73.844986 
	C28.411003,75.236664 28.239233,76.628342 27.879786,78.594147 
	C27.863968,78.997017 27.848150,79.399895 27.319256,79.595917 
	C26.577251,80.303307 25.835245,81.010696 24.774923,82.524704 
	C24.839367,91.279709 24.903811,100.034721 24.962685,109.538704 
	C25.624786,110.803642 26.286888,112.068581 26.841024,113.933723 
	C26.884123,115.228127 26.927219,116.522522 26.358418,117.950836 
	C25.227949,118.440903 24.097481,118.930962 22.249458,119.636444 
	C13.990325,123.589043 19.640951,131.363571 16.915871,136.211609 
	C15.669971,137.161591 14.424070,138.111588 12.863503,139.635849 
	C12.990733,140.451736 12.817895,141.576263 13.291081,142.036331 
	C18.683964,147.279755 20.172283,153.629425 19.410378,160.922455 
	C19.284027,162.131897 21.013010,164.207474 22.357864,164.789795 
	C31.466635,168.733856 40.966713,170.101257 50.839989,168.347153 
	C57.191185,167.218811 63.565510,166.220612 70.449356,165.782745 
	C76.395805,166.945068 82.922173,162.686127 85.636803,155.266174 
	C85.636803,155.266174 86.051872,155.434860 86.051872,155.434860 
	C86.051872,155.434860 86.468849,155.270340 86.446152,156.057632 
	C86.867943,158.931091 87.366341,161.747269 91.566353,162.701324 
	C93.311378,162.458206 95.504288,162.799606 96.721130,161.867188 
	C101.149628,158.473785 103.179886,153.694397 103.792526,147.860214 
	C104.181320,147.203857 104.570114,146.547485 105.686569,145.986633 
	C106.103668,144.659592 106.520775,143.332535 107.245628,141.234177 
	C107.291031,136.113403 108.034592,130.875290 107.198730,125.902649 
	C106.232460,120.154083 105.020973,114.021988 99.189865,109.835716 
	C100.981102,105.600021 102.818718,101.398926 107.875069,99.489861 
	C116.835533,101.146172 125.225220,96.513008 128.723892,88.232269 
	C129.282150,86.910980 130.865097,86.022629 132.029465,85.580605 
	C133.544067,90.681625 133.712402,96.899849 136.836884,100.664917 
	C144.799728,110.260368 154.689758,116.063858 168.346542,111.925911 
	C182.467850,107.647224 192.674179,94.545944 189.603500,80.289406 
	C188.056442,73.106636 185.046127,66.004944 177.586288,60.750694 
	C169.554077,55.093304 161.232605,54.778664 153.391663,56.240559 
	C144.811905,57.840206 137.031357,63.051907 134.030853,72.729073 
	C133.604385,74.104500 131.378738,74.922066 129.844437,75.222092 
	C129.221680,72.578003 128.598923,69.933907 128.577408,66.931877 
	C130.777054,65.053543 132.976700,63.175201 136.410004,60.243412 
	C132.496002,58.228249 129.364594,56.616020 126.055984,54.432739 
	C125.432236,54.110268 124.808479,53.787796 124.184731,53.465324 
	C124.158188,54.343178 124.131645,55.221027 123.745102,56.658249 
	C122.107414,58.093582 120.469727,59.528915 118.443253,61.221313 
	C118.175400,61.414570 118.017685,61.674637 117.987564,61.992901 
	C117.987564,61.992901 117.997177,61.973377 117.180260,61.958443 
	C115.671005,61.556675 114.169685,60.857876 112.650780,60.817295 
	C109.817192,60.741596 106.468262,59.199802 104.014046,62.837456 
	C107.312943,64.863228 112.414803,64.247314 111.143463,70.090378 
	C109.053551,72.312431 107.059036,73.586868 103.470055,72.744347 
	C100.726036,72.100189 97.486641,73.566177 94.196884,73.294182 
	C94.769897,69.229233 95.342911,65.164276 96.546013,60.875565 
	C99.489349,59.598385 100.534424,56.439590 99.110764,54.619339 
	C97.834770,52.987896 94.376129,53.063553 91.443260,51.839191 
	C89.283257,48.522148 86.357704,45.851440 88.041214,40.833260 
	C88.927490,38.191475 86.921585,34.579418 85.802933,30.903965 
	C81.962654,29.332800 79.456856,31.453955 76.535828,34.332909 
	C75.931900,35.472801 75.327980,36.612698 74.124184,37.908195 
	C73.741035,38.060757 73.357895,38.213318 72.097832,38.024170 
	C67.560196,38.297447 62.931496,38.117085 58.516911,39.003304 
	C55.568077,39.595280 53.576340,40.250462 51.115726,37.559975 
	C47.077034,33.143982 42.349979,34.207523 40.309883,39.812202 
	C39.442863,42.194122 39.676498,44.980782 39.439114,47.586155 
	C39.310303,48.999916 39.581772,50.552967 39.085346,51.811516 
	C37.468616,55.910275 35.581417,59.902355 33.229534,64.036995 
	C32.529160,65.721550 31.828787,67.406097 31.050943,69.044533 
	C31.050943,69.044533 31.085766,69.127693 30.645864,69.000488 
	C30.645864,69.000488 30.195423,69.082932 29.474220,69.128609 
z"/>
<path fill="#C6C7CB" opacity="1.000000" stroke="none" 
	d="
M111.738678,69.716194 
	C112.414803,64.247314 107.312943,64.863228 104.014046,62.837456 
	C106.468262,59.199802 109.817192,60.741596 112.650780,60.817295 
	C114.169685,60.857876 115.671005,61.556675 117.588226,62.300877 
	C119.012299,64.027382 120.028397,65.411446 120.938354,67.179680 
	C121.888519,72.540276 125.228241,75.038467 129.985809,75.997833 
	C131.378738,74.922066 133.604385,74.104500 134.030853,72.729073 
	C137.031357,63.051907 144.811905,57.840206 153.391663,56.240559 
	C161.232605,54.778664 169.554077,55.093304 177.586288,60.750694 
	C185.046127,66.004944 188.056442,73.106636 189.603500,80.289406 
	C192.674179,94.545944 182.467850,107.647224 168.346542,111.925911 
	C154.689758,116.063858 144.799728,110.260368 136.836884,100.664917 
	C133.712402,96.899849 133.544067,90.681625 131.732239,85.111237 
	C130.456192,84.313385 129.477371,83.984909 128.212952,83.443253 
	C123.978470,79.711723 120.029587,76.193390 116.101303,72.326675 
	C115.425171,69.091888 114.887596,68.767036 112.649269,70.028473 
	C112.131966,69.894318 111.935326,69.805252 111.738678,69.716194 
M156.306335,85.709396 
	C154.603134,88.981377 152.899933,92.253357 150.440018,96.979027 
	C161.497849,91.053223 156.431427,101.521034 160.240021,103.954445 
	C161.476776,97.453514 161.294235,91.339737 159.743820,85.263435 
	C159.670593,84.976440 157.793625,85.149681 156.306335,85.709396 
M177.600632,100.063080 
	C183.861115,94.423401 183.462372,88.900070 175.787415,84.980965 
	C175.272430,89.882164 174.726593,94.508560 174.418076,99.150734 
	C174.394760,99.501518 176.059631,99.964493 177.600632,100.063080 
M165.908707,93.282837 
	C167.964676,94.187813 170.020645,95.092781 172.419128,96.148514 
	C172.419128,92.606186 172.419128,89.512672 172.419128,86.419159 
	C172.095108,86.358643 171.771103,86.298119 171.447083,86.237595 
	C170.805023,87.695351 170.162964,89.153099 169.474716,90.715744 
	C167.716904,89.353409 166.217468,88.191330 163.813354,86.328094 
	C163.813354,91.671227 163.813354,95.947701 163.813354,100.224174 
	C164.167709,100.245193 164.522064,100.266212 164.876419,100.287224 
	C165.186234,98.192238 165.496048,96.097244 165.908707,93.282837 
M146.183487,94.256111 
	C146.183487,92.627892 146.183487,90.999680 146.183487,89.674835 
	C148.363876,88.819237 150.089310,88.142159 151.814758,87.465088 
	C151.689041,87.160866 151.563309,86.856651 151.437592,86.552437 
	C147.433502,86.552437 143.429398,86.552437 138.689072,86.552437 
	C146.509857,90.564392 141.391388,98.953316 146.801102,103.289925 
	C146.621567,100.566811 146.442017,97.843697 146.183487,94.256111 
M173.139877,79.430588 
	C170.775955,80.536392 168.412033,81.642204 165.451538,83.027084 
	C167.149811,83.559074 169.438812,85.103340 170.974045,84.551315 
	C172.971832,83.832970 175.321533,81.698631 175.835617,79.733162 
	C177.008499,75.249031 173.054367,73.158646 170.765671,70.366714 
	C170.360092,70.594704 169.954529,70.822701 169.548950,71.050690 
	C170.765717,73.575134 171.982483,76.099571 173.139877,79.430588 
M162.959824,79.857925 
	C165.841736,76.835815 166.442261,67.066772 163.622070,63.219456 
	C163.694534,68.298347 165.021088,73.312950 160.824905,77.712692 
	C159.350662,75.412445 158.266327,73.720573 156.994171,71.735641 
	C155.497253,77.021683 156.983459,79.172318 162.959824,79.857925 
M146.852509,78.129951 
	C149.316223,75.390358 151.779922,72.650764 155.063919,68.999046 
	C152.611099,69.138626 151.184952,68.811058 150.787598,69.307281 
	C147.707321,73.154053 144.825638,77.159866 141.882492,81.116455 
	C142.147766,81.500298 142.413055,81.884148 142.678345,82.267998 
	C145.617783,81.903267 148.557220,81.538528 152.447144,81.055855 
	C149.759674,79.993355 148.163452,79.362282 146.852509,78.129951 
z"/>
<path fill="#453F39" opacity="1.000000" stroke="none" 
	d="
M86.221611,31.405476 
	C86.921585,34.579418 88.927490,38.191475 88.041214,40.833260 
	C86.357704,45.851440 89.283257,48.522148 91.710632,52.459225 
	C91.566154,54.406689 91.154297,55.734116 90.393295,57.047142 
	C89.343262,57.032394 88.642380,57.032051 87.958435,57.011299 
	C87.975380,56.990887 87.974251,57.043835 87.970612,56.733116 
	C87.627914,55.950863 87.288864,55.479328 86.975510,55.004097 
	C87.001198,55.000404 86.971794,55.043186 86.973038,54.733891 
	C86.634598,53.954830 86.294922,53.485065 85.975845,53.005043 
	C85.996429,52.994789 85.979881,53.037670 85.885162,52.802490 
	C85.514229,52.384773 85.238022,52.202236 84.985275,52.015903 
	C85.008743,52.012108 84.979668,52.049793 84.899994,51.860420 
	C84.525551,51.797626 84.230774,51.924210 83.613617,51.893383 
	C76.196228,47.460571 69.860741,48.858055 63.639114,56.044544 
	C62.890045,56.741562 62.460964,57.394295 62.015129,58.025192 
	C61.998375,58.003353 62.053192,58.008362 61.756779,58.229004 
	C58.413609,64.484634 61.871643,69.691330 63.829990,74.979080 
	C64.218369,76.027748 66.546326,76.358093 68.315399,77.192047 
	C71.434204,77.907845 74.217453,78.451271 77.036148,79.334305 
	C77.793106,80.537247 78.845871,81.303833 79.134865,82.293465 
	C79.381073,83.136620 79.011765,84.894699 78.461411,85.114883 
	C75.117668,86.452644 71.588028,88.453232 68.232346,88.262611 
	C65.728172,88.120354 63.130116,91.086105 60.086449,87.802193 
	C58.792358,86.405968 53.887527,84.469612 50.718536,88.106224 
	C50.300388,88.073967 50.132992,88.062019 49.971558,87.671432 
	C48.530746,85.666321 47.325771,83.684784 45.580669,82.496391 
	C42.949421,80.704529 39.940903,79.466675 37.015064,77.616692 
	C35.912281,74.116386 34.887173,70.992722 33.917568,67.479599 
	C33.914814,66.038582 33.856556,64.987038 33.798298,63.935486 
	C35.581417,59.902355 37.468616,55.910275 39.085346,51.811516 
	C39.581772,50.552967 39.310303,48.999916 39.439114,47.586155 
	C39.676498,44.980782 39.442863,42.194122 40.309883,39.812202 
	C42.349979,34.207523 47.077034,33.143982 51.115726,37.559975 
	C53.576340,40.250462 55.568077,39.595280 58.516911,39.003304 
	C62.931496,38.117085 67.560196,38.297447 72.596085,38.509167 
	C73.814194,39.270351 74.534050,39.546543 75.594887,39.870148 
	C78.296562,40.963436 80.657265,42.009312 83.137970,43.298363 
	C83.606644,43.805271 83.955307,44.069004 84.303963,44.332741 
	C84.500801,43.846615 84.697639,43.360485 85.031830,42.544052 
	C86.227928,38.820293 86.123878,35.925854 81.857140,34.649105 
	C81.495964,34.676651 81.251419,34.822842 80.666351,35.040985 
	C78.562149,36.076530 76.798454,37.040123 74.968582,37.926716 
	C74.902397,37.849712 74.724052,37.752590 74.724052,37.752590 
	C75.327980,36.612698 75.931900,35.472801 77.204102,34.181377 
	C80.118309,31.446192 84.641068,36.106049 86.221611,31.405476 
M49.640888,41.758690 
	C47.096085,39.215008 44.826054,40.177143 44.259720,43.088486 
	C43.697002,45.981232 44.448292,49.129585 44.623348,52.165848 
	C45.232761,52.203053 45.842175,52.240257 46.451588,52.277462 
	C47.223545,48.815536 54.083069,47.933121 49.640888,41.758690 
M52.454960,72.035500 
	C55.355976,72.286758 57.215714,70.651962 56.719646,68.090866 
	C56.470554,66.804848 53.958477,65.672401 52.258610,65.025230 
	C50.198250,64.240814 48.341179,64.745743 48.081406,67.487595 
	C47.832161,70.118279 48.313351,72.179558 52.454960,72.035500 
z"/>
<path fill="#5B4726" opacity="1.000000" stroke="none" 
	d="
M69.929466,165.164093 
	C63.565510,166.220612 57.191185,167.218811 50.839989,168.347153 
	C40.966713,170.101257 31.466635,168.733856 22.357864,164.789795 
	C21.013010,164.207474 19.284027,162.131897 19.410378,160.922455 
	C20.172283,153.629425 18.683964,147.279755 13.291081,142.036331 
	C12.817895,141.576263 12.990733,140.451736 13.357268,139.340393 
	C14.982517,139.378067 16.194378,139.553635 17.227139,140.080353 
	C18.884684,140.925720 20.423729,142.003433 22.060905,143.118805 
	C22.189404,143.304047 22.269852,143.353394 22.350300,143.402756 
	C22.227737,143.272980 22.105177,143.143204 21.951286,142.652527 
	C18.436565,139.768356 19.157249,136.389191 20.395168,133.030151 
	C25.080675,134.637314 29.370018,136.274948 33.742237,137.648819 
	C34.281506,137.818298 35.262794,136.581055 36.334522,135.811371 
	C38.364891,135.078918 40.099987,134.530792 42.240444,133.983856 
	C49.752674,136.660461 56.859547,139.335861 64.133484,142.259399 
	C65.534279,143.688568 66.768005,144.869614 68.033463,146.435745 
	C68.062073,147.850494 68.058960,148.880127 67.877441,150.292877 
	C67.259933,155.389236 64.713776,160.458511 69.973740,164.446304 
	C69.962204,164.685745 69.929466,165.164078 69.929466,165.164093 
z"/>
<path fill="#E36327" opacity="1.000000" stroke="none" 
	d="
M107.199356,99.094002 
	C102.818718,101.398926 100.981102,105.600021 99.059494,110.515884 
	C94.956520,115.168266 90.983925,119.140472 86.612411,123.043716 
	C85.140396,123.024895 84.067291,123.075043 82.573296,123.068848 
	C80.454788,122.990730 78.757179,122.968956 76.961609,122.629028 
	C75.774742,121.406311 74.685837,120.501755 74.167221,120.070930 
	C76.804878,117.435204 79.474022,114.768005 82.121353,112.064499 
	C82.099533,112.028206 82.027603,112.072937 82.346901,112.046600 
	C82.937630,111.696030 83.209053,111.371803 83.726822,110.941650 
	C84.672508,110.038589 85.371857,109.241447 86.325943,108.274017 
	C86.828850,107.787079 87.077011,107.470436 87.669998,107.133469 
	C90.316147,104.393463 92.617477,101.673782 95.073120,98.655457 
	C97.210716,96.527527 99.194000,94.698242 101.463974,92.735367 
	C103.491386,90.725510 105.232109,88.849236 106.986267,86.985870 
	C106.999695,86.998779 106.974022,86.975754 107.258957,86.961258 
	C107.688309,86.622467 107.832718,86.298172 107.988564,85.986938 
	C108.000000,86.000000 107.973778,85.977112 108.258530,85.961319 
	C108.688759,85.621384 108.834221,85.297241 108.989540,84.986702 
	C108.999390,85.000305 108.975067,84.975983 109.357620,85.012619 
	C110.497200,83.867935 111.254242,82.686607 112.107635,81.389557 
	C112.350121,81.128456 112.525246,81.041695 112.701599,81.327194 
	C112.706139,81.848267 112.738449,82.055695 112.817200,82.536331 
	C113.210739,83.232079 113.557831,83.654617 113.961884,84.506866 
	C114.918785,91.184174 112.434082,95.801422 107.199356,99.094002 
z"/>
<path fill="#42535B" opacity="1.000000" stroke="none" 
	d="
M87.011330,123.112686 
	C90.983925,119.140472 94.956520,115.168266 99.045837,110.906845 
	C105.020973,114.021988 106.232460,120.154083 107.198730,125.902649 
	C108.034592,130.875290 107.291031,136.113403 106.863861,141.616959 
	C106.482101,141.999741 106.026459,141.984024 106.022545,141.563873 
	C106.310356,138.354065 104.705482,137.879288 102.376198,137.963440 
	C98.327568,138.109695 94.272980,138.091385 90.155891,137.717407 
	C89.064369,132.566055 88.037849,127.839371 87.011330,123.112686 
z"/>
<path fill="#627F8C" opacity="1.000000" stroke="none" 
	d="
M90.220901,138.142059 
	C94.272980,138.091385 98.327568,138.109695 102.376198,137.963440 
	C104.705482,137.879288 106.310356,138.354065 105.753113,141.773453 
	C105.319443,143.285355 105.151283,144.167511 104.556534,145.085663 
	C100.362221,145.480835 96.598015,145.883713 92.825813,146.187088 
	C88.955376,146.498367 86.731796,148.205460 87.006577,152.411438 
	C87.067810,153.348694 86.660461,154.316559 86.468849,155.270340 
	C86.468849,155.270340 86.051872,155.434860 86.051872,155.434860 
	C86.051872,155.434860 85.636803,155.266174 85.358704,154.857635 
	C85.146454,153.737228 85.212303,153.025330 85.303619,152.268738 
	C85.329094,152.224014 85.347397,152.122742 85.513977,151.980362 
	C85.447884,151.579498 85.215225,151.321014 84.517410,151.046143 
	C78.720123,150.656433 73.387985,150.283096 68.055847,149.909775 
	C68.058960,148.880127 68.062073,147.850494 68.038254,146.033203 
	C69.159851,144.393539 70.258484,142.892395 71.465363,142.799652 
	C77.301605,142.351120 83.166954,142.281219 89.058563,142.370270 
	C89.538162,142.929993 89.981186,143.196503 90.424210,143.462997 
	C90.328285,142.665894 90.232368,141.868774 90.128967,140.704315 
	C90.154617,139.605331 90.187759,138.873688 90.220901,138.142059 
z"/>
<path fill="#3C3530" opacity="1.000000" stroke="none" 
	d="
M50.969292,88.126541 
	C53.887527,84.469612 58.792358,86.405968 60.086449,87.802193 
	C63.130116,91.086105 65.728172,88.120354 68.232346,88.262611 
	C71.588028,88.453232 75.117668,86.452644 78.461411,85.114883 
	C79.011765,84.894699 79.381073,83.136620 79.134865,82.293465 
	C78.845871,81.303833 77.793106,80.537247 77.288406,79.055862 
	C85.524300,77.231430 89.184151,72.989937 90.126564,64.294586 
	C90.256439,63.096340 91.715057,62.042110 92.894356,60.887428 
	C94.125435,60.935543 95.020683,61.017437 95.915924,61.099327 
	C95.342911,65.164276 94.769897,69.229233 94.103920,73.715080 
	C94.010956,74.135979 93.556000,74.133804 93.194290,74.234093 
	C92.571495,75.248695 92.310410,76.163010 92.034805,77.043701 
	C92.020279,77.010086 92.093529,77.010139 91.822334,77.166489 
	C91.381859,77.907646 91.212578,78.492447 91.039581,79.038925 
	C91.035873,79.000595 91.096100,79.048592 90.742706,79.054230 
	C89.211479,79.926079 87.794022,80.595154 86.893631,81.689613 
	C79.555740,90.609154 69.927376,93.418465 58.928009,91.858864 
	C56.154461,91.465607 53.615860,89.415344 50.969292,88.126541 
z"/>
<path fill="#E36D35" opacity="1.000000" stroke="none" 
	d="
M93.556000,74.133804 
	C93.556000,74.133804 94.010956,74.135979 94.239273,74.114761 
	C97.486641,73.566177 100.726036,72.100189 103.470055,72.744347 
	C107.059036,73.586868 109.053551,72.312431 111.441071,69.903290 
	C111.935326,69.805252 112.131966,69.894318 112.440155,70.281494 
	C105.303688,77.157578 98.055664,83.735550 90.999779,90.139145 
	C91.863701,92.271416 92.405281,93.608109 92.681274,95.015503 
	C91.550880,95.092819 90.686073,95.099449 89.857040,94.813232 
	C89.880966,94.324440 89.869110,94.128494 89.943047,93.534279 
	C87.982521,89.169579 84.936432,91.414055 82.146149,91.413239 
	C82.092255,90.648346 82.070114,90.342430 82.257111,89.781448 
	C85.342873,86.033791 88.219490,82.541191 91.096100,79.048592 
	C91.096100,79.048592 91.035873,79.000595 91.300568,78.873398 
	C91.741348,78.167519 91.917435,77.588829 92.093529,77.010139 
	C92.093529,77.010139 92.020279,77.010086 92.328140,76.851746 
	C92.942665,75.840202 93.249336,74.987000 93.556000,74.133804 
z"/>
<path fill="#433D38" opacity="1.000000" stroke="none" 
	d="
M85.278152,152.313446 
	C85.212303,153.025330 85.146454,153.737228 85.144104,154.799225 
	C82.922173,162.686127 76.395805,166.945068 70.189407,165.473419 
	C69.929466,165.164078 69.962204,164.685745 69.989975,163.969208 
	C70.012856,161.589920 70.105652,159.920029 69.984428,158.265823 
	C69.646446,153.653610 71.388123,151.384354 76.325958,151.976685 
	C79.280968,152.331161 82.292198,152.216980 85.278152,152.313446 
z"/>
<path fill="#453F39" opacity="1.000000" stroke="none" 
	d="
M103.228737,148.100525 
	C103.179886,153.694397 101.149628,158.473785 96.721130,161.867188 
	C95.504288,162.799606 93.311378,162.458206 91.256752,162.048950 
	C90.304527,159.067108 89.101501,156.714203 89.197571,154.415604 
	C89.273674,152.594772 90.616226,149.659241 91.967995,149.285385 
	C95.556335,148.292969 99.454071,148.419250 103.228737,148.100525 
z"/>
<path fill="#382F29" opacity="1.000000" stroke="none" 
	d="
M107.537216,99.291931 
	C112.434082,95.801422 114.918785,91.184174 113.975723,84.195831 
	C113.545311,83.057762 113.158035,82.660439 112.770752,82.263115 
	C112.738449,82.055695 112.706139,81.848267 113.000679,81.268906 
	C113.798538,80.537834 114.269547,80.178703 115.055870,80.068588 
	C115.768639,85.353996 116.166084,90.390381 116.554344,95.310425 
	C122.127266,93.888306 125.556358,89.034828 128.498535,83.656433 
	C129.477371,83.984909 130.456192,84.313385 131.704681,84.788002 
	C130.865097,86.022629 129.282150,86.910980 128.723892,88.232269 
	C125.225220,96.513008 116.835533,101.146172 107.537216,99.291931 
z"/>
<path fill="#A99D75" opacity="1.000000" stroke="none" 
	d="
M22.967012,119.421021 
	C24.097481,118.930962 25.227949,118.440903 26.765762,117.954987 
	C27.173105,117.959145 27.361824,118.119987 27.237123,118.483711 
	C28.746227,123.823746 30.380032,128.800064 31.597279,133.861023 
	C27.459496,132.813187 23.738274,131.680695 19.954094,130.203217 
	C20.194908,127.780991 20.312428,125.652634 20.864012,123.643440 
	C21.272451,122.155655 22.245491,120.822861 22.967012,119.421021 
z"/>
<path fill="#98670B" opacity="1.000000" stroke="none" 
	d="
M26.948988,113.333527 
	C26.286888,112.068581 25.624786,110.803642 25.024487,108.759682 
	C25.353922,105.582329 25.621559,103.183990 26.062355,101.110809 
	C28.532022,104.941460 30.828529,108.446953 33.221703,112.228241 
	C34.173286,113.282959 35.028206,114.061882 36.059441,115.122498 
	C36.833645,115.669327 37.431538,115.934456 38.204960,116.401917 
	C38.891651,116.734360 39.402813,116.864464 40.108295,117.251831 
	C40.913059,117.680557 41.523506,117.852020 42.408798,118.199951 
	C43.734051,118.625175 44.784462,118.873932 45.958092,119.298431 
	C46.294960,119.684761 46.551636,119.795921 47.201927,119.851959 
	C48.022766,119.926102 48.493023,119.955933 48.946640,120.263794 
	C48.898678,120.724861 48.867352,120.907890 48.439327,121.076035 
	C45.696381,121.031067 43.350136,121.000969 40.772263,120.963165 
	C40.540638,120.955467 40.080219,120.902054 39.888062,120.639793 
	C38.518265,119.832062 37.340626,119.286591 36.022041,118.543251 
	C35.635311,118.091927 35.337791,117.991135 34.630337,117.978088 
	C31.831089,116.386627 29.390038,114.860077 26.948988,113.333527 
z"/>
<path fill="#EB7737" opacity="1.000000" stroke="none" 
	d="
M121.044495,66.795517 
	C120.028397,65.411446 119.012299,64.027382 117.996689,62.308342 
	C117.997177,61.973377 117.987564,61.992901 118.235626,61.935837 
	C118.599808,61.573929 118.715919,61.269089 118.832031,60.964249 
	C120.469727,59.528915 122.107414,58.093582 124.232224,56.344597 
	C125.129272,55.988285 125.539215,55.945633 126.157600,56.189964 
	C129.836105,58.566502 129.719101,60.886196 126.981880,63.588100 
	C126.100311,64.458290 125.619881,65.734871 124.807182,67.081184 
	C123.453781,67.156395 122.249138,66.975960 121.044495,66.795517 
z"/>
<path fill="#2F2D2B" opacity="1.000000" stroke="none" 
	d="
M103.510635,147.980362 
	C99.454071,148.419250 95.556335,148.292969 91.967995,149.285385 
	C90.616226,149.659241 89.273674,152.594772 89.197571,154.415604 
	C89.101501,156.714203 90.304527,159.067108 90.990707,161.794983 
	C87.366341,161.747269 86.867943,158.931091 86.457504,155.663986 
	C86.660461,154.316559 87.067810,153.348694 87.006577,152.411438 
	C86.731796,148.205460 88.955376,146.498367 92.825813,146.187088 
	C96.598015,145.883713 100.362221,145.480835 104.540733,145.295547 
	C104.951530,145.469437 104.958908,145.891129 104.958908,145.891129 
	C104.570114,146.547485 104.181320,147.203857 103.510635,147.980362 
z"/>
<path fill="#C08E83" opacity="1.000000" stroke="none" 
	d="
M96.230972,60.987450 
	C95.020683,61.017437 94.125435,60.935543 92.690308,60.580788 
	C91.681091,59.225800 91.211761,58.143673 90.742439,57.061543 
	C91.154297,55.734116 91.566154,54.406689 91.929214,52.732666 
	C94.376129,53.063553 97.834770,52.987896 99.110764,54.619339 
	C100.534424,56.439590 99.489349,59.598385 96.230972,60.987450 
z"/>
<path fill="#F8B21D" opacity="1.000000" stroke="none" 
	d="
M36.162987,118.741119 
	C37.340626,119.286591 38.518265,119.832062 39.569103,120.789993 
	C37.098164,121.457359 34.754025,121.712265 31.609167,122.054230 
	C32.903786,123.692062 33.477890,124.418373 33.812233,125.403915 
	C32.680824,124.936134 31.618662,124.340744 30.934086,123.453888 
	C29.629488,121.763802 28.540394,119.907364 27.361824,118.119987 
	C27.361824,118.119987 27.173105,117.959145 27.071711,117.888031 
	C26.927219,116.522522 26.884123,115.228127 26.895004,113.633621 
	C29.390038,114.860077 31.831089,116.386627 34.645683,118.224068 
	C35.400482,118.603683 35.781734,118.672401 36.162987,118.741119 
z"/>
<path fill="#ED6A2C" opacity="1.000000" stroke="none" 
	d="
M124.955940,66.825539 
	C125.619881,65.734871 126.100311,64.458290 126.981880,63.588100 
	C129.719101,60.886196 129.836105,58.566502 126.216141,55.961376 
	C126.066231,55.445808 126.233208,55.003788 126.233208,55.003792 
	C129.364594,56.616020 132.496002,58.228249 136.410004,60.243412 
	C132.976700,63.175201 130.777054,65.053543 127.909973,66.995956 
	C126.480331,66.981873 125.718140,66.903702 124.955940,66.825539 
z"/>
<path fill="#F8B118" opacity="1.000000" stroke="none" 
	d="
M33.862068,67.869064 
	C34.887173,70.992722 35.912281,74.116386 36.949024,77.865433 
	C36.975533,78.661636 36.990402,78.832443 36.654343,79.001122 
	C34.114243,79.402794 32.618847,75.430672 29.748119,78.006317 
	C28.963789,78.006447 28.515627,78.013237 28.067463,78.020020 
	C28.239233,76.628342 28.411003,75.236664 28.968132,73.439514 
	C29.930916,71.731918 30.508341,70.429810 31.085766,69.127693 
	C31.085766,69.127693 31.050943,69.044533 31.390497,69.042511 
	C32.440723,68.650017 33.151394,68.259537 33.862068,67.869064 
z"/>
<path fill="#716A5C" opacity="1.000000" stroke="none" 
	d="
M22.608234,119.528732 
	C22.245491,120.822861 21.272451,122.155655 20.864012,123.643440 
	C20.312428,125.652634 20.194908,127.780991 19.927711,130.610764 
	C19.984282,131.902283 20.004276,132.441269 20.024271,132.980240 
	C19.157249,136.389191 18.436565,139.768356 21.959795,142.645813 
	C21.999632,143.000000 22.012856,142.982941 22.012854,142.982941 
	C20.423729,142.003433 18.884684,140.925720 17.227139,140.080353 
	C16.194378,139.553635 14.982517,139.378067 13.514601,139.053253 
	C14.424070,138.111588 15.669971,137.161591 16.915871,136.211609 
	C19.640951,131.363571 13.990325,123.589043 22.608234,119.528732 
z"/>
<path fill="#3C3530" opacity="1.000000" stroke="none" 
	d="
M124.807182,67.081184 
	C125.718140,66.903702 126.480331,66.981873 127.609344,67.174927 
	C128.598923,69.933907 129.221680,72.578003 129.915131,75.609962 
	C125.228241,75.038467 121.888519,72.540276 120.938354,67.179680 
	C122.249138,66.975960 123.453781,67.156395 124.807182,67.081184 
z"/>
<path fill="#8A7D65" opacity="1.000000" stroke="none" 
	d="
M25.889194,100.785660 
	C25.621559,103.183990 25.353922,105.582329 25.027271,108.385193 
	C24.903811,100.034721 24.839367,91.279709 25.217339,82.386124 
	C25.490561,84.499657 25.321363,86.751755 25.203770,89.317108 
	C25.576275,91.751915 25.897177,93.873474 26.165962,96.383492 
	C26.160641,97.809608 26.207441,98.847267 26.148525,100.104256 
	C26.042809,100.323578 25.889196,100.785660 25.889194,100.785660 
z"/>
<path fill="#FBBA2F" opacity="1.000000" stroke="none" 
	d="
M25.152164,89.003860 
	C25.321363,86.751755 25.490561,84.499657 25.376499,81.982819 
	C25.835245,81.010696 26.577251,80.303307 27.652725,79.986023 
	C28.005152,80.573120 28.024107,80.770111 27.880608,81.147583 
	C28.015137,83.530174 28.479475,85.734749 28.447084,87.931999 
	C28.441580,88.305397 26.304478,88.647369 25.152164,89.003860 
z"/>
<path fill="#544B46" opacity="1.000000" stroke="none" 
	d="
M86.012268,31.154720 
	C84.641068,36.106049 80.118309,31.446192 77.496109,34.036018 
	C79.456856,31.453955 81.962654,29.332800 86.012268,31.154720 
z"/>
<path fill="#ECC46F" opacity="1.000000" stroke="none" 
	d="
M33.917572,67.479599 
	C33.151394,68.259537 32.440723,68.650017 31.429232,69.065575 
	C31.828787,67.406097 32.529160,65.721550 33.513916,63.986240 
	C33.856556,64.987038 33.914814,66.038582 33.917572,67.479599 
z"/>
<path fill="#8D630E" opacity="1.000000" stroke="none" 
	d="
M126.144592,54.718262 
	C126.233208,55.003788 126.066231,55.445808 126.007690,55.674393 
	C125.539215,55.945633 125.129272,55.988285 124.412216,56.064911 
	C124.131645,55.221027 124.158188,54.343178 124.184731,53.465324 
	C124.808479,53.787796 125.432236,54.110268 126.144592,54.718262 
z"/>
<path fill="#5F7B89" opacity="1.000000" stroke="none" 
	d="
M105.322739,145.938873 
	C104.958908,145.891129 104.951530,145.469437 104.967331,145.259552 
	C105.151283,144.167511 105.319443,143.285355 105.757034,142.193604 
	C106.026459,141.984024 106.482101,141.999741 106.709991,142.002625 
	C106.520775,143.332535 106.103668,144.659592 105.322739,145.938873 
z"/>
<path fill="#ECC46F" opacity="1.000000" stroke="none" 
	d="
M30.865814,69.064087 
	C30.508341,70.429810 29.930916,71.731918 28.979069,73.140762 
	C28.423098,72.621414 28.241550,71.995338 28.620420,71.120438 
	C29.519033,70.275383 29.857229,69.679161 30.195423,69.082932 
	C30.195423,69.082932 30.645864,69.000488 30.865814,69.064087 
z"/>
<path fill="#FFB006" opacity="1.000000" stroke="none" 
	d="
M28.043064,80.967094 
	C28.024107,80.770111 28.005152,80.573120 27.909264,80.089447 
	C27.848150,79.399895 27.863968,78.997017 27.973625,78.307083 
	C28.515627,78.013237 28.963789,78.006447 29.725910,78.357300 
	C29.374268,79.465660 28.708668,80.216377 28.043064,80.967094 
z"/>
<path fill="#544B46" opacity="1.000000" stroke="none" 
	d="
M75.253906,39.822731 
	C74.534050,39.546543 73.814194,39.270351 73.034546,38.680019 
	C73.357895,38.213318 73.741035,38.060757 74.424118,37.830391 
	C74.724052,37.752590 74.902397,37.849712 75.012421,38.229977 
	C75.166267,39.014404 75.210091,39.418568 75.253906,39.822731 
z"/>
<path fill="#A99D75" opacity="1.000000" stroke="none" 
	d="
M29.834824,69.105774 
	C29.857229,69.679161 29.519033,70.275383 28.827213,70.918739 
	C28.807133,70.353447 29.140676,69.741028 29.834824,69.105774 
z"/>
<path fill="#C6C7CB" opacity="1.000000" stroke="none" 
	d="
M118.637642,61.092781 
	C118.715919,61.269089 118.599808,61.573929 118.226898,61.940144 
	C118.017685,61.674637 118.175400,61.414570 118.637642,61.092781 
z"/>
<path fill="#E79461" opacity="1.000000" stroke="none" 
	d="
M114.740555,79.819580 
	C114.269547,80.178703 113.798538,80.537834 113.028458,80.955246 
	C112.525246,81.041695 112.350121,81.128456 111.853928,81.620018 
	C110.660942,82.969475 109.818008,83.972733 108.975067,84.975983 
	C108.975067,84.975983 108.999390,85.000305 108.719093,85.026291 
	C108.283791,85.360558 108.128784,85.668831 107.973770,85.977112 
	C107.973778,85.977112 108.000000,86.000000 107.717010,86.023201 
	C107.280693,86.356186 107.127357,86.665970 106.974022,86.975754 
	C106.974022,86.975754 106.999695,86.998779 106.644218,86.994843 
	C104.584923,88.950249 102.881096,90.909599 101.177277,92.868958 
	C99.194000,94.698242 97.210716,96.527527 94.779663,98.554474 
	C93.870209,97.483025 93.408531,96.213921 92.946861,94.944809 
	C92.405281,93.608109 91.863701,92.271416 90.999779,90.139145 
	C98.055664,83.735550 105.303688,77.157578 112.760818,70.326584 
	C114.887596,68.767036 115.425171,69.091888 115.981705,72.722847 
	C115.474525,75.584785 115.107544,77.702187 114.740555,79.819580 
z"/>
<path fill="#46403A" opacity="1.000000" stroke="none" 
	d="
M115.055870,80.068588 
	C115.107544,77.702187 115.474525,75.584785 115.961105,73.071220 
	C120.029587,76.193390 123.978470,79.711723 128.212952,83.443253 
	C125.556358,89.034828 122.127266,93.888306 116.554344,95.310425 
	C116.166084,90.390381 115.768639,85.353996 115.055870,80.068588 
z"/>
<path fill="#4D73C8" opacity="1.000000" stroke="none" 
	d="
M156.531494,85.408989 
	C157.793625,85.149681 159.670593,84.976440 159.743820,85.263435 
	C161.294235,91.339737 161.476776,97.453514 160.240021,103.954445 
	C156.431427,101.521034 161.497849,91.053223 150.440018,96.979027 
	C152.899933,92.253357 154.603134,88.981377 156.531494,85.408989 
z"/>
<path fill="#5378C8" opacity="1.000000" stroke="none" 
	d="
M177.270187,100.219200 
	C176.059631,99.964493 174.394760,99.501518 174.418076,99.150734 
	C174.726593,94.508560 175.272430,89.882164 175.787415,84.980965 
	C183.462372,88.900070 183.861115,94.423401 177.270187,100.219200 
z"/>
<path fill="#5378C8" opacity="1.000000" stroke="none" 
	d="
M165.857300,93.642548 
	C165.496048,96.097244 165.186234,98.192238 164.876419,100.287224 
	C164.522064,100.266212 164.167709,100.245193 163.813354,100.224174 
	C163.813354,95.947701 163.813354,91.671227 163.813354,86.328094 
	C166.217468,88.191330 167.716904,89.353409 169.474716,90.715744 
	C170.162964,89.153099 170.805023,87.695351 171.447083,86.237595 
	C171.771103,86.298119 172.095108,86.358643 172.419128,86.419159 
	C172.419128,89.512672 172.419128,92.606186 172.419128,96.148514 
	C170.020645,95.092781 167.964676,94.187813 165.857300,93.642548 
z"/>
<path fill="#4A71C8" opacity="1.000000" stroke="none" 
	d="
M146.222992,94.688347 
	C146.442017,97.843697 146.621567,100.566811 146.801102,103.289925 
	C141.391388,98.953316 146.509857,90.564392 138.689072,86.552437 
	C143.429398,86.552437 147.433502,86.552437 151.437592,86.552437 
	C151.563309,86.856651 151.689041,87.160866 151.814758,87.465088 
	C150.089310,88.142159 148.363876,88.819237 146.183487,89.674835 
	C146.183487,90.999680 146.183487,92.627892 146.222992,94.688347 
z"/>
<path fill="#4A71C8" opacity="1.000000" stroke="none" 
	d="
M173.169556,79.027298 
	C171.982483,76.099571 170.765717,73.575134 169.548950,71.050690 
	C169.954529,70.822701 170.360092,70.594704 170.765671,70.366714 
	C173.054367,73.158646 177.008499,75.249031 175.835617,79.733162 
	C175.321533,81.698631 172.971832,83.832970 170.974045,84.551315 
	C169.438812,85.103340 167.149811,83.559074 165.451538,83.027084 
	C168.412033,81.642204 170.775955,80.536392 173.169556,79.027298 
z"/>
<path fill="#416BC7" opacity="1.000000" stroke="none" 
	d="
M162.585602,79.941757 
	C156.983459,79.172318 155.497253,77.021683 156.994171,71.735641 
	C158.266327,73.720573 159.350662,75.412445 160.824905,77.712692 
	C165.021088,73.312950 163.694534,68.298347 163.622070,63.219456 
	C166.442261,67.066772 165.841736,76.835815 162.585602,79.941757 
z"/>
<path fill="#416BC7" opacity="1.000000" stroke="none" 
	d="
M146.709869,78.430580 
	C148.163452,79.362282 149.759674,79.993355 152.447144,81.055855 
	C148.557220,81.538528 145.617783,81.903267 142.678345,82.267998 
	C142.413055,81.884148 142.147766,81.500298 141.882492,81.116455 
	C144.825638,77.159866 147.707321,73.154053 150.787598,69.307281 
	C151.184952,68.811058 152.611099,69.138626 155.063919,68.999046 
	C151.779922,72.650764 149.316223,75.390358 146.709869,78.430580 
z"/>
<path fill="#6D5E54" opacity="1.000000" stroke="none" 
	d="
M63.959106,56.000259 
	C69.860741,48.858055 76.196228,47.460571 83.874847,51.929398 
	C84.632187,52.098480 84.805923,52.074135 84.979668,52.049793 
	C84.979668,52.049793 85.008743,52.012108 85.046356,52.275551 
	C85.382599,52.705223 85.681244,52.871445 85.979881,53.037670 
	C85.979881,53.037670 85.996429,52.994789 85.959442,53.314049 
	C86.272240,54.103271 86.622017,54.573227 86.971794,55.043186 
	C86.971794,55.043186 87.001198,55.000404 86.992477,55.307175 
	C87.313927,56.090576 87.644089,56.567204 87.974251,57.043835 
	C87.974251,57.043835 87.975380,56.990887 87.963074,57.415653 
	C91.730858,71.466049 78.712173,80.737648 68.066147,75.268341 
	C62.593906,70.502945 61.254978,64.628548 62.053192,58.008362 
	C62.053192,58.008362 61.998375,58.003353 62.275314,57.894619 
	C63.021210,57.190678 63.490158,56.595470 63.959106,56.000259 
M73.724770,69.996384 
	C76.579056,68.390762 79.536087,66.935135 82.227287,65.091461 
	C83.074829,64.510834 83.369064,62.916168 83.566917,61.727417 
	C83.621704,61.398327 82.239128,60.352409 81.824402,60.500278 
	C79.134460,61.459366 76.529724,62.657413 73.161781,63.841934 
	C70.738762,63.685364 67.517181,61.752106 66.682510,65.527832 
	C66.484291,66.424461 69.875595,68.135971 71.647163,69.429703 
	C72.028931,69.708504 72.546135,69.801857 73.724770,69.996384 
M75.298393,54.668224 
	C74.091042,55.358780 72.883690,56.049339 71.676338,56.739895 
	C72.090240,57.163471 72.504135,57.587044 72.918037,58.010620 
	C73.898788,56.935646 74.879539,55.860676 75.298393,54.668224 
z"/>
<path fill="#261E19" opacity="1.000000" stroke="none" 
	d="
M90.742706,79.054230 
	C88.219490,82.541191 85.342873,86.033791 81.885330,89.789070 
	C76.235237,92.163002 71.166092,94.274254 65.691315,96.254730 
	C61.156773,95.485893 57.027855,94.847832 52.581955,94.086395 
	C50.844833,93.339294 49.424690,92.715576 47.902550,91.763184 
	C46.504238,89.972916 45.207920,88.511322 44.300838,87.025848 
	C46.448582,87.351334 48.207088,87.700699 49.965595,88.050072 
	C50.132992,88.062019 50.300388,88.073967 50.718536,88.106224 
	C53.615860,89.415344 56.154461,91.465607 58.928009,91.858864 
	C69.927376,93.418465 79.555740,90.609154 86.893631,81.689613 
	C87.794022,80.595154 89.211479,79.926079 90.742706,79.054230 
z"/>
<path fill="#2B2622" opacity="1.000000" stroke="none" 
	d="
M68.160767,75.568710 
	C78.712173,80.737648 91.730858,71.466049 87.946129,57.436066 
	C88.642380,57.032051 89.343262,57.032394 90.393295,57.047142 
	C91.211761,58.143673 91.681091,59.225800 92.354462,60.614567 
	C91.715057,62.042110 90.256439,63.096340 90.126564,64.294586 
	C89.184151,72.989937 85.524300,77.231430 77.252968,78.716255 
	C74.217453,78.451271 71.434204,77.907845 68.350082,76.827866 
	C68.086403,76.050438 68.123589,75.809570 68.160767,75.568710 
z"/>
<path fill="#BB7667" opacity="1.000000" stroke="none" 
	d="
M49.794353,42.075264 
	C54.083069,47.933121 47.223545,48.815536 46.451588,52.277462 
	C45.842175,52.240257 45.232761,52.203053 44.623348,52.165848 
	C44.448292,49.129585 43.697002,45.981232 44.259720,43.088486 
	C44.826054,40.177143 47.096085,39.215008 49.794353,42.075264 
z"/>
<path fill="#AD6B5C" opacity="1.000000" stroke="none" 
	d="
M75.594887,39.870148 
	C75.210091,39.418568 75.166267,39.014404 75.078613,38.306980 
	C76.798454,37.040123 78.562149,36.076530 80.914543,35.022095 
	C81.503250,34.931252 81.973778,34.767754 81.973778,34.767754 
	C86.123878,35.925854 86.227928,38.820293 84.719849,42.577744 
	C83.853004,42.979561 83.435486,43.017376 83.017960,43.055187 
	C80.657265,42.009312 78.296562,40.963436 75.594887,39.870148 
z"/>
<path fill="#9C6C5F" opacity="1.000000" stroke="none" 
	d="
M52.037079,72.045090 
	C48.313351,72.179558 47.832161,70.118279 48.081406,67.487595 
	C48.341179,64.745743 50.198250,64.240814 52.258610,65.025230 
	C53.958477,65.672401 56.470554,66.804848 56.719646,68.090866 
	C57.215714,70.651962 55.355976,72.286758 52.037079,72.045090 
z"/>
<path fill="#3C3530" opacity="1.000000" stroke="none" 
	d="
M49.971558,87.671432 
	C48.207088,87.700699 46.448582,87.351334 44.321152,87.006607 
	C43.952232,87.011246 43.985146,87.054016 43.891235,86.812225 
	C43.513260,86.386543 43.229195,86.202660 42.975456,86.022285 
	C43.005779,86.025795 42.962673,86.069023 42.945705,85.703407 
	C41.850239,84.588791 40.771740,83.839790 39.386509,83.134491 
	C38.670856,83.128983 38.261944,83.079758 37.889168,82.663383 
	C37.618633,81.198578 37.311951,80.100914 37.005272,79.003258 
	C36.990402,78.832443 36.975533,78.661636 37.026703,78.242081 
	C39.940903,79.466675 42.949421,80.704529 45.580669,82.496391 
	C47.325771,83.684784 48.530746,85.666321 49.971558,87.671432 
z"/>
<path fill="#382F29" opacity="1.000000" stroke="none" 
	d="
M68.066147,75.268341 
	C68.123589,75.809570 68.086403,76.050438 68.014542,76.655502 
	C66.546326,76.358093 64.218369,76.027748 63.829990,74.979080 
	C61.871643,69.691330 58.413609,64.484634 61.756779,58.229004 
	C61.254978,64.628548 62.593906,70.502945 68.066147,75.268341 
z"/>
<path fill="#382F29" opacity="1.000000" stroke="none" 
	d="
M63.639114,56.044544 
	C63.490158,56.595470 63.021210,57.190678 62.292068,57.916458 
	C62.460964,57.394295 62.890045,56.741562 63.639114,56.044544 
z"/>
<path fill="#544B46" opacity="1.000000" stroke="none" 
	d="
M83.137970,43.298363 
	C83.435486,43.017376 83.853004,42.979561 84.582504,42.908054 
	C84.697639,43.360485 84.500801,43.846615 84.303963,44.332741 
	C83.955307,44.069004 83.606644,43.805271 83.137970,43.298363 
z"/>
<path fill="#2B2622" opacity="1.000000" stroke="none" 
	d="
M86.973038,54.733891 
	C86.622017,54.573227 86.272240,54.103271 85.938858,53.324306 
	C86.294922,53.485065 86.634598,53.954830 86.973038,54.733891 
z"/>
<path fill="#2B2622" opacity="1.000000" stroke="none" 
	d="
M87.970612,56.733116 
	C87.644089,56.567204 87.313927,56.090576 86.966782,55.310871 
	C87.288864,55.479328 87.627914,55.950863 87.970612,56.733116 
z"/>
<path fill="#544B46" opacity="1.000000" stroke="none" 
	d="
M81.857140,34.649105 
	C81.973778,34.767754 81.503250,34.931252 81.255066,34.950142 
	C81.251419,34.822842 81.495964,34.676651 81.857140,34.649105 
z"/>
<path fill="#2B2622" opacity="1.000000" stroke="none" 
	d="
M84.899994,51.860420 
	C84.805923,52.074135 84.632187,52.098480 84.197220,52.086807 
	C84.230774,51.924210 84.525551,51.797626 84.899994,51.860420 
z"/>
<path fill="#2B2622" opacity="1.000000" stroke="none" 
	d="
M85.885162,52.802490 
	C85.681244,52.871445 85.382599,52.705223 85.022888,52.279350 
	C85.238022,52.202236 85.514229,52.384773 85.885162,52.802490 
z"/>
<path fill="#35454C" opacity="1.000000" stroke="none" 
	d="
M63.966419,142.011261 
	C56.859547,139.335861 49.752674,136.660461 42.134983,133.713104 
	C41.686142,132.500870 41.379105,131.233353 41.873154,130.676193 
	C44.172203,128.083511 46.692894,125.687347 49.385475,123.063248 
	C50.354126,122.259834 51.071587,121.614044 52.109974,120.998993 
	C52.959652,121.345444 53.488403,121.661156 53.873344,122.277008 
	C50.173153,127.221275 55.653763,129.084030 57.028580,131.952881 
	C58.829891,135.711700 62.269325,138.685486 64.744720,142.000153 
	C64.312332,142.006012 64.139374,142.008636 63.966419,142.011261 
z"/>
<path fill="#AA7309" opacity="1.000000" stroke="none" 
	d="
M49.134285,123.220871 
	C46.692894,125.687347 44.172203,128.083511 41.873154,130.676193 
	C41.379105,131.233353 41.686142,132.500870 41.729622,133.711914 
	C40.099987,134.530792 38.364891,135.078918 35.993462,135.786011 
	C34.242702,135.222092 33.128269,134.499237 32.013836,133.776367 
	C30.380032,128.800064 28.746227,123.823746 27.237123,118.483711 
	C28.540394,119.907364 29.629488,121.763802 30.934086,123.453888 
	C31.618662,124.340744 32.680824,124.936134 34.130981,125.548096 
	C37.142368,128.136520 39.789398,127.204849 41.905136,125.277634 
	C42.455631,124.776199 41.349262,122.455811 41.003891,120.970871 
	C43.350136,121.000969 45.696381,121.031067 48.501366,121.427811 
	C49.018166,122.269928 49.076225,122.745399 49.134285,123.220871 
z"/>
<path fill="#24201C" opacity="1.000000" stroke="none" 
	d="
M85.303619,152.268738 
	C82.292198,152.216980 79.280968,152.331161 76.325958,151.976685 
	C71.388123,151.384354 69.646446,153.653610 69.984428,158.265823 
	C70.105652,159.920029 70.012856,161.589920 70.001511,163.729767 
	C64.713776,160.458511 67.259933,155.389236 67.877441,150.292877 
	C73.387985,150.283096 78.720123,150.656433 84.582764,151.319946 
	C85.191307,151.781006 85.269356,151.951874 85.347397,152.122742 
	C85.347397,152.122742 85.329094,152.224014 85.303619,152.268738 
z"/>
<path fill="#313F47" opacity="1.000000" stroke="none" 
	d="
M64.133484,142.259399 
	C64.139374,142.008636 64.312332,142.006012 65.167809,141.999786 
	C73.257225,141.328766 80.664116,140.661331 88.298599,140.134460 
	C88.697906,140.582886 88.869629,140.890747 89.042542,141.418365 
	C89.043732,141.638107 89.021980,142.077072 89.021980,142.077072 
	C83.166954,142.281219 77.301605,142.351120 71.465363,142.799652 
	C70.258484,142.892395 69.159851,144.393539 68.006531,145.648102 
	C66.768005,144.869614 65.534279,143.688568 64.133484,142.259399 
z"/>
<path fill="#4A391D" opacity="1.000000" stroke="none" 
	d="
M31.597279,133.861023 
	C33.128269,134.499237 34.242702,135.222092 35.698189,135.970322 
	C35.262794,136.581055 34.281506,137.818298 33.742237,137.648819 
	C29.370018,136.274948 25.080675,134.637314 20.395168,133.030151 
	C20.004276,132.441269 19.984282,131.902283 19.990669,130.955750 
	C23.738274,131.680695 27.459496,132.813187 31.597279,133.861023 
z"/>
<path fill="#716A5C" opacity="1.000000" stroke="none" 
	d="
M21.991123,143.006714 
	C22.105177,143.143204 22.227737,143.272980 22.350300,143.402756 
	C22.269852,143.353394 22.189404,143.304047 22.060905,143.118805 
	C22.012856,142.982941 21.999632,143.000000 21.991123,143.006714 
z"/>
<path fill="#443D37" opacity="1.000000" stroke="none" 
	d="
M86.071205,108.444305 
	C85.371857,109.241447 84.672508,110.038589 83.415268,111.006668 
	C82.580780,111.476051 82.304192,111.774498 82.027603,112.072937 
	C82.027603,112.072937 82.099533,112.028206 81.743896,112.050652 
	C73.596626,114.548416 65.804977,117.023743 57.284275,119.730675 
	C57.125687,116.632736 57.026051,114.686325 56.919769,112.370056 
	C56.901348,111.013680 56.889572,110.027168 56.937923,108.718430 
	C56.959129,107.963188 56.920204,107.530190 56.936832,106.761322 
	C56.945248,105.977150 56.898113,105.528831 56.890541,104.816788 
	C56.962337,104.378220 56.994572,104.203377 57.392658,104.007706 
	C58.491280,103.963074 59.224045,103.939270 60.349915,103.968292 
	C62.167274,103.623260 63.591534,103.225395 65.434631,102.889374 
	C69.817375,101.944572 73.781265,100.937927 78.133850,99.920349 
	C81.345940,98.935097 84.169327,97.960777 87.247772,96.990952 
	C87.672867,96.993546 87.842918,96.991638 88.021774,97.370193 
	C89.710266,101.351547 88.220123,104.256073 86.017906,107.360977 
	C86.048508,107.962769 86.059860,108.203537 86.071205,108.444305 
z"/>
<path fill="#2F2721" opacity="1.000000" stroke="none" 
	d="
M56.926411,112.739914 
	C57.026051,114.686325 57.125687,116.632736 57.284275,119.730675 
	C65.804977,117.023743 73.596626,114.548416 81.765717,112.086945 
	C79.474022,114.768005 76.804878,117.435204 74.167221,120.070930 
	C74.685837,120.501755 75.774742,121.406311 76.932022,122.656097 
	C77.000397,123.001328 76.964897,123.072617 76.555084,123.061020 
	C68.875038,120.509018 61.388412,122.433022 54.017155,121.976868 
	C53.488403,121.661156 52.959652,121.345444 52.184532,120.783043 
	C51.938164,120.536354 52.043232,120.092850 52.410824,120.023392 
	C54.161079,117.549255 55.543747,115.144585 56.926411,112.739914 
z"/>
<path fill="#2C221B" opacity="1.000000" stroke="none" 
	d="
M85.998650,106.999939 
	C88.220123,104.256073 89.710266,101.351547 88.027763,97.120697 
	C88.024963,96.490730 88.006271,95.991653 88.003036,95.995903 
	C87.999802,96.000153 87.992287,96.008011 88.227570,95.916412 
	C88.642738,95.549057 88.822624,95.273315 89.001251,94.998779 
	C89.000000,95.000000 88.997635,95.001854 89.203018,95.032043 
	C89.408409,95.062241 89.821266,95.106079 89.821266,95.106079 
	C90.686073,95.099449 91.550880,95.092819 92.681274,95.015503 
	C93.408531,96.213921 93.870209,97.483025 94.625343,98.853119 
	C92.617477,101.673782 90.316147,104.393463 87.339272,107.084717 
	C86.442032,107.037514 86.220337,107.018730 85.998650,106.999939 
z"/>
<path fill="#1F282C" opacity="1.000000" stroke="none" 
	d="
M89.041351,141.198608 
	C88.869629,140.890747 88.697906,140.582886 88.301659,139.712463 
	C87.361351,135.786316 86.645569,132.422729 85.808159,128.748306 
	C84.789085,126.666718 83.891640,124.895950 82.994194,123.125183 
	C84.067291,123.075043 85.140396,123.024895 86.612411,123.043716 
	C88.037849,127.839371 89.064369,132.566055 90.155899,137.717407 
	C90.187759,138.873688 90.154617,139.605331 89.852921,140.718933 
	C89.403358,141.133484 89.222359,141.166046 89.041351,141.198608 
z"/>
<path fill="#31403A" opacity="1.000000" stroke="none" 
	d="
M82.573296,123.068840 
	C83.891640,124.895950 84.789085,126.666718 85.484619,128.772461 
	C84.134201,130.059250 82.985710,131.011047 81.927856,131.621368 
	C83.440460,127.511810 82.279495,125.345985 78.004959,124.775543 
	C77.568184,124.039742 77.266541,123.556183 76.964897,123.072617 
	C76.964897,123.072617 77.000397,123.001328 77.029984,122.974258 
	C78.757179,122.968956 80.454788,122.990730 82.573296,123.068840 
z"/>
<path fill="#90431F" opacity="1.000000" stroke="none" 
	d="
M101.463974,92.735367 
	C102.881096,90.909599 104.584923,88.950249 106.630783,86.981934 
	C105.232109,88.849236 103.491386,90.725510 101.463974,92.735367 
z"/>
<path fill="#90431F" opacity="1.000000" stroke="none" 
	d="
M109.357620,85.012619 
	C109.818008,83.972733 110.660942,82.969475 111.757576,81.735748 
	C111.254242,82.686607 110.497200,83.867935 109.357620,85.012619 
z"/>
<path fill="#90431F" opacity="1.000000" stroke="none" 
	d="
M112.817200,82.536331 
	C113.158035,82.660439 113.545311,83.057762 113.918755,83.766121 
	C113.557831,83.654617 113.210739,83.232079 112.817200,82.536331 
z"/>
<path fill="#2F2721" opacity="1.000000" stroke="none" 
	d="
M82.346901,112.046600 
	C82.304192,111.774498 82.580780,111.476051 83.168930,111.112595 
	C83.209053,111.371803 82.937630,111.696030 82.346901,112.046600 
z"/>
<path fill="#2F2721" opacity="1.000000" stroke="none" 
	d="
M86.017906,107.360977 
	C86.220337,107.018730 86.442032,107.037514 86.994446,107.105049 
	C87.077011,107.470436 86.828850,107.787079 86.325943,108.274017 
	C86.059860,108.203537 86.048508,107.962769 86.017906,107.360977 
z"/>
<path fill="#90431F" opacity="1.000000" stroke="none" 
	d="
M108.258530,85.961319 
	C108.128784,85.668831 108.283791,85.360558 108.709244,85.012695 
	C108.834221,85.297241 108.688759,85.621384 108.258530,85.961319 
z"/>
<path fill="#90431F" opacity="1.000000" stroke="none" 
	d="
M107.258957,86.961258 
	C107.127357,86.665970 107.280693,86.356186 107.705582,86.010139 
	C107.832718,86.298172 107.688309,86.622467 107.258957,86.961258 
z"/>
<path fill="#5F7B89" opacity="1.000000" stroke="none" 
	d="
M89.042542,141.418365 
	C89.222359,141.166046 89.403358,141.133484 89.860405,141.086288 
	C90.232368,141.868774 90.328285,142.665894 90.424210,143.462997 
	C89.981186,143.196503 89.538162,142.929993 89.058563,142.370270 
	C89.021980,142.077072 89.043732,141.638107 89.042542,141.418365 
z"/>
<path fill="#433D38" opacity="1.000000" stroke="none" 
	d="
M85.513977,151.980362 
	C85.269356,151.951874 85.191307,151.781006 85.047913,151.336334 
	C85.215225,151.321014 85.447884,151.579498 85.513977,151.980362 
z"/>
<path fill="#261E19" opacity="1.000000" stroke="none" 
	d="
M93.194290,74.234093 
	C93.249336,74.987000 92.942665,75.840202 92.342667,76.885361 
	C92.310410,76.163010 92.571495,75.248695 93.194290,74.234093 
z"/>
<path fill="#261E19" opacity="1.000000" stroke="none" 
	d="
M91.822334,77.166489 
	C91.917435,77.588829 91.741348,78.167519 91.304276,78.911728 
	C91.212578,78.492447 91.381859,77.907646 91.822334,77.166489 
z"/>
<path fill="#2C221B" opacity="1.000000" stroke="none" 
	d="
M86.992706,96.986450 
	C84.169327,97.960777 81.345940,98.935097 78.200043,99.535446 
	C78.279648,97.456352 78.681755,95.751236 79.051315,94.028885 
	C79.018776,94.011658 79.023674,94.085136 79.284897,94.259583 
	C79.725685,94.326256 79.905235,94.218483 80.322113,93.985687 
	C81.098915,93.197838 81.638397,92.535027 82.177887,91.872215 
	C84.936432,91.414055 87.982521,89.169579 89.728546,93.649513 
	C89.141380,94.369041 88.997841,94.648651 88.997635,95.001854 
	C88.997635,95.001854 89.000000,95.000000 88.757996,95.079491 
	C88.341423,95.441994 88.166855,95.724998 87.992287,96.008011 
	C87.992287,96.008011 87.999802,96.000153 87.764305,96.077492 
	C87.350113,96.432037 87.171410,96.709244 86.992706,96.986450 
z"/>
<path fill="#B44A18" opacity="1.000000" stroke="none" 
	d="
M82.146149,91.413239 
	C81.638397,92.535027 81.098915,93.197838 80.217163,93.799011 
	C79.591156,93.853287 79.307419,93.969208 79.023674,94.085136 
	C79.023674,94.085136 79.018776,94.011658 78.671387,94.036880 
	C74.278084,95.104424 70.232170,96.146736 66.158218,96.988800 
	C66.130188,96.788544 66.096947,96.385513 66.096947,96.385513 
	C71.166092,94.274254 76.235237,92.163002 81.676178,90.044128 
	C82.070114,90.342430 82.092255,90.648346 82.146149,91.413239 
z"/>
<path fill="#5B4726" opacity="1.000000" stroke="none" 
	d="
M89.203018,95.032043 
	C88.997841,94.648651 89.141380,94.369041 89.642761,94.047791 
	C89.869110,94.128494 89.880966,94.324440 89.857040,94.813232 
	C89.821266,95.106079 89.408409,95.062241 89.203018,95.032043 
z"/>
<path fill="#FDBA2D" opacity="1.000000" stroke="none" 
	d="
M40.772263,120.963165 
	C41.349262,122.455811 42.455631,124.776199 41.905136,125.277634 
	C39.789398,127.204849 37.142368,128.136520 34.370743,125.288864 
	C33.477890,124.418373 32.903786,123.692062 31.609167,122.054230 
	C34.754025,121.712265 37.098164,121.457359 39.761261,121.052261 
	C40.080219,120.902054 40.540638,120.955467 40.772263,120.963165 
z"/>
<path fill="#F3AC21" opacity="1.000000" stroke="none" 
	d="
M26.062355,101.110809 
	C25.889196,100.785660 26.042809,100.323578 26.368855,100.005028 
	C27.129013,99.457954 27.563126,99.229439 27.998581,99.000458 
	C27.999924,99.000000 28.000767,99.002747 28.157616,99.317001 
	C29.879053,101.087852 31.443645,102.544434 33.006973,104.408371 
	C33.353378,106.576569 33.701046,108.337402 34.015648,110.370262 
	C33.696732,111.079010 33.410885,111.515724 33.125038,111.952446 
	C30.828529,108.446953 28.532022,104.941460 26.062355,101.110809 
z"/>
<path fill="#EC9D0A" opacity="1.000000" stroke="none" 
	d="
M39.913975,116.994576 
	C39.402813,116.864464 38.891651,116.734360 38.187473,115.997147 
	C37.999851,114.588394 38.005245,113.786751 38.003250,112.995399 
	C37.995857,113.005699 37.980980,113.026245 38.241348,112.931282 
	C38.995289,112.597862 39.488861,112.359413 40.157124,112.348900 
	C40.873943,112.728157 41.416065,112.879478 41.969597,113.358025 
	C42.003166,114.121223 42.025330,114.557182 42.018356,115.327408 
	C41.992165,116.108788 41.995106,116.555901 41.999023,117.001511 
	C42.000000,117.000000 42.002182,116.997757 41.654625,116.988983 
	C40.842705,116.984993 40.378338,116.989784 39.913975,116.994576 
z"/>
<path fill="#AA7309" opacity="1.000000" stroke="none" 
	d="
M48.963280,119.985764 
	C48.493023,119.955933 48.022766,119.926102 47.392708,119.569740 
	C47.421982,118.145592 47.611061,117.047974 47.836689,115.719009 
	C47.873241,115.487656 47.811977,115.023056 47.884697,114.658112 
	C48.017803,113.552094 48.078190,112.811028 48.529541,112.114761 
	C49.336548,114.736061 49.752586,117.312546 49.867966,119.921677 
	C49.365963,119.964798 49.164619,119.975281 48.963280,119.985764 
z"/>
<path fill="#EC9D0A" opacity="1.000000" stroke="none" 
	d="
M33.221703,112.228241 
	C33.410885,111.515724 33.696732,111.079010 34.346214,110.376648 
	C35.761978,110.418381 36.814110,110.725746 37.900726,111.363983 
	C37.950462,112.138649 37.965721,112.582443 37.980980,113.026245 
	C37.980980,113.026245 37.995857,113.005699 37.738121,113.105637 
	C36.947964,113.750648 36.415546,114.295731 35.883125,114.840805 
	C35.028206,114.061882 34.173286,113.282959 33.221703,112.228241 
z"/>
<path fill="#EC9D0A" opacity="1.000000" stroke="none" 
	d="
M45.834869,119.122688 
	C44.784462,118.873932 43.734051,118.625175 42.365974,117.944496 
	C42.032932,117.340965 42.017559,117.169365 42.002182,116.997757 
	C42.002182,116.997757 42.000000,117.000000 42.249043,116.847046 
	C42.696877,116.153328 42.895668,115.612564 43.411270,115.060623 
	C44.150551,115.039207 44.573025,115.028946 45.152870,115.261566 
	C45.845097,115.686478 46.379955,115.868515 46.902328,116.379509 
	C46.538189,117.513206 46.186527,118.317947 45.834869,119.122688 
z"/>
<path fill="#8D630E" opacity="1.000000" stroke="none" 
	d="
M48.946640,120.263794 
	C49.164619,119.975281 49.365963,119.964798 50.181728,119.940018 
	C51.211842,119.981438 51.627537,120.037148 52.043232,120.092850 
	C52.043232,120.092850 51.938164,120.536354 51.863609,120.752304 
	C51.071587,121.614044 50.354126,122.259834 49.385475,123.063248 
	C49.076225,122.745399 49.018166,122.269928 48.898067,121.442688 
	C48.867352,120.907890 48.898678,120.724861 48.946640,120.263794 
z"/>
<path fill="#E3B34C" opacity="1.000000" stroke="none" 
	d="
M36.059441,115.122498 
	C36.415546,114.295731 36.947964,113.750648 37.745510,113.095337 
	C38.005245,113.786751 37.999851,114.588394 38.011944,115.794815 
	C37.431538,115.934456 36.833645,115.669327 36.059441,115.122498 
z"/>
<path fill="#E9AC2E" opacity="1.000000" stroke="none" 
	d="
M45.958088,119.298431 
	C46.186527,118.317947 46.538189,117.513206 47.123795,116.351059 
	C47.357746,115.993645 47.800140,115.950356 47.800140,115.950356 
	C47.611061,117.047974 47.421982,118.145592 47.042122,119.525429 
	C46.551636,119.795921 46.294960,119.684761 45.958088,119.298431 
z"/>
<path fill="#FBBA2F" opacity="1.000000" stroke="none" 
	d="
M41.654625,116.988983 
	C42.017559,117.169365 42.032932,117.340965 42.091133,117.768028 
	C41.523506,117.852020 40.913059,117.680557 40.108295,117.251831 
	C40.378338,116.989784 40.842705,116.984993 41.654625,116.988983 
z"/>
<path fill="#FDBA2D" opacity="1.000000" stroke="none" 
	d="
M36.022041,118.543251 
	C35.781734,118.672401 35.400482,118.603683 35.003883,118.288986 
	C35.337791,117.991135 35.635311,118.091927 36.022041,118.543251 
z"/>
<path fill="#FDBA2D" opacity="1.000000" stroke="none" 
	d="
M36.654343,79.001122 
	C37.311951,80.100914 37.618633,81.198578 37.747551,82.847519 
	C38.359154,83.940018 39.148518,84.481239 39.970402,85.019577 
	C40.002922,85.016708 39.954151,85.060127 39.821075,85.362183 
	C38.796383,87.439064 37.904770,89.213890 36.688782,91.027092 
	C35.904572,91.710236 35.444733,92.355003 34.658543,93.003036 
	C33.886616,93.669899 33.441044,94.333504 33.036186,95.328499 
	C33.749306,96.104279 34.421703,96.548653 35.357471,97.013046 
	C35.761017,97.088127 35.930050,97.112045 36.032913,97.207367 
	C36.128010,97.295479 36.205189,97.572746 36.200161,97.575111 
	C35.155567,98.066261 34.102985,98.540405 32.715195,98.983711 
	C30.920078,98.969131 29.460423,98.985939 28.000767,99.002747 
	C28.000767,99.002747 27.999924,99.000000 27.999367,98.625359 
	C27.999308,97.500580 27.999807,96.750443 28.350824,95.994576 
	C29.471684,94.175331 30.242022,92.361816 31.012360,90.548302 
	C30.263180,90.342995 29.513998,90.137688 28.764816,89.932381 
	C28.509775,91.954819 28.254736,93.977257 27.702427,95.999649 
	C27.009466,95.998085 26.613773,95.996559 26.218081,95.995041 
	C25.897177,93.873474 25.576275,91.751915 25.203770,89.317108 
	C26.304478,88.647369 28.441580,88.305397 28.447084,87.931999 
	C28.479475,85.734749 28.015137,83.530174 27.880610,81.147583 
	C28.708668,80.216377 29.374268,79.465660 30.062077,78.363953 
	C32.618847,75.430672 34.114243,79.402794 36.654343,79.001122 
z"/>
<path fill="#FBBA2F" opacity="1.000000" stroke="none" 
	d="
M26.165962,96.383484 
	C26.613773,95.996559 27.009466,95.998085 27.702579,95.999802 
	C28.000000,96.000000 28.000305,96.000305 28.000305,96.000305 
	C27.999807,96.750443 27.999308,97.500580 27.998024,98.625824 
	C27.563126,99.229439 27.129013,99.457954 26.474571,99.785706 
	C26.207441,98.847267 26.160641,97.809608 26.165962,96.383484 
z"/>
<path fill="#1E1917" opacity="1.000000" stroke="none" 
	d="
M73.897079,63.777187 
	C76.529724,62.657413 79.134460,61.459366 81.824402,60.500278 
	C82.239128,60.352409 83.621704,61.398327 83.566917,61.727417 
	C83.369064,62.916168 83.074829,64.510834 82.227287,65.091461 
	C79.536087,66.935135 76.579056,68.390762 73.368896,69.597427 
	C73.307709,67.391380 73.602394,65.584282 73.897079,63.777187 
z"/>
<path fill="#24201C" opacity="1.000000" stroke="none" 
	d="
M73.529434,63.809563 
	C73.602394,65.584282 73.307709,67.391380 73.006989,69.589554 
	C72.546135,69.801857 72.028931,69.708504 71.647163,69.429703 
	C69.875595,68.135971 66.484291,66.424461 66.682510,65.527832 
	C67.517181,61.752106 70.738762,63.685364 73.529434,63.809563 
z"/>
<path fill="#E36D35" opacity="1.000000" stroke="none" 
	d="
M75.579346,54.726963 
	C74.879539,55.860676 73.898788,56.935646 72.918037,58.010620 
	C72.504135,57.587044 72.090240,57.163471 71.676338,56.739895 
	C72.883690,56.049339 74.091042,55.358780 75.579346,54.726963 
z"/>
<path fill="#91630C" opacity="1.000000" stroke="none" 
	d="
M65.691315,96.254730 
	C66.096947,96.385513 66.130188,96.788544 66.048943,97.334312 
	C65.650398,99.529236 65.333092,101.178383 65.015793,102.827530 
	C63.591534,103.225395 62.167274,103.623260 60.309639,103.574028 
	C57.249657,102.787689 54.623058,102.448448 51.927727,101.821632 
	C51.573341,101.022369 51.287693,100.510674 51.254753,99.816177 
	C51.669647,98.831818 51.831833,98.030258 52.320789,97.339211 
	C57.115269,101.071274 58.950691,101.041023 61.706322,97.686447 
	C58.864105,96.564499 55.881523,95.387138 52.898937,94.209778 
	C57.027855,94.847832 61.156773,95.485893 65.691315,96.254730 
z"/>
<path fill="#8D630E" opacity="1.000000" stroke="none" 
	d="
M51.994022,97.228691 
	C51.831833,98.030258 51.669647,98.831818 50.965694,99.699028 
	C49.649055,99.499138 48.874184,99.233604 47.939560,98.712982 
	C46.873596,97.756325 45.967392,97.054756 44.786644,96.191666 
	C43.768185,95.669060 43.024273,95.307968 42.084923,94.796181 
	C41.698460,94.360840 41.441292,94.161499 41.106575,94.027336 
	C41.095165,94.007225 41.053612,94.027512 41.287148,93.970367 
	C41.697208,93.638496 41.801331,93.338631 42.108631,92.834915 
	C41.896812,90.453636 41.409420,88.251068 41.262138,86.051285 
	C42.055725,86.059052 42.509201,86.064041 42.962673,86.069023 
	C42.962673,86.069023 43.005779,86.025795 43.060028,86.270020 
	C43.404568,86.694168 43.694859,86.874092 43.985146,87.054016 
	C43.985146,87.054016 43.952232,87.011246 43.931915,87.030487 
	C45.207920,88.511322 46.504238,89.972916 47.946857,92.120766 
	C49.393448,94.280907 50.693737,95.754799 51.994022,97.228691 
z"/>
<path fill="#E9AC2E" opacity="1.000000" stroke="none" 
	d="
M52.320789,97.339211 
	C50.693737,95.754799 49.393448,94.280907 48.048851,92.449432 
	C49.424690,92.715576 50.844833,93.339294 52.581955,94.086395 
	C55.881523,95.387138 58.864105,96.564499 61.706322,97.686447 
	C58.950691,101.041023 57.115269,101.071274 52.320789,97.339211 
z"/>
<path fill="#261E19" opacity="1.000000" stroke="none" 
	d="
M42.945705,85.703407 
	C42.509201,86.064041 42.055725,86.059052 41.136917,85.852631 
	C40.494942,85.378326 40.255798,85.181297 39.954151,85.060127 
	C39.954151,85.060127 40.002922,85.016708 39.968552,84.693428 
	C39.853870,83.943695 39.773560,83.517235 39.693245,83.090782 
	C40.771740,83.839790 41.850239,84.588791 42.945705,85.703407 
z"/>
<path fill="#F3AE1B" opacity="1.000000" stroke="none" 
	d="
M39.386509,83.134491 
	C39.773560,83.517235 39.853870,83.943695 39.936035,84.696304 
	C39.148518,84.481239 38.359154,83.940018 37.711411,83.214661 
	C38.261944,83.079758 38.670856,83.128983 39.386509,83.134491 
z"/>
<path fill="#261E19" opacity="1.000000" stroke="none" 
	d="
M43.891235,86.812225 
	C43.694859,86.874092 43.404568,86.694168 43.029705,86.266510 
	C43.229195,86.202660 43.513260,86.386543 43.891235,86.812225 
z"/>
<path fill="#3F525A" opacity="1.000000" stroke="none" 
	d="
M76.555084,123.061020 
	C77.266541,123.556183 77.568184,124.039742 77.803436,125.082436 
	C77.500015,127.714111 77.263000,129.786667 77.025978,131.859207 
	C78.629730,131.893753 80.233475,131.928299 81.837227,131.962845 
	C82.985710,131.011047 84.134201,130.059250 85.606232,129.083282 
	C86.645569,132.422729 87.361351,135.786316 88.074066,139.571899 
	C80.664116,140.661331 73.257225,141.328766 65.427246,141.996567 
	C62.269325,138.685486 58.829891,135.711700 57.028580,131.952881 
	C55.653763,129.084030 50.173153,127.221275 53.873344,122.277008 
	C61.388412,122.433022 68.875038,120.509018 76.555084,123.061020 
z"/>
<path fill="#F3B532" opacity="1.000000" stroke="none" 
	d="
M52.410824,120.023392 
	C51.627537,120.037148 51.211842,119.981438 50.482384,119.907387 
	C49.752586,117.312546 49.336548,114.736061 48.485664,111.844925 
	C48.030827,111.349426 48.010838,111.168579 48.194458,110.731140 
	C48.906330,109.630608 49.818756,108.795601 49.837681,107.940819 
	C49.875622,106.226959 49.425236,104.502281 49.499146,102.841606 
	C50.035816,102.949753 50.249767,102.998367 50.482578,103.038834 
	C50.501438,103.030685 50.474560,102.999611 50.629593,103.280792 
	C50.841961,103.768211 50.899296,103.974449 51.158749,104.393387 
	C52.423122,107.050583 53.852207,109.038712 56.877796,109.040657 
	C56.889572,110.027168 56.901348,111.013680 56.919769,112.370056 
	C55.543747,115.144585 54.161079,117.549255 52.410824,120.023392 
z"/>
<path fill="#E7682C" opacity="1.000000" stroke="none" 
	d="
M65.434631,102.889374 
	C65.333092,101.178383 65.650398,99.529236 66.076973,97.534561 
	C70.232170,96.146736 74.278084,95.104424 78.703934,94.054108 
	C78.681755,95.751236 78.279648,97.456352 77.811356,99.546379 
	C73.781265,100.937927 69.817375,101.944572 65.434631,102.889374 
z"/>
<path fill="#ECC46F" opacity="1.000000" stroke="none" 
	d="
M56.937923,108.718430 
	C53.852207,109.038712 52.423122,107.050583 51.563110,104.371819 
	C52.572083,104.081390 53.378807,104.025246 54.390293,103.989258 
	C54.595055,104.009415 55.006420,103.998978 55.003441,103.999184 
	C55.000458,103.999390 54.999569,103.993904 55.087105,104.233330 
	C55.442696,104.679237 55.710751,104.885719 55.873329,105.332069 
	C56.138996,106.080353 56.510139,106.588768 56.881279,107.097183 
	C56.920204,107.530190 56.959129,107.963188 56.937923,108.718430 
z"/>
<path fill="#E9AC2E" opacity="1.000000" stroke="none" 
	d="
M50.474560,102.999611 
	C50.474560,102.999611 50.501438,103.030685 50.455376,102.830292 
	C50.409317,102.629898 50.492287,102.216713 50.744637,102.261398 
	C51.330143,102.240448 51.663303,102.174828 51.996460,102.109207 
	C54.623058,102.448448 57.249657,102.787689 59.916534,103.521194 
	C59.224045,103.939270 58.491280,103.963074 57.055756,103.972626 
	C55.901859,103.970215 55.450714,103.982056 54.999569,103.993896 
	C54.999569,103.993904 55.000458,103.999390 54.912651,103.764084 
	C54.541294,103.355843 54.257740,103.182907 53.536392,102.973816 
	C52.223919,102.958305 51.349239,102.978958 50.474560,102.999611 
z"/>
<path fill="#F3B532" opacity="1.000000" stroke="none" 
	d="
M56.936829,106.761322 
	C56.510139,106.588768 56.138996,106.080353 56.091232,105.312820 
	C56.414608,105.053711 56.850975,105.080521 56.850975,105.080521 
	C56.898113,105.528831 56.945248,105.977150 56.936829,106.761322 
z"/>
<path fill="#AA7309" opacity="1.000000" stroke="none" 
	d="
M56.890541,104.816788 
	C56.850975,105.080521 56.414608,105.053711 56.196709,105.072952 
	C55.710751,104.885719 55.442696,104.679237 55.087105,104.233322 
	C55.450714,103.982056 55.901859,103.970215 56.689903,103.993446 
	C56.994572,104.203377 56.962337,104.378220 56.890541,104.816788 
z"/>
<path fill="#5B4726" opacity="1.000000" stroke="none" 
	d="
M87.247765,96.990952 
	C87.171410,96.709244 87.350113,96.432037 87.767540,96.073242 
	C88.006271,95.991653 88.024963,96.490730 88.018967,96.740234 
	C87.842918,96.991638 87.672867,96.993546 87.247765,96.990952 
z"/>
<path fill="#5B4726" opacity="1.000000" stroke="none" 
	d="
M88.227570,95.916412 
	C88.166855,95.724998 88.341423,95.441994 88.759247,95.078278 
	C88.822624,95.273315 88.642738,95.549057 88.227570,95.916412 
z"/>
<path fill="#688716" opacity="1.000000" stroke="none" 
	d="
M81.927856,131.621368 
	C80.233475,131.928299 78.629730,131.893753 77.025978,131.859207 
	C77.263000,129.786667 77.500015,127.714111 77.938568,125.334671 
	C82.279495,125.345985 83.440460,127.511810 81.927856,131.621368 
z"/>
<path fill="#E7682C" opacity="1.000000" stroke="none" 
	d="
M79.284897,94.259583 
	C79.307419,93.969208 79.591156,93.853287 79.979843,93.924042 
	C79.905235,94.218483 79.725685,94.326256 79.284897,94.259583 
z"/>
<path fill="#FABC3A" opacity="1.000000" stroke="none" 
	d="
M49.176422,102.782074 
	C49.425236,104.502281 49.875622,106.226959 49.837681,107.940819 
	C49.818756,108.795601 48.906330,109.630608 47.822037,110.737144 
	C46.494961,112.004311 45.743919,113.008896 44.994003,114.264778 
	C44.995251,114.683617 44.995373,114.851158 44.995499,115.018692 
	C44.573025,115.028946 44.150551,115.039207 43.149445,115.034897 
	C42.396374,115.011276 42.221935,115.002213 42.047497,114.993149 
	C42.025330,114.557182 42.003166,114.121223 41.986313,113.345703 
	C41.991623,113.006157 42.008533,112.970795 42.354580,112.901550 
	C42.715134,111.401901 42.729641,109.971481 42.744148,108.541069 
	C42.119263,109.351913 41.494377,110.162758 40.646938,110.979416 
	C40.424389,110.985229 39.979500,111.003120 39.627991,110.998672 
	C38.806400,111.007195 38.336323,111.020157 37.866245,111.033112 
	C36.814110,110.725746 35.761978,110.418381 34.379276,110.104630 
	C33.701046,108.337402 33.353378,106.576569 33.249786,104.241676 
	C33.662319,103.116463 33.830784,102.565308 34.252602,102.100647 
	C35.325630,102.096756 36.145298,102.006363 37.066471,102.144012 
	C37.349018,102.661507 37.597076,102.871880 38.074764,103.299866 
	C41.998318,106.371078 41.742970,103.338043 42.227318,101.000931 
	C42.646313,100.988297 42.813923,100.985855 43.096390,101.212387 
	C43.493359,101.622269 43.775478,101.803154 44.454620,101.974823 
	C45.911514,101.976158 46.971386,101.986725 48.257317,102.072601 
	C48.791042,102.275520 49.022057,102.486916 49.176422,102.782074 
M35.585682,104.516174 
	C35.585682,104.516174 35.475582,104.581299 35.585682,104.516174 
z"/>
<path fill="#FBBA2F" opacity="1.000000" stroke="none" 
	d="
M33.999245,102.014153 
	C33.830784,102.565308 33.662319,103.116463 33.251045,103.834320 
	C31.443645,102.544434 29.879053,101.087852 28.157616,99.317001 
	C29.460423,98.985939 30.920078,98.969131 32.723492,99.302399 
	C33.377914,100.439697 33.688580,101.226929 33.999245,102.014153 
z"/>
<path fill="#FBBA2F" opacity="1.000000" stroke="none" 
	d="
M39.979500,111.003120 
	C39.979500,111.003120 40.424389,110.985229 40.792953,111.230705 
	C41.443855,111.974388 41.726192,112.472588 42.008533,112.970795 
	C42.008533,112.970795 41.991623,113.006157 41.974907,113.018478 
	C41.416065,112.879478 40.873943,112.728157 40.163551,112.068817 
	C39.990025,111.374893 39.984764,111.189011 39.979500,111.003120 
z"/>
<path fill="#FDC44B" opacity="1.000000" stroke="none" 
	d="
M39.627991,110.998672 
	C39.984764,111.189011 39.990025,111.374893 39.988853,111.840866 
	C39.488861,112.359413 38.995289,112.597862 38.241348,112.931282 
	C37.965721,112.582443 37.950462,112.138649 37.900726,111.363983 
	C38.336323,111.020157 38.806400,111.007195 39.627991,110.998672 
z"/>
<path fill="#FBBA2F" opacity="1.000000" stroke="none" 
	d="
M42.018356,115.327408 
	C42.221935,115.002213 42.396374,115.011276 42.832634,115.046066 
	C42.895668,115.612564 42.696877,116.153328 42.248066,116.848557 
	C41.995106,116.555901 41.992165,116.108788 42.018356,115.327408 
z"/>
<path fill="#FFB006" opacity="1.000000" stroke="none" 
	d="
M44.992878,114.013474 
	C45.743919,113.008896 46.494961,112.004311 47.618427,110.993729 
	C48.010838,111.168579 48.030827,111.349426 48.094696,111.800125 
	C48.078190,112.811028 48.017803,113.552094 47.588760,114.618088 
	C46.477695,114.633171 45.735287,114.323318 44.992878,114.013474 
z"/>
<path fill="#FBBA2F" opacity="1.000000" stroke="none" 
	d="
M44.994003,114.264778 
	C45.735287,114.323318 46.477695,114.633171 47.516041,114.983032 
	C47.811977,115.023056 47.873241,115.487656 47.836693,115.719009 
	C47.800140,115.950356 47.357746,115.993645 47.136280,116.022095 
	C46.379955,115.868515 45.845097,115.686478 45.152870,115.261566 
	C44.995373,114.851158 44.995251,114.683617 44.994003,114.264778 
z"/>
<path fill="#FFB006" opacity="1.000000" stroke="none" 
	d="
M34.252602,102.100647 
	C33.688580,101.226929 33.377914,100.439697 33.058952,99.333786 
	C34.102985,98.540405 35.155567,98.066261 36.200161,97.575111 
	C36.205189,97.572746 36.128010,97.295479 36.032913,97.207367 
	C35.930050,97.112045 35.761017,97.088127 35.334023,96.642181 
	C35.040100,95.509232 35.033001,94.767189 35.319717,93.898209 
	C36.409824,93.523628 37.206112,93.275986 38.104710,93.248779 
	C38.411297,93.737152 38.675205,93.918175 38.999817,94.005478 
	C39.000889,93.998665 38.987228,94.001793 38.995514,94.351105 
	C38.657898,95.789558 38.311996,96.878700 37.934364,98.301895 
	C37.873604,99.081184 37.844578,99.526421 37.599426,100.149094 
	C37.243858,100.856354 37.104416,101.386154 36.964973,101.915962 
	C36.145298,102.006363 35.325630,102.096756 34.252602,102.100647 
z"/>
<path fill="#F3AE1B" opacity="1.000000" stroke="none" 
	d="
M39.821075,85.362183 
	C40.255798,85.181297 40.494942,85.378326 40.796803,85.849846 
	C41.409420,88.251068 41.896812,90.453636 41.926689,92.957840 
	C41.243961,93.468544 41.105442,93.724556 41.053612,94.027512 
	C41.053612,94.027512 41.095165,94.007225 40.751106,94.000381 
	C39.933773,93.996284 39.460503,93.999039 38.987228,94.001785 
	C38.987228,94.001793 39.000889,93.998665 38.984123,93.704140 
	C38.622208,92.961281 38.277054,92.512939 37.719742,91.941872 
	C37.249149,91.598076 37.084339,91.321266 37.013153,90.988708 
	C37.904770,89.213890 38.796383,87.439064 39.821075,85.362183 
z"/>
<path fill="#FBBA2F" opacity="1.000000" stroke="none" 
	d="
M27.999847,95.999847 
	C28.254736,93.977257 28.509775,91.954819 28.764816,89.932381 
	C29.513998,90.137688 30.263180,90.342995 31.012360,90.548302 
	C30.242022,92.361816 29.471684,94.175331 28.350824,95.994576 
	C28.000305,96.000305 28.000000,96.000000 27.999847,95.999847 
z"/>
<path fill="#FDC44B" opacity="1.000000" stroke="none" 
	d="
M36.688782,91.027092 
	C37.084339,91.321266 37.249149,91.598076 37.742073,92.182205 
	C37.976555,92.545273 38.002396,93.028336 38.002396,93.028336 
	C37.206112,93.275986 36.409824,93.523628 35.310600,93.889717 
	C35.007668,94.008163 35.006107,94.004623 35.002007,93.753387 
	C34.993565,93.334679 34.989231,93.167221 34.984894,92.999771 
	C35.444733,92.355003 35.904572,91.710236 36.688782,91.027092 
z"/>
<path fill="#FDC44B" opacity="1.000000" stroke="none" 
	d="
M35.016785,94.016647 
	C35.033001,94.767189 35.040100,95.509232 35.070648,96.622154 
	C34.421703,96.548653 33.749306,96.104279 33.296898,95.223259 
	C34.013294,94.525955 34.509701,94.265289 35.006107,94.004623 
	C35.006107,94.004623 35.007668,94.008163 35.016785,94.016647 
z"/>
<path fill="#FBBA2F" opacity="1.000000" stroke="none" 
	d="
M35.002007,93.753387 
	C34.509701,94.265289 34.013294,94.525955 33.256180,94.891861 
	C33.441044,94.333504 33.886616,93.669899 34.658546,93.003036 
	C34.989231,93.167221 34.993565,93.334679 35.002007,93.753387 
z"/>
<path fill="#AA7309" opacity="1.000000" stroke="none" 
	d="
M51.927727,101.821640 
	C51.663303,102.174828 51.330143,102.240448 50.404312,101.997086 
	C49.014385,101.427223 48.217136,101.166359 47.202896,100.744064 
	C46.743462,100.282310 46.501011,99.981987 46.584213,99.608826 
	C47.306355,99.346687 47.702835,99.157379 48.099316,98.968071 
	C48.874184,99.233604 49.649055,99.499138 50.712986,99.881821 
	C51.287693,100.510674 51.573341,101.022369 51.927727,101.821640 
z"/>
<path fill="#FBBA2F" opacity="1.000000" stroke="none" 
	d="
M38.995514,94.351105 
	C39.460503,93.999039 39.933773,93.996284 40.762512,94.020493 
	C41.441292,94.161499 41.698460,94.360840 42.067596,95.033279 
	C42.245697,95.421082 42.281811,95.895622 41.969372,96.015434 
	C41.079353,96.777596 40.501774,97.419952 39.599426,98.037247 
	C38.838467,97.997406 38.402283,97.982620 37.966095,97.967834 
	C38.311996,96.878700 38.657898,95.789558 38.995514,94.351105 
z"/>
<path fill="#E9AC2E" opacity="1.000000" stroke="none" 
	d="
M47.939560,98.712982 
	C47.702835,99.157379 47.306355,99.346687 46.490143,99.542252 
	C45.840199,99.317238 45.621922,99.075775 45.388618,98.406700 
	C45.261505,97.443916 45.161346,96.898552 45.061188,96.353195 
	C45.967392,97.054756 46.873596,97.756325 47.939560,98.712982 
z"/>
<path fill="#9C6C5F" opacity="1.000000" stroke="none" 
	d="
M44.786644,96.191666 
	C45.161346,96.898552 45.261505,97.443916 45.045162,98.155182 
	C44.471897,98.220016 44.215130,98.118927 43.843597,97.766647 
	C43.246490,96.975517 42.764153,96.435570 42.281811,95.895622 
	C42.281811,95.895622 42.245697,95.421082 42.263027,95.183975 
	C43.024273,95.307968 43.768185,95.669060 44.786644,96.191666 
z"/>
<path fill="#FBBA2F" opacity="1.000000" stroke="none" 
	d="
M41.287148,93.970367 
	C41.105442,93.724556 41.243961,93.468544 41.651115,93.136551 
	C41.801331,93.338631 41.697208,93.638496 41.287148,93.970367 
z"/>
<path fill="#6D5E54" opacity="1.000000" stroke="none" 
	d="
M47.419884,100.905495 
	C48.217136,101.166359 49.014385,101.427223 50.151962,101.952400 
	C50.492287,102.216713 50.409317,102.629898 50.436516,102.838440 
	C50.249767,102.998367 50.035816,102.949753 49.499146,102.841606 
	C49.022057,102.486916 48.791042,102.275520 48.138939,101.780273 
	C47.669624,101.243599 47.544754,101.074547 47.419884,100.905495 
z"/>
<path fill="#9C6C5F" opacity="1.000000" stroke="none" 
	d="
M50.629593,103.280792 
	C51.349239,102.978958 52.223919,102.958305 53.563034,103.219376 
	C54.027473,103.501099 54.185532,103.969109 54.185532,103.969109 
	C53.378807,104.025246 52.572083,104.081390 51.360992,104.159103 
	C50.899296,103.974449 50.841961,103.768211 50.629593,103.280792 
z"/>
<path fill="#AA7309" opacity="1.000000" stroke="none" 
	d="
M54.390293,103.989258 
	C54.185532,103.969109 54.027473,103.501099 54.000832,103.255539 
	C54.257740,103.182907 54.541294,103.355843 54.915634,103.763870 
	C55.006420,103.998978 54.595055,104.009415 54.390293,103.989258 
z"/>
<path fill="#FFB006" opacity="1.000000" stroke="none" 
	d="
M41.975933,101.011116 
	C41.742970,103.338043 41.998318,106.371078 38.129906,102.988876 
	C38.378159,101.624718 38.733887,100.868225 39.319649,100.098892 
	C39.549690,100.086052 40.010250,100.100647 40.179222,100.333092 
	C40.892239,100.714531 41.436279,100.863518 41.988300,101.008270 
	C41.996281,101.004028 41.975933,101.011116 41.975933,101.011116 
z"/>
<path fill="#F8B118" opacity="1.000000" stroke="none" 
	d="
M41.969372,96.015434 
	C42.764153,96.435570 43.246490,96.975517 43.853832,98.135422 
	C43.991451,99.492149 44.004063,100.228920 43.757786,100.964111 
	C43.326443,100.969490 43.153988,100.976448 42.981533,100.983406 
	C42.813923,100.985855 42.646313,100.988297 42.227318,101.000931 
	C41.975933,101.011116 41.996281,101.004028 41.883781,100.734932 
	C41.183372,99.975349 40.595455,99.484863 39.982323,98.761749 
	C39.957100,98.529121 39.924194,98.062302 39.924194,98.062302 
	C40.501774,97.419952 41.079353,96.777596 41.969372,96.015434 
z"/>
<path fill="#FFB006" opacity="1.000000" stroke="none" 
	d="
M42.354580,112.901550 
	C41.726192,112.472588 41.443855,111.974388 41.015503,111.224892 
	C41.494377,110.162758 42.119263,109.351913 42.744148,108.541069 
	C42.729641,109.971481 42.715134,111.401901 42.354580,112.901550 
z"/>
<path fill="#E3B34C" opacity="1.000000" stroke="none" 
	d="
M44.016674,100.965698 
	C44.004063,100.228920 43.991451,99.492149 43.968601,98.386604 
	C44.215130,98.118927 44.471897,98.220016 45.072117,98.572617 
	C45.621922,99.075775 45.840199,99.317238 46.164482,99.615097 
	C46.501011,99.981987 46.743462,100.282310 47.202896,100.744064 
	C47.544754,101.074547 47.669624,101.243599 47.912872,101.704971 
	C46.971386,101.986725 45.911514,101.976158 44.441082,101.720428 
	C44.025902,101.305412 44.021286,101.135551 44.016674,100.965698 
z"/>
<path fill="#FDBA2D" opacity="1.000000" stroke="none" 
	d="
M39.089615,100.111740 
	C38.733887,100.868225 38.378159,101.624718 37.967285,102.692200 
	C37.597076,102.871880 37.349018,102.661507 37.066475,102.144012 
	C37.104416,101.386154 37.243858,100.856354 37.919449,100.179398 
	C38.666935,100.058754 38.878277,100.085251 39.089615,100.111740 
z"/>
<path fill="#FBBA2F" opacity="1.000000" stroke="none" 
	d="
M35.530632,104.548737 
	C35.475582,104.581299 35.585682,104.516174 35.530632,104.548737 
z"/>
<path fill="#FDC44B" opacity="1.000000" stroke="none" 
	d="
M43.757786,100.964111 
	C44.021286,101.135551 44.025902,101.305412 44.044056,101.729660 
	C43.775478,101.803154 43.493359,101.622269 43.096390,101.212387 
	C43.153988,100.976448 43.326443,100.969490 43.757786,100.964111 
z"/>
<path fill="#FDC44B" opacity="1.000000" stroke="none" 
	d="
M39.319653,100.098892 
	C38.878277,100.085251 38.666935,100.058754 38.135574,100.001953 
	C37.844578,99.526421 37.873604,99.081184 37.934364,98.301895 
	C38.402283,97.982620 38.838467,97.997406 39.599426,98.037247 
	C39.924194,98.062302 39.957100,98.529121 39.984154,99.038338 
	C40.010891,99.731911 40.010571,99.916275 40.010250,100.100647 
	C40.010250,100.100647 39.549690,100.086052 39.319653,100.098892 
z"/>
<path fill="#FBBA2F" opacity="1.000000" stroke="none" 
	d="
M38.104710,93.248779 
	C38.002396,93.028336 37.976555,92.545273 37.954227,92.304939 
	C38.277054,92.512939 38.622208,92.961281 38.983047,93.710953 
	C38.675205,93.918175 38.411297,93.737152 38.104710,93.248779 
z"/>
<path fill="#FDBA2D" opacity="1.000000" stroke="none" 
	d="
M40.179222,100.333092 
	C40.010571,99.916275 40.010891,99.731911 40.009377,99.270966 
	C40.595455,99.484863 41.183372,99.975349 41.875801,100.739166 
	C41.436279,100.863518 40.892239,100.714531 40.179222,100.333092 
z"/>
</svg>